{"glyphs":{"0":{"ha":743,"x_min":42,"x_max":700,"o":"m 371 983 q 547 924 474 983 q 660 753 621 865 q 700 486 700 642 q 660 219 700 331 q 547 48 621 107 q 371 -11 474 -11 q 194 48 268 -11 q 81 219 121 107 q 42 486 42 331 q 81 753 42 642 q 194 924 121 865 q 371 983 268 983 m 371 821 q 281 736 313 821 q 250 486 250 651 q 281 236 250 321 q 371 151 313 151 q 460 236 429 151 q 492 486 492 321 q 460 736 492 651 q 371 821 429 821 z "},"1":{"ha":743,"x_min":51,"x_max":681,"o":"m 433 978 q 471 967 451 978 q 490 944 490 957 l 490 163 l 639 163 q 671 146 661 163 q 681 93 681 129 l 681 69 q 671 17 681 33 q 639 0 661 0 l 100 0 q 68 17 78 0 q 58 69 58 33 l 58 93 q 68 146 58 129 q 100 163 78 163 l 285 163 l 285 786 l 96 758 q 62 797 72 758 q 51 875 51 835 q 88 914 51 907 l 433 978 z "},"2":{"ha":743,"x_min":46,"x_max":679,"o":"m 360 983 q 583 908 503 983 q 663 711 663 833 q 578 485 663 589 l 317 163 l 638 163 q 669 146 660 163 q 679 93 679 129 l 679 69 q 669 17 679 33 q 638 0 660 0 l 85 0 q 58 44 71 0 q 46 122 46 88 q 50 143 46 138 l 401 574 q 454 707 454 639 q 418 790 454 761 q 325 819 382 819 q 258 808 286 819 q 197 776 229 796 q 163 760 174 760 q 108 793 132 760 q 83 856 83 826 q 168 949 83 914 q 360 983 253 983 z "},"3":{"ha":743,"x_min":50,"x_max":665,"o":"m 349 983 q 556 917 479 983 q 633 740 633 851 q 599 616 633 669 q 504 538 564 563 l 504 532 q 625 436 585 501 q 665 283 665 371 q 578 68 665 147 q 351 -11 492 -11 q 220 0 290 -11 q 100 37 150 11 q 50 103 50 63 q 61 142 50 117 q 88 188 72 168 q 118 208 103 208 q 154 194 126 208 q 232 163 194 175 q 319 151 269 151 q 419 187 382 151 q 457 286 457 222 q 418 392 457 357 q 294 428 379 428 l 256 428 q 224 444 233 428 q 214 497 214 461 l 214 522 q 224 575 214 558 q 256 592 233 592 l 282 592 q 387 623 349 592 q 425 707 425 654 q 397 790 425 760 q 313 819 368 819 q 236 810 267 819 q 178 788 206 801 q 149 776 158 776 q 103 815 128 776 q 79 882 79 853 q 158 957 79 931 q 349 983 236 983 z "},"4":{"ha":743,"x_min":15,"x_max":731,"o":"m 553 975 q 636 931 636 975 l 636 360 l 689 360 q 721 343 711 360 q 731 290 731 326 l 731 267 q 721 214 731 231 q 689 197 711 197 l 636 197 l 636 42 q 553 -3 636 -3 l 514 -3 q 431 42 431 -3 l 431 197 l 67 197 q 33 246 50 197 q 15 326 15 294 q 18 342 15 336 l 431 949 q 461 970 442 965 q 515 975 481 975 l 553 975 m 425 679 l 222 360 l 431 360 l 431 678 l 425 679 z "},"5":{"ha":743,"x_min":53,"x_max":681,"o":"m 590 972 q 622 956 613 972 q 632 903 632 939 l 632 865 q 622 823 632 836 q 590 810 613 810 l 310 810 l 296 611 l 332 611 q 591 540 501 611 q 681 300 681 469 q 629 119 681 189 q 497 19 578 50 q 325 -11 417 -11 q 186 2 249 -11 q 88 38 124 15 q 53 89 53 61 q 65 128 53 101 q 95 177 78 156 q 128 199 113 199 q 163 185 132 199 q 235 162 194 172 q 324 151 275 151 q 432 190 392 151 q 472 294 472 228 q 432 410 472 371 q 299 449 392 449 l 147 449 q 107 461 118 449 q 96 504 96 474 l 122 917 q 138 959 125 946 q 181 972 151 972 l 590 972 z "},"6":{"ha":743,"x_min":46,"x_max":700,"o":"m 538 978 q 575 956 560 978 q 599 907 590 935 q 607 863 607 879 q 603 842 607 847 q 589 833 600 836 q 402 731 483 801 q 288 560 321 660 q 426 594 351 594 q 549 565 486 594 q 656 470 611 536 q 700 300 700 404 q 653 124 700 193 q 532 22 606 54 q 374 -11 458 -11 q 215 26 289 -11 q 93 144 140 63 q 46 351 46 225 q 152 728 46 589 q 378 923 258 868 q 538 978 497 978 m 367 432 q 257 399 317 432 q 256 335 256 378 q 288 194 256 238 q 375 151 321 151 q 459 192 425 151 q 493 294 493 232 q 460 395 493 358 q 367 432 426 432 z "},"7":{"ha":743,"x_min":53,"x_max":686,"o":"m 644 972 q 671 926 656 972 q 686 847 686 881 q 683 829 686 838 l 318 25 q 291 3 311 10 q 238 -3 271 -3 l 186 -3 q 104 24 104 -3 q 113 50 104 33 l 457 810 l 94 810 q 63 826 72 810 q 53 879 53 843 l 53 903 q 63 956 53 939 q 94 972 72 972 l 644 972 z "},"8":{"ha":743,"x_min":40,"x_max":703,"o":"m 383 983 q 536 951 471 983 q 636 863 601 918 q 671 742 671 808 q 640 613 671 660 q 550 535 608 567 q 703 267 703 465 q 669 134 703 197 q 562 30 635 71 q 376 -11 489 -11 q 187 28 263 -11 q 76 133 111 67 q 40 279 40 199 q 80 435 40 372 q 181 521 119 497 q 105 601 132 554 q 78 721 78 649 q 112 851 78 792 q 215 947 146 911 q 383 983 285 983 m 376 821 q 308 796 336 821 q 281 728 281 771 q 310 651 281 679 q 396 600 339 624 q 471 728 471 650 q 443 795 471 769 q 376 821 415 821 m 324 453 q 267 387 286 425 q 247 292 247 349 q 281 190 247 228 q 374 151 314 151 q 463 190 431 151 q 494 278 494 229 q 472 362 494 329 q 416 413 450 394 q 324 453 382 432 z "},"9":{"ha":743,"x_min":40,"x_max":694,"o":"m 367 982 q 526 945 451 982 q 647 827 600 908 q 694 619 694 746 q 588 242 694 382 q 363 48 482 103 q 203 -7 243 -7 q 165 15 181 -7 q 142 64 150 36 q 133 108 133 92 q 137 129 133 124 q 151 138 140 135 q 338 240 257 169 q 453 411 419 311 q 314 376 389 376 q 192 406 254 376 q 85 501 129 435 q 40 671 40 567 q 88 847 40 778 q 208 949 135 917 q 367 982 282 982 m 365 819 q 281 779 315 819 q 247 676 247 739 q 281 576 247 613 q 374 539 314 539 q 483 572 424 539 q 485 636 485 593 q 452 776 485 733 q 365 819 419 819 z "},"\u0000":{"ha":0,"x_min":0,"x_max":0,"o":""},"\r":{"ha":333,"x_min":0,"x_max":0,"o":""}," ":{"ha":333,"x_min":0,"x_max":0,"o":""},"A":{"ha":851,"x_min":0,"x_max":851,"o":"m 463 975 q 542 946 531 975 l 847 53 q 851 28 851 39 q 782 -3 851 -3 l 721 -3 q 643 26 653 -3 l 588 196 l 260 196 l 204 26 q 140 -3 194 -3 l 85 -3 q 0 28 0 -3 q 6 53 0 33 l 311 946 q 390 975 322 975 l 463 975 m 422 715 q 416 678 421 707 q 401 626 411 650 l 319 379 l 528 379 l 449 626 q 428 715 439 654 l 422 715 z "},"Á":{"ha":851,"x_min":0,"x_max":851,"o":"m 0 0 m 463 975 q 542 946 531 975 l 847 53 q 851 28 851 39 q 782 -3 851 -3 l 721 -3 q 643 26 653 -3 l 588 196 l 260 196 l 204 26 q 140 -3 194 -3 l 85 -3 q 0 28 0 -3 q 6 53 0 33 l 311 946 q 390 975 322 975 l 463 975 m 422 715 q 416 678 421 707 q 401 626 411 650 l 319 379 l 528 379 l 449 626 q 428 715 439 654 l 422 715 m 538 1265 q 601 1261 581 1265 q 621 1246 621 1257 q 613 1227 621 1238 q 569 1179 604 1217 q 476 1079 499 1104 q 440 1054 463 1064 q 372 1044 417 1044 q 338 1049 347 1044 q 329 1065 329 1054 q 338 1089 329 1072 q 363 1131 347 1106 q 419 1228 417 1222 q 538 1265 440 1265 z "},"Ă":{"ha":851,"x_min":0,"x_max":851,"o":"m 0 0 m 463 975 q 542 946 531 975 l 847 53 q 851 28 851 39 q 782 -3 851 -3 l 721 -3 q 643 26 653 -3 l 588 196 l 260 196 l 204 26 q 140 -3 194 -3 l 85 -3 q 0 28 0 -3 q 6 53 0 33 l 311 946 q 390 975 322 975 l 463 975 m 422 715 q 416 678 421 707 q 401 626 411 650 l 319 379 l 528 379 l 449 626 q 428 715 439 654 l 422 715 m 582 1239 q 618 1228 606 1239 q 631 1200 631 1218 q 604 1124 631 1160 q 531 1067 578 1089 q 426 1044 485 1044 q 322 1067 368 1044 q 249 1124 275 1089 q 222 1200 222 1160 q 235 1228 222 1218 q 271 1239 247 1239 q 295 1233 286 1239 q 317 1214 304 1228 q 358 1182 336 1193 q 426 1171 379 1171 q 497 1183 475 1171 q 539 1217 518 1194 q 558 1233 549 1228 q 582 1239 567 1239 z "},"Ắ":{"ha":851,"x_min":0,"x_max":851,"o":"m 522 1399 q 565 1392 551 1399 q 578 1365 578 1385 q 560 1332 578 1356 q 475 1226 543 1308 q 449 1211 465 1217 q 399 1206 432 1206 q 376 1210 382 1206 q 369 1226 369 1215 q 389 1285 369 1236 l 418 1361 q 522 1399 438 1399 m 582 1226 q 618 1216 606 1226 q 631 1188 631 1206 q 604 1119 631 1151 q 531 1065 578 1086 q 426 1044 485 1044 q 322 1065 368 1044 q 249 1119 275 1086 q 222 1188 222 1151 q 235 1216 222 1206 q 271 1226 247 1226 q 295 1221 286 1226 q 317 1201 304 1215 q 357 1168 335 1179 q 426 1157 379 1157 q 499 1169 476 1157 q 539 1204 521 1181 q 558 1221 549 1215 q 582 1226 567 1226 m 463 975 q 542 946 531 975 l 847 53 q 851 28 851 39 q 782 -3 851 -3 l 721 -3 q 643 26 653 -3 l 588 196 l 260 196 l 204 26 q 140 -3 194 -3 l 85 -3 q 0 28 0 -3 q 6 53 0 33 l 311 946 q 390 975 322 975 l 463 975 m 422 715 q 416 678 421 707 q 401 626 411 650 l 319 379 l 528 379 l 449 626 q 428 715 439 654 l 422 715 z "},"Ặ":{"ha":851,"x_min":0,"x_max":851,"o":"m 0 0 m 463 975 q 542 946 531 975 l 847 53 q 851 28 851 39 q 782 -3 851 -3 l 721 -3 q 643 26 653 -3 l 588 196 l 260 196 l 204 26 q 140 -3 194 -3 l 85 -3 q 0 28 0 -3 q 6 53 0 33 l 311 946 q 390 975 322 975 l 463 975 m 422 715 q 416 678 421 707 q 401 626 411 650 l 319 379 l 528 379 l 449 626 q 428 715 439 654 l 422 715 m 582 1239 q 618 1228 606 1239 q 631 1200 631 1218 q 604 1124 631 1160 q 531 1067 578 1089 q 426 1044 485 1044 q 322 1067 368 1044 q 249 1124 275 1089 q 222 1200 222 1160 q 235 1228 222 1218 q 271 1239 247 1239 q 295 1233 286 1239 q 317 1214 304 1228 q 358 1182 336 1193 q 426 1171 379 1171 q 497 1183 475 1171 q 539 1217 518 1194 q 558 1233 549 1228 q 582 1239 567 1239 m 433 -111 q 517 -156 517 -111 l 517 -239 q 433 -283 517 -283 q 350 -239 350 -283 l 350 -156 q 433 -111 350 -111 z "},"Ằ":{"ha":851,"x_min":0,"x_max":851,"o":"m 333 1397 q 451 1360 435 1397 q 497 1225 497 1246 q 488 1209 497 1214 q 454 1204 479 1204 q 401 1213 419 1204 q 368 1239 382 1222 l 315 1307 q 278 1354 289 1339 q 268 1378 268 1369 q 284 1393 268 1389 q 333 1397 300 1397 m 582 1226 q 618 1216 606 1226 q 631 1188 631 1206 q 604 1119 631 1151 q 531 1065 578 1086 q 426 1044 485 1044 q 322 1065 368 1044 q 249 1119 275 1086 q 222 1188 222 1151 q 235 1216 222 1206 q 271 1226 247 1226 q 295 1221 286 1226 q 317 1201 304 1215 q 357 1168 335 1179 q 426 1157 379 1157 q 499 1169 476 1157 q 539 1204 521 1181 q 558 1221 549 1215 q 582 1226 567 1226 m 463 975 q 542 946 531 975 l 847 53 q 851 28 851 39 q 782 -3 851 -3 l 721 -3 q 643 26 653 -3 l 588 196 l 260 196 l 204 26 q 140 -3 194 -3 l 85 -3 q 0 28 0 -3 q 6 53 0 33 l 311 946 q 390 975 322 975 l 463 975 m 422 715 q 416 678 421 707 q 401 626 411 650 l 319 379 l 528 379 l 449 626 q 428 715 439 654 l 422 715 z "},"Ẳ":{"ha":851,"x_min":0,"x_max":851,"o":"m 440 1303 q 431 1320 440 1314 q 411 1326 422 1326 q 361 1315 381 1326 q 338 1303 342 1303 q 313 1324 329 1303 q 296 1361 296 1346 q 333 1388 296 1375 q 407 1400 369 1400 q 501 1375 467 1400 q 536 1308 536 1350 q 500 1243 536 1272 q 467 1222 486 1232 q 432 1213 447 1213 q 388 1221 404 1213 q 371 1242 371 1229 q 379 1252 371 1246 q 397 1264 388 1258 q 431 1283 422 1275 q 440 1303 440 1290 m 582 1226 q 618 1216 606 1226 q 631 1188 631 1206 q 604 1119 631 1151 q 531 1065 578 1086 q 426 1044 485 1044 q 322 1065 368 1044 q 249 1119 275 1086 q 222 1188 222 1151 q 235 1216 222 1206 q 271 1226 247 1226 q 295 1221 286 1226 q 317 1201 304 1215 q 357 1168 335 1179 q 426 1157 379 1157 q 499 1169 476 1157 q 539 1204 521 1181 q 558 1221 549 1215 q 582 1226 567 1226 m 463 975 q 542 946 531 975 l 847 53 q 851 28 851 39 q 782 -3 851 -3 l 721 -3 q 643 26 653 -3 l 588 196 l 260 196 l 204 26 q 140 -3 194 -3 l 85 -3 q 0 28 0 -3 q 6 53 0 33 l 311 946 q 390 975 322 975 l 463 975 m 422 715 q 416 678 421 707 q 401 626 411 650 l 319 379 l 528 379 l 449 626 q 428 715 439 654 l 422 715 z "},"Ẵ":{"ha":851,"x_min":0,"x_max":851,"o":"m 339 1411 q 394 1401 360 1411 q 436 1390 429 1392 q 517 1371 492 1372 q 558 1393 540 1371 q 593 1417 576 1417 q 610 1414 599 1417 l 624 1410 q 651 1372 651 1400 q 649 1353 651 1358 q 599 1284 635 1313 q 511 1256 563 1256 q 456 1265 490 1256 q 414 1276 421 1275 q 333 1296 358 1294 q 292 1274 310 1296 q 257 1250 274 1250 q 240 1253 251 1250 l 226 1257 q 199 1294 199 1267 q 201 1314 199 1308 q 251 1383 215 1354 q 339 1411 288 1411 m 582 1226 q 618 1216 606 1226 q 631 1188 631 1206 q 604 1119 631 1151 q 531 1065 578 1086 q 426 1044 485 1044 q 322 1065 368 1044 q 249 1119 275 1086 q 222 1188 222 1151 q 235 1216 222 1206 q 271 1226 247 1226 q 295 1221 286 1226 q 317 1201 304 1215 q 357 1168 335 1179 q 426 1157 379 1157 q 499 1169 476 1157 q 539 1204 521 1181 q 558 1221 549 1215 q 582 1226 567 1226 m 463 975 q 542 946 531 975 l 847 53 q 851 28 851 39 q 782 -3 851 -3 l 721 -3 q 643 26 653 -3 l 588 196 l 260 196 l 204 26 q 140 -3 194 -3 l 85 -3 q 0 28 0 -3 q 6 53 0 33 l 311 946 q 390 975 322 975 l 463 975 m 422 715 q 416 678 421 707 q 401 626 411 650 l 319 379 l 528 379 l 449 626 q 428 715 439 654 l 422 715 z "},"Â":{"ha":851,"x_min":0,"x_max":851,"o":"m 0 0 m 463 975 q 542 946 531 975 l 847 53 q 851 28 851 39 q 782 -3 851 -3 l 721 -3 q 643 26 653 -3 l 588 196 l 260 196 l 204 26 q 140 -3 194 -3 l 85 -3 q 0 28 0 -3 q 6 53 0 33 l 311 946 q 390 975 322 975 l 463 975 m 422 715 q 416 678 421 707 q 401 626 411 650 l 319 379 l 528 379 l 449 626 q 428 715 439 654 l 422 715 m 433 1243 q 488 1238 469 1243 q 518 1217 507 1233 l 608 1075 q 617 1054 617 1063 q 589 1040 617 1040 l 558 1040 q 464 1074 486 1040 l 425 1129 l 386 1075 q 349 1047 372 1054 q 293 1040 326 1040 l 263 1040 q 235 1054 235 1040 q 243 1075 235 1063 l 333 1217 q 363 1238 344 1233 q 418 1243 382 1243 l 433 1243 z "},"Ấ":{"ha":851,"x_min":0,"x_max":851,"o":"m 708 1339 q 751 1332 738 1339 q 764 1306 764 1325 q 747 1272 764 1296 q 661 1167 729 1249 q 635 1151 651 1157 q 585 1146 618 1146 q 562 1151 568 1146 q 556 1167 556 1156 q 575 1225 556 1176 l 604 1301 q 708 1339 624 1339 m 435 1243 q 480 1238 464 1243 q 506 1217 496 1233 l 589 1075 q 597 1054 597 1063 q 569 1040 597 1040 l 539 1040 q 476 1047 501 1040 q 444 1074 451 1054 l 426 1129 l 388 1075 q 351 1047 374 1054 q 294 1040 328 1040 l 264 1040 q 236 1054 236 1040 q 244 1075 236 1063 l 335 1217 q 365 1238 346 1233 q 419 1243 383 1243 l 435 1243 m 463 975 q 542 946 531 975 l 847 53 q 851 28 851 39 q 782 -3 851 -3 l 721 -3 q 643 26 653 -3 l 588 196 l 260 196 l 204 26 q 140 -3 194 -3 l 85 -3 q 0 28 0 -3 q 6 53 0 33 l 311 946 q 390 975 322 975 l 463 975 m 422 715 q 416 678 421 707 q 401 626 411 650 l 319 379 l 528 379 l 449 626 q 428 715 439 654 l 422 715 z "},"Ậ":{"ha":851,"x_min":0,"x_max":851,"o":"m 0 0 m 463 975 q 542 946 531 975 l 847 53 q 851 28 851 39 q 782 -3 851 -3 l 721 -3 q 643 26 653 -3 l 588 196 l 260 196 l 204 26 q 140 -3 194 -3 l 85 -3 q 0 28 0 -3 q 6 53 0 33 l 311 946 q 390 975 322 975 l 463 975 m 422 715 q 416 678 421 707 q 401 626 411 650 l 319 379 l 528 379 l 449 626 q 428 715 439 654 l 422 715 m 433 1243 q 488 1238 469 1243 q 518 1217 507 1233 l 608 1075 q 617 1054 617 1063 q 589 1040 617 1040 l 558 1040 q 464 1074 486 1040 l 425 1129 l 386 1075 q 349 1047 372 1054 q 293 1040 326 1040 l 263 1040 q 235 1054 235 1040 q 243 1075 235 1063 l 333 1217 q 363 1238 344 1233 q 418 1243 382 1243 l 433 1243 m 433 -111 q 517 -156 517 -111 l 517 -239 q 433 -283 517 -283 q 350 -239 350 -283 l 350 -156 q 433 -111 350 -111 z "},"Ầ":{"ha":851,"x_min":0,"x_max":851,"o":"m 519 1338 q 638 1300 621 1338 q 683 1165 683 1186 q 674 1149 683 1154 q 640 1144 665 1144 q 587 1153 606 1144 q 554 1179 568 1163 l 501 1247 q 465 1294 475 1279 q 454 1318 454 1310 q 470 1333 454 1329 q 519 1338 486 1338 m 435 1243 q 480 1238 464 1243 q 506 1217 496 1233 l 589 1075 q 597 1054 597 1063 q 569 1040 597 1040 l 539 1040 q 476 1047 501 1040 q 444 1074 451 1054 l 426 1129 l 388 1075 q 351 1047 374 1054 q 294 1040 328 1040 l 264 1040 q 236 1054 236 1040 q 244 1075 236 1063 l 335 1217 q 365 1238 346 1233 q 419 1243 383 1243 l 435 1243 m 463 975 q 542 946 531 975 l 847 53 q 851 28 851 39 q 782 -3 851 -3 l 721 -3 q 643 26 653 -3 l 588 196 l 260 196 l 204 26 q 140 -3 194 -3 l 85 -3 q 0 28 0 -3 q 6 53 0 33 l 311 946 q 390 975 322 975 l 463 975 m 422 715 q 416 678 421 707 q 401 626 411 650 l 319 379 l 528 379 l 449 626 q 428 715 439 654 l 422 715 z "},"Ẩ":{"ha":851,"x_min":0,"x_max":851,"o":"m 626 1243 q 617 1260 626 1254 q 597 1267 608 1267 q 547 1255 567 1267 q 524 1243 528 1243 q 499 1265 515 1243 q 482 1301 482 1286 q 519 1328 482 1315 q 593 1340 556 1340 q 688 1315 653 1340 q 722 1249 722 1290 q 686 1183 722 1213 q 653 1163 672 1172 q 618 1153 633 1153 q 574 1161 590 1153 q 557 1182 557 1169 q 565 1192 557 1186 q 583 1204 574 1199 q 617 1223 608 1215 q 626 1243 626 1231 m 435 1243 q 480 1238 464 1243 q 506 1217 496 1233 l 589 1075 q 597 1054 597 1063 q 569 1040 597 1040 l 539 1040 q 476 1047 501 1040 q 444 1074 451 1054 l 426 1129 l 388 1075 q 351 1047 374 1054 q 294 1040 328 1040 l 264 1040 q 236 1054 236 1040 q 244 1075 236 1063 l 335 1217 q 365 1238 346 1233 q 419 1243 383 1243 l 435 1243 m 463 975 q 542 946 531 975 l 847 53 q 851 28 851 39 q 782 -3 851 -3 l 721 -3 q 643 26 653 -3 l 588 196 l 260 196 l 204 26 q 140 -3 194 -3 l 85 -3 q 0 28 0 -3 q 6 53 0 33 l 311 946 q 390 975 322 975 l 463 975 m 422 715 q 416 678 421 707 q 401 626 411 650 l 319 379 l 528 379 l 449 626 q 428 715 439 654 l 422 715 z "},"Ẫ":{"ha":851,"x_min":0,"x_max":851,"o":"m 333 1411 q 389 1401 354 1411 q 431 1390 424 1392 q 511 1371 486 1372 q 553 1393 535 1371 q 588 1417 571 1417 q 604 1414 593 1417 l 618 1410 q 646 1372 646 1400 q 643 1353 646 1358 q 593 1284 629 1313 q 506 1256 557 1256 q 450 1265 485 1256 q 408 1276 415 1275 q 328 1296 353 1294 q 286 1274 304 1296 q 251 1250 268 1250 q 235 1253 246 1250 l 221 1257 q 193 1294 193 1267 q 196 1314 193 1308 q 246 1383 210 1354 q 333 1411 282 1411 m 435 1210 q 485 1204 467 1210 q 519 1183 504 1199 l 610 1075 q 618 1054 618 1063 q 590 1040 618 1040 l 560 1040 q 513 1049 533 1040 q 465 1074 493 1057 l 426 1111 l 388 1075 q 363 1060 381 1071 q 330 1045 346 1050 q 294 1040 314 1040 l 264 1040 q 236 1054 236 1040 q 244 1075 236 1063 l 335 1183 q 369 1204 350 1199 q 419 1210 388 1210 l 435 1210 m 463 975 q 542 946 531 975 l 847 53 q 851 28 851 39 q 782 -3 851 -3 l 721 -3 q 643 26 653 -3 l 588 196 l 260 196 l 204 26 q 140 -3 194 -3 l 85 -3 q 0 28 0 -3 q 6 53 0 33 l 311 946 q 390 975 322 975 l 463 975 m 422 715 q 416 678 421 707 q 401 626 411 650 l 319 379 l 528 379 l 449 626 q 428 715 439 654 l 422 715 z "},"Ä":{"ha":851,"x_min":0,"x_max":851,"o":"m 0 0 m 463 975 q 542 946 531 975 l 847 53 q 851 28 851 39 q 782 -3 851 -3 l 721 -3 q 643 26 653 -3 l 588 196 l 260 196 l 204 26 q 140 -3 194 -3 l 85 -3 q 0 28 0 -3 q 6 53 0 33 l 311 946 q 390 975 322 975 l 463 975 m 422 715 q 416 678 421 707 q 401 626 411 650 l 319 379 l 528 379 l 449 626 q 428 715 439 654 l 422 715 m 301 1221 q 385 1176 385 1221 l 385 1093 q 301 1049 385 1049 q 218 1093 218 1049 l 218 1176 q 301 1221 218 1221 m 551 1221 q 635 1176 635 1221 l 635 1093 q 551 1049 635 1049 q 468 1093 468 1049 l 468 1176 q 551 1221 468 1221 z "},"Ạ":{"ha":851,"x_min":0,"x_max":851,"o":"m 0 0 m 463 975 q 542 946 531 975 l 847 53 q 851 28 851 39 q 782 -3 851 -3 l 721 -3 q 643 26 653 -3 l 588 196 l 260 196 l 204 26 q 140 -3 194 -3 l 85 -3 q 0 28 0 -3 q 6 53 0 33 l 311 946 q 390 975 322 975 l 463 975 m 422 715 q 416 678 421 707 q 401 626 411 650 l 319 379 l 528 379 l 449 626 q 428 715 439 654 l 422 715 m 433 -111 q 517 -156 517 -111 l 517 -239 q 433 -283 517 -283 q 350 -239 350 -283 l 350 -156 q 433 -111 350 -111 z "},"À":{"ha":851,"x_min":0,"x_max":851,"o":"m 0 0 m 463 975 q 542 946 531 975 l 847 53 q 851 28 851 39 q 782 -3 851 -3 l 721 -3 q 643 26 653 -3 l 588 196 l 260 196 l 204 26 q 140 -3 194 -3 l 85 -3 q 0 28 0 -3 q 6 53 0 33 l 311 946 q 390 975 322 975 l 463 975 m 422 715 q 416 678 421 707 q 401 626 411 650 l 319 379 l 528 379 l 449 626 q 428 715 439 654 l 422 715 m 324 1265 q 442 1228 421 1265 q 499 1131 444 1222 q 523 1089 514 1106 q 532 1065 532 1072 q 523 1049 532 1054 q 489 1044 514 1044 q 422 1054 444 1044 q 385 1079 399 1064 q 292 1179 363 1104 q 249 1227 257 1217 q 240 1246 240 1238 q 260 1261 240 1257 q 324 1265 281 1265 z "},"Ả":{"ha":851,"x_min":0,"x_max":851,"o":"m 0 0 m 463 975 q 542 946 531 975 l 847 53 q 851 28 851 39 q 782 -3 851 -3 l 721 -3 q 643 26 653 -3 l 588 196 l 260 196 l 204 26 q 140 -3 194 -3 l 85 -3 q 0 28 0 -3 q 6 53 0 33 l 311 946 q 390 975 322 975 l 463 975 m 422 715 q 416 678 421 707 q 401 626 411 650 l 319 379 l 528 379 l 449 626 q 428 715 439 654 l 422 715 m 478 1174 q 465 1196 478 1188 q 433 1204 451 1204 q 398 1196 415 1204 q 375 1188 381 1188 q 350 1209 367 1188 q 333 1246 333 1231 q 371 1274 333 1260 q 444 1289 408 1289 q 558 1260 518 1289 q 599 1179 599 1231 q 571 1113 599 1146 q 508 1059 543 1081 q 460 1038 474 1038 q 410 1049 436 1038 q 385 1069 385 1061 q 421 1107 385 1081 q 463 1142 447 1126 q 478 1174 478 1158 z "},"Ā":{"ha":851,"x_min":0,"x_max":851,"o":"m 0 0 m 463 975 q 542 946 531 975 l 847 53 q 851 28 851 39 q 782 -3 851 -3 l 721 -3 q 643 26 653 -3 l 588 196 l 260 196 l 204 26 q 140 -3 194 -3 l 85 -3 q 0 28 0 -3 q 6 53 0 33 l 311 946 q 390 975 322 975 l 463 975 m 422 715 q 416 678 421 707 q 401 626 411 650 l 319 379 l 528 379 l 449 626 q 428 715 439 654 l 422 715 m 575 1207 q 607 1194 597 1207 q 617 1151 617 1181 l 617 1131 q 607 1088 617 1101 q 575 1075 597 1075 l 276 1075 q 244 1088 254 1075 q 235 1131 235 1101 l 235 1151 q 244 1194 235 1181 q 276 1207 254 1207 l 575 1207 z "},"Ą":{"ha":851,"x_min":0,"x_max":936,"o":"m 906 -146 q 936 -185 936 -146 q 822 -254 936 -254 q 692 -208 725 -254 q 658 -112 658 -162 q 666 -54 658 -87 q 692 -1 674 -21 q 643 26 651 3 l 588 196 l 260 196 l 204 26 q 140 -3 194 -3 l 85 -3 q 0 28 0 -3 q 6 53 0 33 l 311 946 q 390 975 322 975 l 463 975 q 542 946 531 975 l 847 53 q 851 28 851 39 q 782 -3 851 -3 l 767 -3 l 767 -7 q 759 -39 767 -15 q 751 -86 751 -62 q 776 -144 751 -131 q 838 -157 801 -157 q 878 -151 856 -157 q 906 -146 894 -146 m 528 379 l 449 626 q 428 715 439 654 l 422 715 q 416 678 421 707 q 401 626 411 650 l 319 379 l 528 379 z "},"Å":{"ha":851,"x_min":0,"x_max":851,"o":"m 0 0 m 463 975 q 542 946 531 975 l 847 53 q 851 28 851 39 q 782 -3 851 -3 l 721 -3 q 643 26 653 -3 l 588 196 l 260 196 l 204 26 q 140 -3 194 -3 l 85 -3 q 0 28 0 -3 q 6 53 0 33 l 311 946 q 390 975 322 975 l 463 975 m 422 715 q 416 678 421 707 q 401 626 411 650 l 319 379 l 528 379 l 449 626 q 428 715 439 654 l 422 715 m 425 1286 q 524 1246 483 1286 q 564 1147 564 1206 q 524 1049 564 1089 q 425 1010 483 1010 q 327 1049 367 1010 q 288 1147 288 1089 q 327 1246 288 1206 q 425 1286 367 1286 m 425 1197 q 390 1182 404 1197 q 375 1146 375 1167 q 390 1110 375 1125 q 425 1096 404 1096 q 461 1110 446 1096 q 476 1146 476 1125 q 461 1182 476 1167 q 425 1197 446 1197 z "},"Ǻ":{"ha":851,"x_min":0,"x_max":851,"o":"m 406 1128 q 372 1133 381 1128 q 363 1149 363 1138 q 419 1256 388 1207 q 538 1293 440 1293 q 601 1289 581 1293 q 621 1274 621 1285 q 610 1256 621 1268 q 571 1218 599 1243 l 510 1163 q 473 1138 496 1147 q 406 1128 450 1128 m 847 53 q 851 28 851 39 q 782 -3 851 -3 l 721 -3 q 643 26 653 -3 l 588 196 l 260 196 l 204 26 q 140 -3 194 -3 l 85 -3 q 0 28 0 -3 q 6 53 0 33 l 300 913 q 289 967 289 939 q 328 1065 289 1025 q 426 1106 368 1106 q 525 1065 485 1106 q 565 967 565 1025 q 554 911 565 938 l 847 53 m 426 1017 q 391 1001 406 1017 q 376 965 376 986 q 391 930 376 944 q 426 915 406 915 q 463 930 447 915 q 478 965 478 944 q 463 1001 478 986 q 426 1017 447 1017 m 528 379 l 449 626 q 428 715 439 654 l 422 715 q 416 678 421 707 q 401 626 411 650 l 319 379 l 528 379 z "},"Ã":{"ha":851,"x_min":0,"x_max":851,"o":"m 0 0 m 463 975 q 542 946 531 975 l 847 53 q 851 28 851 39 q 782 -3 851 -3 l 721 -3 q 643 26 653 -3 l 588 196 l 260 196 l 204 26 q 140 -3 194 -3 l 85 -3 q 0 28 0 -3 q 6 53 0 33 l 311 946 q 390 975 322 975 l 463 975 m 422 715 q 416 678 421 707 q 401 626 411 650 l 319 379 l 528 379 l 449 626 q 428 715 439 654 l 422 715 m 317 1210 q 377 1200 339 1210 q 424 1189 415 1190 q 513 1169 488 1171 q 558 1192 538 1169 q 596 1215 576 1215 q 614 1213 603 1215 l 629 1208 q 661 1171 661 1199 q 657 1151 661 1160 q 601 1083 642 1111 q 506 1054 561 1054 q 445 1064 483 1054 q 399 1075 407 1074 q 310 1094 335 1093 q 264 1072 283 1094 q 226 1049 246 1049 q 208 1051 219 1049 l 193 1056 q 161 1093 161 1065 q 165 1113 161 1104 q 221 1181 181 1153 q 317 1210 261 1210 z "},"Æ":{"ha":1271,"x_min":1,"x_max":1201,"o":"m 1158 972 q 1190 956 1181 972 q 1200 903 1200 939 l 1200 860 q 1190 807 1200 824 q 1158 790 1181 790 l 718 790 l 757 589 l 1121 589 q 1153 572 1143 589 q 1163 519 1163 556 l 1163 476 q 1153 424 1163 440 q 1121 407 1143 407 l 793 407 l 836 182 l 1160 182 q 1192 165 1182 182 q 1201 113 1201 149 l 1201 69 q 1192 17 1201 33 q 1160 0 1182 0 l 700 0 q 667 10 678 0 q 651 42 656 19 l 622 196 l 285 196 l 201 26 q 138 -3 188 -3 l 86 -3 q 1 28 1 -3 q 7 53 1 42 l 453 935 q 478 963 464 954 q 514 972 492 972 l 1158 972 m 543 746 l 538 746 l 499 632 l 375 379 l 589 379 l 543 631 l 543 746 z "},"Ǽ":{"ha":1271,"x_min":1,"x_max":1201,"o":"m 1 0 m 1158 972 q 1190 956 1181 972 q 1200 903 1200 939 l 1200 860 q 1190 807 1200 824 q 1158 790 1181 790 l 718 790 l 757 589 l 1121 589 q 1153 572 1143 589 q 1163 519 1163 556 l 1163 476 q 1153 424 1163 440 q 1121 407 1143 407 l 793 407 l 836 182 l 1160 182 q 1192 165 1182 182 q 1201 113 1201 149 l 1201 69 q 1192 17 1201 33 q 1160 0 1182 0 l 700 0 q 667 10 678 0 q 651 42 656 19 l 622 196 l 285 196 l 201 26 q 138 -3 188 -3 l 86 -3 q 1 28 1 -3 q 7 53 1 42 l 453 935 q 478 963 464 954 q 514 972 492 972 l 1158 972 m 543 746 l 538 746 l 499 632 l 375 379 l 589 379 l 543 631 l 543 746 m 747 1265 q 810 1261 790 1265 q 831 1246 831 1257 q 822 1227 831 1238 q 779 1179 814 1217 q 686 1079 708 1104 q 649 1054 672 1064 q 582 1044 626 1044 q 548 1049 557 1044 q 539 1065 539 1054 q 548 1089 539 1072 q 572 1131 557 1106 q 629 1228 626 1222 q 747 1265 650 1265 z "},"B":{"ha":824,"x_min":96,"x_max":793,"o":"m 426 972 q 675 907 596 972 q 754 726 754 842 q 712 599 754 657 q 604 515 669 542 l 606 510 q 740 428 688 493 q 793 282 793 363 q 706 73 793 146 q 446 0 619 0 l 151 0 q 109 13 122 0 q 96 56 96 26 l 96 917 q 109 959 96 946 q 151 972 122 972 l 426 972 m 310 792 l 310 585 l 406 585 q 501 614 467 585 q 535 689 535 643 q 408 792 535 792 l 310 792 m 310 403 l 310 182 l 446 182 q 540 211 507 182 q 574 294 574 240 q 535 376 574 349 q 424 403 496 403 l 310 403 z "},"C":{"ha":860,"x_min":63,"x_max":829,"o":"m 526 983 q 657 971 589 983 q 771 936 725 958 q 817 886 817 914 q 801 835 817 867 q 765 780 786 804 q 726 756 743 756 q 693 768 722 756 q 622 790 664 781 q 522 800 581 800 q 341 722 400 800 q 282 488 282 644 q 519 171 282 171 q 628 183 582 171 q 717 215 674 196 q 747 226 739 226 q 787 203 768 226 q 817 149 806 179 q 829 106 829 119 q 778 40 829 67 q 654 1 726 14 q 519 -11 582 -11 q 174 110 286 -11 q 63 489 63 232 q 526 983 63 983 z "},"Ć":{"ha":860,"x_min":63,"x_max":829,"o":"m 63 0 m 526 983 q 657 971 589 983 q 771 936 725 958 q 817 886 817 914 q 801 835 817 867 q 765 780 786 804 q 726 756 743 756 q 693 768 722 756 q 622 790 664 781 q 522 800 581 800 q 341 722 400 800 q 282 488 282 644 q 519 171 282 171 q 628 183 582 171 q 717 215 674 196 q 747 226 739 226 q 787 203 768 226 q 817 149 806 179 q 829 106 829 119 q 778 40 829 67 q 654 1 726 14 q 519 -11 582 -11 q 174 110 286 -11 q 63 489 63 232 q 526 983 63 983 m 622 1265 q 685 1261 665 1265 q 706 1246 706 1257 q 697 1227 706 1238 q 654 1179 689 1217 q 561 1079 583 1104 q 524 1054 547 1064 q 457 1044 501 1044 q 423 1049 432 1044 q 414 1065 414 1054 q 423 1089 414 1072 q 447 1131 432 1106 q 504 1228 501 1222 q 622 1265 525 1265 z "},"Č":{"ha":860,"x_min":63,"x_max":829,"o":"m 63 0 m 526 983 q 657 971 589 983 q 771 936 725 958 q 817 886 817 914 q 801 835 817 867 q 765 780 786 804 q 726 756 743 756 q 693 768 722 756 q 622 790 664 781 q 522 800 581 800 q 341 722 400 800 q 282 488 282 644 q 519 171 282 171 q 628 183 582 171 q 717 215 674 196 q 747 226 739 226 q 787 203 768 226 q 817 149 806 179 q 829 106 829 119 q 778 40 829 67 q 654 1 726 14 q 519 -11 582 -11 q 174 110 286 -11 q 63 489 63 232 q 526 983 63 983 m 674 1243 q 701 1229 701 1243 q 693 1208 701 1221 l 603 1067 q 573 1045 592 1050 q 518 1040 554 1040 l 503 1040 q 448 1045 467 1040 q 418 1067 429 1050 l 328 1208 q 319 1229 319 1221 q 347 1243 319 1243 l 378 1243 q 434 1236 411 1243 q 471 1208 457 1229 l 510 1154 l 549 1210 q 643 1243 571 1243 l 674 1243 z "},"Ç":{"ha":860,"x_min":63,"x_max":829,"o":"m 829 106 q 747 26 829 56 q 561 -10 664 -4 l 551 -50 q 626 -81 594 -56 q 658 -156 658 -107 q 493 -294 658 -294 q 369 -275 428 -294 q 311 -225 311 -256 q 327 -179 311 -194 q 356 -164 343 -164 q 400 -175 367 -164 q 482 -193 449 -193 q 515 -169 515 -193 q 506 -150 515 -157 q 478 -135 497 -143 q 451 -121 461 -128 q 442 -103 442 -114 q 469 -10 442 -94 q 163 124 263 3 q 63 489 63 246 q 526 983 63 983 q 657 971 589 983 q 771 936 725 958 q 817 886 817 914 q 801 835 817 867 q 765 780 786 804 q 726 756 743 756 q 693 768 722 756 q 622 790 664 781 q 522 800 581 800 q 341 722 400 800 q 282 488 282 644 q 519 171 282 171 q 628 183 582 171 q 717 215 674 196 q 747 226 739 226 q 787 203 768 226 q 817 149 806 179 q 829 106 829 119 z "},"Ĉ":{"ha":860,"x_min":63,"x_max":829,"o":"m 63 0 m 526 983 q 657 971 589 983 q 771 936 725 958 q 817 886 817 914 q 801 835 817 867 q 765 780 786 804 q 726 756 743 756 q 693 768 722 756 q 622 790 664 781 q 522 800 581 800 q 341 722 400 800 q 282 488 282 644 q 519 171 282 171 q 628 183 582 171 q 717 215 674 196 q 747 226 739 226 q 787 203 768 226 q 817 149 806 179 q 829 106 829 119 q 778 40 829 67 q 654 1 726 14 q 519 -11 582 -11 q 174 110 286 -11 q 63 489 63 232 q 526 983 63 983 m 518 1243 q 573 1238 554 1243 q 603 1217 592 1233 l 693 1075 q 701 1054 701 1063 q 674 1040 701 1040 l 643 1040 q 549 1074 571 1040 l 510 1129 l 471 1075 q 434 1047 457 1054 q 378 1040 411 1040 l 347 1040 q 319 1054 319 1040 q 328 1075 319 1063 l 418 1217 q 448 1238 429 1233 q 503 1243 467 1243 l 518 1243 z "},"Ċ":{"ha":860,"x_min":63,"x_max":829,"o":"m 63 0 m 526 983 q 657 971 589 983 q 771 936 725 958 q 817 886 817 914 q 801 835 817 867 q 765 780 786 804 q 726 756 743 756 q 693 768 722 756 q 622 790 664 781 q 522 800 581 800 q 341 722 400 800 q 282 488 282 644 q 519 171 282 171 q 628 183 582 171 q 717 215 674 196 q 747 226 739 226 q 787 203 768 226 q 817 149 806 179 q 829 106 829 119 q 778 40 829 67 q 654 1 726 14 q 519 -11 582 -11 q 174 110 286 -11 q 63 489 63 232 q 526 983 63 983 m 511 1221 q 594 1176 594 1221 l 594 1093 q 511 1049 594 1049 q 428 1093 428 1049 l 428 1176 q 511 1221 428 1221 z "},"D":{"ha":965,"x_min":96,"x_max":907,"o":"m 463 972 q 792 847 678 972 q 907 486 907 721 q 792 126 907 251 q 463 0 678 0 l 151 0 q 109 13 122 0 q 96 56 96 26 l 96 917 q 109 959 96 946 q 151 972 122 972 l 463 972 m 311 790 l 311 182 l 463 182 q 631 260 574 182 q 688 486 688 338 q 631 713 688 635 q 463 790 574 790 l 311 790 z "},"Ǳ":{"ha":1821,"x_min":96,"x_max":1771,"o":"m 96 0 m 463 972 q 792 847 678 972 q 907 486 907 721 q 792 126 907 251 q 463 0 678 0 l 151 0 q 109 13 122 0 q 96 56 96 26 l 96 917 q 109 959 96 946 q 151 972 122 972 l 463 972 m 311 790 l 311 182 l 463 182 q 631 260 574 182 q 688 486 688 338 q 631 713 688 635 q 463 790 574 790 l 311 790 m 1719 972 q 1753 924 1735 972 q 1771 844 1771 875 q 1769 833 1771 836 l 1306 182 l 1729 182 q 1761 165 1751 182 q 1771 113 1771 149 l 1771 69 q 1761 17 1771 33 q 1729 0 1751 0 l 1057 0 q 1022 47 1040 0 q 1003 124 1003 93 q 1006 138 1003 132 l 1471 790 l 1085 790 q 1053 807 1063 790 q 1043 860 1043 824 l 1043 903 q 1053 956 1043 939 q 1085 972 1063 972 l 1719 972 z "},"Ǆ":{"ha":1821,"x_min":96,"x_max":1771,"o":"m 96 0 m 463 972 q 792 847 678 972 q 907 486 907 721 q 792 126 907 251 q 463 0 678 0 l 151 0 q 109 13 122 0 q 96 56 96 26 l 96 917 q 109 959 96 946 q 151 972 122 972 l 463 972 m 311 790 l 311 182 l 463 182 q 631 260 574 182 q 688 486 688 338 q 631 713 688 635 q 463 790 574 790 l 311 790 m 1719 972 q 1753 924 1735 972 q 1771 844 1771 875 q 1769 833 1771 836 l 1306 182 l 1729 182 q 1761 165 1751 182 q 1771 113 1771 149 l 1771 69 q 1761 17 1771 33 q 1729 0 1751 0 l 1057 0 q 1022 47 1040 0 q 1003 124 1003 93 q 1006 138 1003 132 l 1471 790 l 1085 790 q 1053 807 1063 790 q 1043 860 1043 824 l 1043 903 q 1053 956 1043 939 q 1085 972 1063 972 l 1719 972 m 1556 1243 q 1583 1229 1583 1243 q 1575 1208 1583 1221 l 1485 1067 q 1455 1045 1474 1050 q 1400 1040 1436 1040 l 1385 1040 q 1330 1045 1349 1040 q 1300 1067 1311 1050 l 1210 1208 q 1201 1229 1201 1221 q 1229 1243 1201 1243 l 1260 1243 q 1316 1236 1293 1243 q 1353 1208 1339 1229 l 1392 1154 l 1431 1210 q 1525 1243 1453 1243 l 1556 1243 z "},"Ð":{"ha":967,"x_min":17,"x_max":910,"o":"m 465 972 q 795 847 681 972 q 910 486 910 721 q 795 126 910 251 q 465 0 681 0 l 154 0 q 112 13 125 0 q 99 56 99 26 l 99 404 l 58 404 q 26 421 36 404 q 17 474 17 438 l 17 515 q 26 568 17 551 q 58 585 36 585 l 99 585 l 99 917 q 112 959 99 946 q 154 972 125 972 l 465 972 m 314 790 l 314 585 l 396 585 q 428 568 418 585 q 438 515 438 551 l 438 474 q 428 421 438 438 q 396 404 418 404 l 314 404 l 314 182 l 465 182 q 633 260 576 182 q 690 486 690 338 q 633 713 690 635 q 465 790 576 790 l 314 790 z "},"Ď":{"ha":965,"x_min":96,"x_max":907,"o":"m 96 0 m 463 972 q 792 847 678 972 q 907 486 907 721 q 792 126 907 251 q 463 0 678 0 l 151 0 q 109 13 122 0 q 96 56 96 26 l 96 917 q 109 959 96 946 q 151 972 122 972 l 463 972 m 311 790 l 311 182 l 463 182 q 631 260 574 182 q 688 486 688 338 q 631 713 688 635 q 463 790 574 790 l 311 790 m 625 1243 q 653 1229 653 1243 q 644 1208 653 1221 l 554 1067 q 524 1045 543 1050 q 469 1040 506 1040 l 454 1040 q 399 1045 418 1040 q 369 1067 381 1050 l 279 1208 q 271 1229 271 1221 q 299 1243 271 1243 l 329 1243 q 385 1236 363 1243 q 422 1208 408 1229 l 461 1154 l 500 1210 q 594 1243 522 1243 l 625 1243 z "},"Đ":{"ha":967,"x_min":17,"x_max":910,"o":"m 17 0 m 465 972 q 795 847 681 972 q 910 486 910 721 q 795 126 910 251 q 465 0 681 0 l 154 0 q 112 13 125 0 q 99 56 99 26 l 99 404 l 58 404 q 26 421 36 404 q 17 474 17 438 l 17 515 q 26 568 17 551 q 58 585 36 585 l 99 585 l 99 917 q 112 959 99 946 q 154 972 125 972 l 465 972 m 314 790 l 314 585 l 396 585 q 428 568 418 585 q 438 515 438 551 l 438 474 q 428 421 438 438 q 396 404 418 404 l 314 404 l 314 182 l 465 182 q 633 260 576 182 q 690 486 690 338 q 633 713 690 635 q 465 790 576 790 l 314 790 z "},"Ḍ":{"ha":965,"x_min":96,"x_max":907,"o":"m 96 0 m 463 972 q 792 847 678 972 q 907 486 907 721 q 792 126 907 251 q 463 0 678 0 l 151 0 q 109 13 122 0 q 96 56 96 26 l 96 917 q 109 959 96 946 q 151 972 122 972 l 463 972 m 311 790 l 311 182 l 463 182 q 631 260 574 182 q 688 486 688 338 q 631 713 688 635 q 463 790 574 790 l 311 790 m 463 -111 q 546 -156 546 -111 l 546 -239 q 463 -283 546 -283 q 379 -239 379 -283 l 379 -156 q 463 -111 379 -111 z "},"ǲ":{"ha":1644,"x_min":96,"x_max":1604,"o":"m 96 0 m 463 972 q 792 847 678 972 q 907 486 907 721 q 792 126 907 251 q 463 0 678 0 l 151 0 q 109 13 122 0 q 96 56 96 26 l 96 917 q 109 959 96 946 q 151 972 122 972 l 463 972 m 311 790 l 311 182 l 463 182 q 631 260 574 182 q 688 486 688 338 q 631 713 688 635 q 463 790 574 790 l 311 790 m 1558 726 q 1584 688 1569 726 q 1599 619 1599 649 q 1594 599 1599 606 l 1278 163 l 1563 163 q 1594 146 1585 163 q 1604 93 1604 129 l 1604 69 q 1594 17 1604 33 q 1563 0 1585 0 l 1043 0 q 1017 38 1031 0 q 1003 106 1003 76 q 1007 125 1003 119 l 1325 564 l 1067 564 q 1035 581 1044 564 q 1025 633 1025 597 l 1025 657 q 1035 710 1025 693 q 1067 726 1044 726 l 1558 726 z "},"ǅ":{"ha":1644,"x_min":96,"x_max":1604,"o":"m 96 0 m 463 972 q 792 847 678 972 q 907 486 907 721 q 792 126 907 251 q 463 0 678 0 l 151 0 q 109 13 122 0 q 96 56 96 26 l 96 917 q 109 959 96 946 q 151 972 122 972 l 463 972 m 311 790 l 311 182 l 463 182 q 631 260 574 182 q 688 486 688 338 q 631 713 688 635 q 463 790 574 790 l 311 790 m 1558 726 q 1584 688 1569 726 q 1599 619 1599 649 q 1594 599 1599 606 l 1278 163 l 1563 163 q 1594 146 1585 163 q 1604 93 1604 129 l 1604 69 q 1594 17 1604 33 q 1563 0 1585 0 l 1043 0 q 1017 38 1031 0 q 1003 106 1003 76 q 1007 125 1003 119 l 1325 564 l 1067 564 q 1035 581 1044 564 q 1025 633 1025 597 l 1025 657 q 1035 710 1025 693 q 1067 726 1044 726 l 1558 726 m 1468 997 q 1496 983 1496 997 q 1488 963 1496 975 l 1397 821 q 1367 799 1386 804 q 1313 794 1349 794 l 1297 794 q 1242 799 1261 794 q 1213 821 1224 804 l 1122 963 q 1114 983 1114 975 q 1142 997 1114 997 l 1172 997 q 1228 990 1206 997 q 1265 963 1251 983 l 1304 908 l 1343 964 q 1438 997 1365 997 l 1468 997 z "},"E":{"ha":758,"x_min":96,"x_max":703,"o":"m 660 972 q 692 956 682 972 q 701 903 701 939 l 701 860 q 692 807 701 824 q 660 790 682 790 l 310 790 l 310 589 l 622 589 q 654 572 644 589 q 664 519 664 556 l 664 476 q 654 424 664 440 q 622 407 644 407 l 310 407 l 310 182 l 661 182 q 693 165 683 182 q 703 113 703 149 l 703 69 q 693 17 703 33 q 661 0 683 0 l 151 0 q 109 13 122 0 q 96 56 96 26 l 96 917 q 109 959 96 946 q 151 972 122 972 l 660 972 z "},"É":{"ha":758,"x_min":96,"x_max":703,"o":"m 96 0 m 660 972 q 692 956 682 972 q 701 903 701 939 l 701 860 q 692 807 701 824 q 660 790 682 790 l 310 790 l 310 589 l 622 589 q 654 572 644 589 q 664 519 664 556 l 664 476 q 654 424 664 440 q 622 407 644 407 l 310 407 l 310 182 l 661 182 q 693 165 683 182 q 703 113 703 149 l 703 69 q 693 17 703 33 q 661 0 683 0 l 151 0 q 109 13 122 0 q 96 56 96 26 l 96 917 q 109 959 96 946 q 151 972 122 972 l 660 972 m 521 1265 q 584 1261 564 1265 q 604 1246 604 1257 q 596 1227 604 1238 q 553 1179 588 1217 q 460 1079 482 1104 q 423 1054 446 1064 q 356 1044 400 1044 q 322 1049 331 1044 q 313 1065 313 1054 q 322 1089 313 1072 q 346 1131 331 1106 q 403 1228 400 1222 q 521 1265 424 1265 z "},"Ĕ":{"ha":758,"x_min":96,"x_max":703,"o":"m 96 0 m 660 972 q 692 956 682 972 q 701 903 701 939 l 701 860 q 692 807 701 824 q 660 790 682 790 l 310 790 l 310 589 l 622 589 q 654 572 644 589 q 664 519 664 556 l 664 476 q 654 424 664 440 q 622 407 644 407 l 310 407 l 310 182 l 661 182 q 693 165 683 182 q 703 113 703 149 l 703 69 q 693 17 703 33 q 661 0 683 0 l 151 0 q 109 13 122 0 q 96 56 96 26 l 96 917 q 109 959 96 946 q 151 972 122 972 l 660 972 m 565 1239 q 601 1228 589 1239 q 614 1200 614 1218 q 588 1124 614 1160 q 515 1067 561 1089 q 410 1044 468 1044 q 305 1067 351 1044 q 232 1124 258 1089 q 206 1200 206 1160 q 218 1228 206 1218 q 254 1239 231 1239 q 278 1233 269 1239 q 300 1214 288 1228 q 341 1182 319 1193 q 410 1171 363 1171 q 480 1183 458 1171 q 522 1217 501 1194 q 541 1233 532 1228 q 565 1239 550 1239 z "},"Ě":{"ha":758,"x_min":96,"x_max":703,"o":"m 96 0 m 660 972 q 692 956 682 972 q 701 903 701 939 l 701 860 q 692 807 701 824 q 660 790 682 790 l 310 790 l 310 589 l 622 589 q 654 572 644 589 q 664 519 664 556 l 664 476 q 654 424 664 440 q 622 407 644 407 l 310 407 l 310 182 l 661 182 q 693 165 683 182 q 703 113 703 149 l 703 69 q 693 17 703 33 q 661 0 683 0 l 151 0 q 109 13 122 0 q 96 56 96 26 l 96 917 q 109 959 96 946 q 151 972 122 972 l 660 972 m 572 1243 q 600 1229 600 1243 q 592 1208 600 1221 l 501 1067 q 472 1045 490 1050 q 417 1040 453 1040 l 401 1040 q 347 1045 365 1040 q 317 1067 328 1050 l 226 1208 q 218 1229 218 1221 q 246 1243 218 1243 l 276 1243 q 333 1236 310 1243 q 369 1208 356 1229 l 408 1154 l 447 1210 q 542 1243 469 1243 l 572 1243 z "},"Ê":{"ha":758,"x_min":96,"x_max":703,"o":"m 96 0 m 660 972 q 692 956 682 972 q 701 903 701 939 l 701 860 q 692 807 701 824 q 660 790 682 790 l 310 790 l 310 589 l 622 589 q 654 572 644 589 q 664 519 664 556 l 664 476 q 654 424 664 440 q 622 407 644 407 l 310 407 l 310 182 l 661 182 q 693 165 683 182 q 703 113 703 149 l 703 69 q 693 17 703 33 q 661 0 683 0 l 151 0 q 109 13 122 0 q 96 56 96 26 l 96 917 q 109 959 96 946 q 151 972 122 972 l 660 972 m 417 1243 q 472 1238 453 1243 q 501 1217 490 1233 l 592 1075 q 600 1054 600 1063 q 572 1040 600 1040 l 542 1040 q 447 1074 469 1040 l 408 1129 l 369 1075 q 333 1047 356 1054 q 276 1040 310 1040 l 246 1040 q 218 1054 218 1040 q 226 1075 218 1063 l 317 1217 q 347 1238 328 1233 q 401 1243 365 1243 l 417 1243 z "},"Ế":{"ha":758,"x_min":96,"x_max":747,"o":"m 692 1339 q 734 1332 721 1339 q 747 1306 747 1325 q 730 1272 747 1296 q 644 1167 713 1249 q 618 1151 635 1157 q 568 1146 601 1146 q 545 1151 551 1146 q 539 1167 539 1156 q 558 1225 539 1176 l 588 1301 q 692 1339 607 1339 m 418 1243 q 463 1238 447 1243 q 489 1217 479 1233 l 572 1075 q 581 1054 581 1063 q 553 1040 581 1040 l 522 1040 q 460 1047 485 1040 q 428 1074 435 1054 l 410 1129 l 371 1075 q 334 1047 357 1054 q 278 1040 311 1040 l 247 1040 q 219 1054 219 1040 q 228 1075 219 1063 l 318 1217 q 348 1238 329 1233 q 403 1243 367 1243 l 418 1243 m 660 972 q 692 956 682 972 q 701 903 701 939 l 701 860 q 692 807 701 824 q 660 790 682 790 l 310 790 l 310 589 l 622 589 q 654 572 644 589 q 664 519 664 556 l 664 476 q 654 424 664 440 q 622 407 644 407 l 310 407 l 310 182 l 661 182 q 693 165 683 182 q 703 113 703 149 l 703 69 q 693 17 703 33 q 661 0 683 0 l 151 0 q 109 13 122 0 q 96 56 96 26 l 96 917 q 109 959 96 946 q 151 972 122 972 l 660 972 z "},"Ệ":{"ha":758,"x_min":96,"x_max":703,"o":"m 96 0 m 660 972 q 692 956 682 972 q 701 903 701 939 l 701 860 q 692 807 701 824 q 660 790 682 790 l 310 790 l 310 589 l 622 589 q 654 572 644 589 q 664 519 664 556 l 664 476 q 654 424 664 440 q 622 407 644 407 l 310 407 l 310 182 l 661 182 q 693 165 683 182 q 703 113 703 149 l 703 69 q 693 17 703 33 q 661 0 683 0 l 151 0 q 109 13 122 0 q 96 56 96 26 l 96 917 q 109 959 96 946 q 151 972 122 972 l 660 972 m 417 1243 q 472 1238 453 1243 q 501 1217 490 1233 l 592 1075 q 600 1054 600 1063 q 572 1040 600 1040 l 542 1040 q 447 1074 469 1040 l 408 1129 l 369 1075 q 333 1047 356 1054 q 276 1040 310 1040 l 246 1040 q 218 1054 218 1040 q 226 1075 218 1063 l 317 1217 q 347 1238 328 1233 q 401 1243 365 1243 l 417 1243 m 401 -111 q 485 -156 485 -111 l 485 -239 q 401 -283 485 -283 q 318 -239 318 -283 l 318 -156 q 401 -111 318 -111 z "},"Ề":{"ha":758,"x_min":96,"x_max":703,"o":"m 503 1338 q 621 1300 604 1338 q 667 1165 667 1186 q 658 1149 667 1154 q 624 1144 649 1144 q 570 1153 589 1144 q 538 1179 551 1163 l 485 1247 q 448 1294 458 1279 q 438 1318 438 1310 q 453 1333 438 1329 q 503 1338 469 1338 m 418 1243 q 463 1238 447 1243 q 489 1217 479 1233 l 572 1075 q 581 1054 581 1063 q 553 1040 581 1040 l 522 1040 q 460 1047 485 1040 q 428 1074 435 1054 l 410 1129 l 371 1075 q 334 1047 357 1054 q 278 1040 311 1040 l 247 1040 q 219 1054 219 1040 q 228 1075 219 1063 l 318 1217 q 348 1238 329 1233 q 403 1243 367 1243 l 418 1243 m 660 972 q 692 956 682 972 q 701 903 701 939 l 701 860 q 692 807 701 824 q 660 790 682 790 l 310 790 l 310 589 l 622 589 q 654 572 644 589 q 664 519 664 556 l 664 476 q 654 424 664 440 q 622 407 644 407 l 310 407 l 310 182 l 661 182 q 693 165 683 182 q 703 113 703 149 l 703 69 q 693 17 703 33 q 661 0 683 0 l 151 0 q 109 13 122 0 q 96 56 96 26 l 96 917 q 109 959 96 946 q 151 972 122 972 l 660 972 z "},"Ể":{"ha":758,"x_min":96,"x_max":706,"o":"m 610 1243 q 601 1260 610 1254 q 581 1267 592 1267 q 531 1255 550 1267 q 507 1243 511 1243 q 482 1265 499 1243 q 465 1301 465 1286 q 502 1328 465 1315 q 576 1340 539 1340 q 671 1315 636 1340 q 706 1249 706 1290 q 669 1183 706 1213 q 636 1163 656 1172 q 601 1153 617 1153 q 557 1161 574 1153 q 540 1182 540 1169 q 549 1192 540 1186 q 567 1204 557 1199 q 601 1223 592 1215 q 610 1243 610 1231 m 418 1243 q 463 1238 447 1243 q 489 1217 479 1233 l 572 1075 q 581 1054 581 1063 q 553 1040 581 1040 l 522 1040 q 460 1047 485 1040 q 428 1074 435 1054 l 410 1129 l 371 1075 q 334 1047 357 1054 q 278 1040 311 1040 l 247 1040 q 219 1054 219 1040 q 228 1075 219 1063 l 318 1217 q 348 1238 329 1233 q 403 1243 367 1243 l 418 1243 m 660 972 q 692 956 682 972 q 701 903 701 939 l 701 860 q 692 807 701 824 q 660 790 682 790 l 310 790 l 310 589 l 622 589 q 654 572 644 589 q 664 519 664 556 l 664 476 q 654 424 664 440 q 622 407 644 407 l 310 407 l 310 182 l 661 182 q 693 165 683 182 q 703 113 703 149 l 703 69 q 693 17 703 33 q 661 0 683 0 l 151 0 q 109 13 122 0 q 96 56 96 26 l 96 917 q 109 959 96 946 q 151 972 122 972 l 660 972 z "},"Ễ":{"ha":758,"x_min":96,"x_max":703,"o":"m 317 1411 q 372 1401 338 1411 q 414 1390 407 1392 q 494 1371 469 1372 q 536 1393 518 1371 q 571 1417 554 1417 q 588 1414 576 1417 l 601 1410 q 629 1372 629 1400 q 626 1353 629 1358 q 576 1284 613 1313 q 489 1256 540 1256 q 433 1265 468 1256 q 392 1276 399 1275 q 311 1296 336 1294 q 269 1274 288 1296 q 235 1250 251 1250 q 218 1253 229 1250 l 204 1257 q 176 1294 176 1267 q 179 1314 176 1308 q 229 1383 193 1354 q 317 1411 265 1411 m 418 1210 q 469 1204 450 1210 q 503 1183 488 1199 l 593 1075 q 601 1054 601 1063 q 574 1040 601 1040 l 543 1040 q 497 1049 517 1040 q 449 1074 476 1057 l 410 1111 l 371 1075 q 347 1060 364 1071 q 313 1045 329 1050 q 278 1040 297 1040 l 247 1040 q 219 1054 219 1040 q 228 1075 219 1063 l 318 1183 q 352 1204 333 1199 q 403 1210 371 1210 l 418 1210 m 660 972 q 692 956 682 972 q 701 903 701 939 l 701 860 q 692 807 701 824 q 660 790 682 790 l 310 790 l 310 589 l 622 589 q 654 572 644 589 q 664 519 664 556 l 664 476 q 654 424 664 440 q 622 407 644 407 l 310 407 l 310 182 l 661 182 q 693 165 683 182 q 703 113 703 149 l 703 69 q 693 17 703 33 q 661 0 683 0 l 151 0 q 109 13 122 0 q 96 56 96 26 l 96 917 q 109 959 96 946 q 151 972 122 972 l 660 972 z "},"Ë":{"ha":758,"x_min":96,"x_max":703,"o":"m 96 0 m 660 972 q 692 956 682 972 q 701 903 701 939 l 701 860 q 692 807 701 824 q 660 790 682 790 l 310 790 l 310 589 l 622 589 q 654 572 644 589 q 664 519 664 556 l 664 476 q 654 424 664 440 q 622 407 644 407 l 310 407 l 310 182 l 661 182 q 693 165 683 182 q 703 113 703 149 l 703 69 q 693 17 703 33 q 661 0 683 0 l 151 0 q 109 13 122 0 q 96 56 96 26 l 96 917 q 109 959 96 946 q 151 972 122 972 l 660 972 m 285 1221 q 368 1176 368 1221 l 368 1093 q 285 1049 368 1049 q 201 1093 201 1049 l 201 1176 q 285 1221 201 1221 m 535 1221 q 618 1176 618 1221 l 618 1093 q 535 1049 618 1049 q 451 1093 451 1049 l 451 1176 q 535 1221 451 1221 z "},"Ė":{"ha":758,"x_min":96,"x_max":703,"o":"m 96 0 m 660 972 q 692 956 682 972 q 701 903 701 939 l 701 860 q 692 807 701 824 q 660 790 682 790 l 310 790 l 310 589 l 622 589 q 654 572 644 589 q 664 519 664 556 l 664 476 q 654 424 664 440 q 622 407 644 407 l 310 407 l 310 182 l 661 182 q 693 165 683 182 q 703 113 703 149 l 703 69 q 693 17 703 33 q 661 0 683 0 l 151 0 q 109 13 122 0 q 96 56 96 26 l 96 917 q 109 959 96 946 q 151 972 122 972 l 660 972 m 410 1221 q 493 1176 493 1221 l 493 1093 q 410 1049 493 1049 q 326 1093 326 1049 l 326 1176 q 410 1221 326 1221 z "},"Ẹ":{"ha":758,"x_min":96,"x_max":703,"o":"m 96 0 m 660 972 q 692 956 682 972 q 701 903 701 939 l 701 860 q 692 807 701 824 q 660 790 682 790 l 310 790 l 310 589 l 622 589 q 654 572 644 589 q 664 519 664 556 l 664 476 q 654 424 664 440 q 622 407 644 407 l 310 407 l 310 182 l 661 182 q 693 165 683 182 q 703 113 703 149 l 703 69 q 693 17 703 33 q 661 0 683 0 l 151 0 q 109 13 122 0 q 96 56 96 26 l 96 917 q 109 959 96 946 q 151 972 122 972 l 660 972 m 401 -111 q 485 -156 485 -111 l 485 -239 q 401 -283 485 -283 q 318 -239 318 -283 l 318 -156 q 401 -111 318 -111 z "},"È":{"ha":758,"x_min":96,"x_max":703,"o":"m 96 0 m 660 972 q 692 956 682 972 q 701 903 701 939 l 701 860 q 692 807 701 824 q 660 790 682 790 l 310 790 l 310 589 l 622 589 q 654 572 644 589 q 664 519 664 556 l 664 476 q 654 424 664 440 q 622 407 644 407 l 310 407 l 310 182 l 661 182 q 693 165 683 182 q 703 113 703 149 l 703 69 q 693 17 703 33 q 661 0 683 0 l 151 0 q 109 13 122 0 q 96 56 96 26 l 96 917 q 109 959 96 946 q 151 972 122 972 l 660 972 m 307 1265 q 425 1228 404 1265 q 482 1131 428 1222 q 506 1089 497 1106 q 515 1065 515 1072 q 506 1049 515 1054 q 472 1044 497 1044 q 405 1054 428 1044 q 368 1079 382 1064 q 275 1179 346 1104 q 232 1227 240 1217 q 224 1246 224 1238 q 244 1261 224 1257 q 307 1265 264 1265 z "},"Ẻ":{"ha":758,"x_min":96,"x_max":703,"o":"m 96 0 m 660 972 q 692 956 682 972 q 701 903 701 939 l 701 860 q 692 807 701 824 q 660 790 682 790 l 310 790 l 310 589 l 622 589 q 654 572 644 589 q 664 519 664 556 l 664 476 q 654 424 664 440 q 622 407 644 407 l 310 407 l 310 182 l 661 182 q 693 165 683 182 q 703 113 703 149 l 703 69 q 693 17 703 33 q 661 0 683 0 l 151 0 q 109 13 122 0 q 96 56 96 26 l 96 917 q 109 959 96 946 q 151 972 122 972 l 660 972 m 461 1174 q 448 1196 461 1188 q 417 1204 435 1204 q 381 1196 399 1204 q 358 1188 364 1188 q 333 1209 350 1188 q 317 1246 317 1231 q 354 1274 317 1260 q 428 1289 392 1289 q 542 1260 501 1289 q 582 1179 582 1231 q 554 1113 582 1146 q 492 1059 526 1081 q 443 1038 457 1038 q 394 1049 419 1038 q 368 1069 368 1061 q 404 1107 368 1081 q 446 1142 431 1126 q 461 1174 461 1158 z "},"Ē":{"ha":758,"x_min":96,"x_max":703,"o":"m 96 0 m 660 972 q 692 956 682 972 q 701 903 701 939 l 701 860 q 692 807 701 824 q 660 790 682 790 l 310 790 l 310 589 l 622 589 q 654 572 644 589 q 664 519 664 556 l 664 476 q 654 424 664 440 q 622 407 644 407 l 310 407 l 310 182 l 661 182 q 693 165 683 182 q 703 113 703 149 l 703 69 q 693 17 703 33 q 661 0 683 0 l 151 0 q 109 13 122 0 q 96 56 96 26 l 96 917 q 109 959 96 946 q 151 972 122 972 l 660 972 m 558 1207 q 590 1194 581 1207 q 600 1151 600 1181 l 600 1131 q 590 1088 600 1101 q 558 1075 581 1075 l 260 1075 q 228 1088 238 1075 q 218 1131 218 1101 l 218 1151 q 228 1194 218 1181 q 260 1207 238 1207 l 558 1207 z "},"Ę":{"ha":758,"x_min":96,"x_max":826,"o":"m 796 -146 q 826 -185 826 -146 q 713 -254 826 -254 q 582 -208 615 -254 q 549 -112 549 -162 q 556 -53 549 -86 q 583 0 564 -19 l 151 0 q 109 13 122 0 q 96 56 96 26 l 96 917 q 109 959 96 946 q 151 972 122 972 l 660 972 q 692 956 682 972 q 701 903 701 939 l 701 860 q 692 807 701 824 q 660 790 682 790 l 310 790 l 310 589 l 622 589 q 654 572 644 589 q 664 519 664 556 l 664 476 q 654 424 664 440 q 622 407 644 407 l 310 407 l 310 182 l 661 182 q 693 165 683 182 q 703 113 703 149 l 703 69 q 693 17 703 33 q 661 0 683 0 l 657 0 l 657 -7 q 649 -39 657 -15 q 642 -86 642 -62 q 667 -144 642 -131 q 728 -157 692 -157 q 768 -151 746 -157 q 796 -146 785 -146 z "},"Ẽ":{"ha":758,"x_min":96,"x_max":703,"o":"m 96 0 m 660 972 q 692 956 682 972 q 701 903 701 939 l 701 860 q 692 807 701 824 q 660 790 682 790 l 310 790 l 310 589 l 622 589 q 654 572 644 589 q 664 519 664 556 l 664 476 q 654 424 664 440 q 622 407 644 407 l 310 407 l 310 182 l 661 182 q 693 165 683 182 q 703 113 703 149 l 703 69 q 693 17 703 33 q 661 0 683 0 l 151 0 q 109 13 122 0 q 96 56 96 26 l 96 917 q 109 959 96 946 q 151 972 122 972 l 660 972 m 300 1210 q 360 1200 322 1210 q 407 1189 399 1190 q 496 1169 471 1171 q 542 1192 521 1169 q 579 1215 560 1215 q 597 1213 586 1215 l 613 1208 q 644 1171 644 1199 q 640 1151 644 1160 q 585 1083 625 1111 q 489 1054 544 1054 q 428 1064 467 1054 q 382 1075 390 1074 q 293 1094 318 1093 q 247 1072 267 1094 q 210 1049 229 1049 q 192 1051 203 1049 l 176 1056 q 144 1093 144 1065 q 149 1113 144 1104 q 204 1181 164 1153 q 300 1210 244 1210 z "},"F":{"ha":699,"x_min":96,"x_max":657,"o":"m 615 972 q 647 956 638 972 q 657 903 657 939 l 657 860 q 647 807 657 824 q 615 790 638 790 l 310 790 l 310 588 l 606 588 q 638 571 628 588 q 647 518 647 554 l 647 475 q 638 422 647 439 q 606 406 628 406 l 310 406 l 310 42 q 226 -3 310 -3 l 179 -3 q 96 42 96 -3 l 96 917 q 109 959 96 946 q 151 972 122 972 l 615 972 z "},"G":{"ha":933,"x_min":63,"x_max":843,"o":"m 526 983 q 660 971 590 983 q 776 936 729 958 q 824 886 824 914 q 808 835 824 867 q 772 780 793 804 q 733 756 750 756 q 699 768 729 756 q 624 790 668 781 q 522 800 581 800 q 341 722 400 800 q 282 488 282 644 q 519 171 282 171 q 628 181 575 171 l 628 357 l 506 357 q 474 374 483 357 q 464 426 464 390 l 464 471 q 474 524 464 507 q 506 540 483 540 l 788 540 q 830 527 817 540 q 843 485 843 514 l 843 99 q 739 13 843 36 q 519 -11 635 -11 q 174 110 286 -11 q 63 489 63 232 q 526 983 63 983 z "},"Ğ":{"ha":933,"x_min":63,"x_max":843,"o":"m 63 0 m 526 983 q 660 971 590 983 q 776 936 729 958 q 824 886 824 914 q 808 835 824 867 q 772 780 793 804 q 733 756 750 756 q 699 768 729 756 q 624 790 668 781 q 522 800 581 800 q 341 722 400 800 q 282 488 282 644 q 519 171 282 171 q 628 181 575 171 l 628 357 l 506 357 q 474 374 483 357 q 464 426 464 390 l 464 471 q 474 524 464 507 q 506 540 483 540 l 788 540 q 830 527 817 540 q 843 485 843 514 l 843 99 q 739 13 843 36 q 519 -11 635 -11 q 174 110 286 -11 q 63 489 63 232 q 526 983 63 983 m 642 1239 q 678 1228 665 1239 q 690 1200 690 1218 q 664 1124 690 1160 q 591 1067 638 1089 q 486 1044 544 1044 q 381 1067 428 1044 q 308 1124 335 1089 q 282 1200 282 1160 q 294 1228 282 1218 q 331 1239 307 1239 q 355 1233 346 1239 q 376 1214 364 1228 q 417 1182 396 1193 q 486 1171 439 1171 q 556 1183 535 1171 q 599 1217 578 1194 q 617 1233 608 1228 q 642 1239 626 1239 z "},"Ĝ":{"ha":933,"x_min":63,"x_max":843,"o":"m 63 0 m 526 983 q 660 971 590 983 q 776 936 729 958 q 824 886 824 914 q 808 835 824 867 q 772 780 793 804 q 733 756 750 756 q 699 768 729 756 q 624 790 668 781 q 522 800 581 800 q 341 722 400 800 q 282 488 282 644 q 519 171 282 171 q 628 181 575 171 l 628 357 l 506 357 q 474 374 483 357 q 464 426 464 390 l 464 471 q 474 524 464 507 q 506 540 483 540 l 788 540 q 830 527 817 540 q 843 485 843 514 l 843 99 q 739 13 843 36 q 519 -11 635 -11 q 174 110 286 -11 q 63 489 63 232 q 526 983 63 983 m 493 1243 q 548 1238 529 1243 q 578 1217 567 1233 l 668 1075 q 676 1054 676 1063 q 649 1040 676 1040 l 618 1040 q 524 1074 546 1040 l 485 1129 l 446 1075 q 409 1047 432 1054 q 353 1040 386 1040 l 322 1040 q 294 1054 294 1040 q 303 1075 294 1063 l 393 1217 q 423 1238 404 1233 q 478 1243 442 1243 l 493 1243 z "},"Ģ":{"ha":933,"x_min":63,"x_max":843,"o":"m 63 0 m 526 983 q 660 971 590 983 q 776 936 729 958 q 824 886 824 914 q 808 835 824 867 q 772 780 793 804 q 733 756 750 756 q 699 768 729 756 q 624 790 668 781 q 522 800 581 800 q 341 722 400 800 q 282 488 282 644 q 519 171 282 171 q 628 181 575 171 l 628 357 l 506 357 q 474 374 483 357 q 464 426 464 390 l 464 471 q 474 524 464 507 q 506 540 483 540 l 788 540 q 830 527 817 540 q 843 485 843 514 l 843 99 q 739 13 843 36 q 519 -11 635 -11 q 174 110 286 -11 q 63 489 63 232 q 526 983 63 983 m 510 -71 q 562 -87 544 -71 q 579 -132 579 -104 q 553 -223 579 -176 q 490 -301 526 -269 q 429 -333 454 -333 q 387 -326 407 -333 q 367 -303 367 -318 q 375 -274 367 -293 q 393 -212 386 -243 q 400 -132 400 -181 q 483 -71 400 -71 l 510 -71 z "},"Ġ":{"ha":933,"x_min":63,"x_max":843,"o":"m 63 0 m 526 983 q 660 971 590 983 q 776 936 729 958 q 824 886 824 914 q 808 835 824 867 q 772 780 793 804 q 733 756 750 756 q 699 768 729 756 q 624 790 668 781 q 522 800 581 800 q 341 722 400 800 q 282 488 282 644 q 519 171 282 171 q 628 181 575 171 l 628 357 l 506 357 q 474 374 483 357 q 464 426 464 390 l 464 471 q 474 524 464 507 q 506 540 483 540 l 788 540 q 830 527 817 540 q 843 485 843 514 l 843 99 q 739 13 843 36 q 519 -11 635 -11 q 174 110 286 -11 q 63 489 63 232 q 526 983 63 983 m 486 1221 q 569 1176 569 1221 l 569 1093 q 486 1049 569 1049 q 403 1093 403 1049 l 403 1176 q 486 1221 403 1221 z "},"H":{"ha":1018,"x_min":117,"x_max":922,"o":"m 839 975 q 922 931 922 975 l 922 42 q 839 -3 922 -3 l 790 -3 q 707 42 707 -3 l 707 404 l 332 404 l 332 42 q 249 -3 332 -3 l 200 -3 q 117 42 117 -3 l 117 931 q 200 975 117 975 l 249 975 q 332 931 332 975 l 332 588 l 707 588 l 707 931 q 790 975 707 975 l 839 975 z "},"Ħ":{"ha":1018,"x_min":42,"x_max":979,"o":"m 938 793 q 969 780 960 793 q 979 738 979 767 l 979 717 q 969 674 979 688 q 938 661 960 661 l 922 661 l 922 42 q 839 -3 922 -3 l 790 -3 q 707 42 707 -3 l 707 404 l 332 404 l 332 42 q 249 -3 332 -3 l 200 -3 q 117 42 117 -3 l 117 661 l 83 661 q 51 674 61 661 q 42 717 42 688 l 42 738 q 51 780 42 767 q 83 793 61 793 l 117 793 l 117 931 q 200 975 117 975 l 249 975 q 332 931 332 975 l 332 793 l 707 793 l 707 931 q 790 975 707 975 l 839 975 q 922 931 922 975 l 922 793 l 938 793 m 707 588 l 707 661 l 332 661 l 332 588 l 707 588 z "},"Ĥ":{"ha":1018,"x_min":117,"x_max":922,"o":"m 117 0 m 839 975 q 922 931 922 975 l 922 42 q 839 -3 922 -3 l 790 -3 q 707 42 707 -3 l 707 404 l 332 404 l 332 42 q 249 -3 332 -3 l 200 -3 q 117 42 117 -3 l 117 931 q 200 975 117 975 l 249 975 q 332 931 332 975 l 332 588 l 707 588 l 707 931 q 790 975 707 975 l 839 975 m 517 1243 q 572 1238 553 1243 q 601 1217 590 1233 l 692 1075 q 700 1054 700 1063 q 672 1040 700 1040 l 642 1040 q 547 1074 569 1040 l 508 1129 l 469 1075 q 433 1047 456 1054 q 376 1040 410 1040 l 346 1040 q 318 1054 318 1040 q 326 1075 318 1063 l 417 1217 q 447 1238 428 1233 q 501 1243 465 1243 l 517 1243 z "},"Ḥ":{"ha":1018,"x_min":117,"x_max":922,"o":"m 117 0 m 839 975 q 922 931 922 975 l 922 42 q 839 -3 922 -3 l 790 -3 q 707 42 707 -3 l 707 404 l 332 404 l 332 42 q 249 -3 332 -3 l 200 -3 q 117 42 117 -3 l 117 931 q 200 975 117 975 l 249 975 q 332 931 332 975 l 332 588 l 707 588 l 707 931 q 790 975 707 975 l 839 975 m 532 -111 q 615 -156 615 -111 l 615 -239 q 532 -283 615 -283 q 449 -239 449 -283 l 449 -156 q 532 -111 449 -111 z "},"I":{"ha":392,"x_min":88,"x_max":303,"o":"m 219 976 q 303 931 303 976 l 303 42 q 219 -4 303 -4 l 171 -4 q 88 42 88 -4 l 88 931 q 171 976 88 976 l 219 976 z "},"Ĳ":{"ha":950,"x_min":88,"x_max":858,"o":"m 88 0 m 219 976 q 303 931 303 976 l 303 42 q 219 -4 303 -4 l 171 -4 q 88 42 88 -4 l 88 931 q 171 976 88 976 l 219 976 m 775 976 q 858 931 858 976 l 858 281 q 786 66 858 143 q 564 -11 714 -11 q 450 1 508 -11 q 392 53 392 14 q 406 132 392 85 q 449 182 421 179 q 476 176 454 182 q 526 171 497 171 q 616 205 589 171 q 643 315 643 239 l 643 931 q 726 976 643 976 l 775 976 z "},"Í":{"ha":392,"x_min":88,"x_max":390,"o":"m 88 0 m 219 976 q 303 931 303 976 l 303 42 q 219 -4 303 -4 l 171 -4 q 88 42 88 -4 l 88 931 q 171 976 88 976 l 219 976 m 307 1265 q 370 1261 350 1265 q 390 1246 390 1257 q 382 1227 390 1238 q 339 1179 374 1217 q 246 1079 268 1104 q 209 1054 232 1064 q 142 1044 186 1044 q 108 1049 117 1044 q 99 1065 99 1054 q 108 1089 99 1072 q 132 1131 117 1106 q 189 1228 186 1222 q 307 1265 210 1265 z "},"Ĭ":{"ha":392,"x_min":-8,"x_max":400,"o":"m 0 0 m 219 976 q 303 931 303 976 l 303 42 q 219 -4 303 -4 l 171 -4 q 88 42 88 -4 l 88 931 q 171 976 88 976 l 219 976 m 351 1239 q 388 1228 375 1239 q 400 1200 400 1218 q 374 1124 400 1160 q 301 1067 347 1089 q 196 1044 254 1044 q 91 1067 138 1044 q 18 1124 44 1089 q -8 1200 -8 1160 q 4 1228 -8 1218 q 40 1239 17 1239 q 65 1233 56 1239 q 86 1214 74 1228 q 127 1182 106 1193 q 196 1171 149 1171 q 266 1183 244 1171 q 308 1217 288 1194 q 327 1233 318 1228 q 351 1239 336 1239 z "},"Î":{"ha":392,"x_min":4,"x_max":386,"o":"m 4 0 m 219 976 q 303 931 303 976 l 303 42 q 219 -4 303 -4 l 171 -4 q 88 42 88 -4 l 88 931 q 171 976 88 976 l 219 976 m 203 1243 q 258 1238 239 1243 q 288 1217 276 1233 l 378 1075 q 386 1054 386 1063 q 358 1040 386 1040 l 328 1040 q 233 1074 256 1040 l 194 1129 l 156 1075 q 119 1047 142 1054 q 63 1040 96 1040 l 32 1040 q 4 1054 4 1040 q 13 1075 4 1063 l 103 1217 q 133 1238 114 1233 q 188 1243 151 1243 l 203 1243 z "},"Ï":{"ha":392,"x_min":-12,"x_max":404,"o":"m 0 0 m 219 976 q 303 931 303 976 l 303 42 q 219 -4 303 -4 l 171 -4 q 88 42 88 -4 l 88 931 q 171 976 88 976 l 219 976 m 71 1221 q 154 1176 154 1221 l 154 1093 q 71 1049 154 1049 q -12 1093 -12 1049 l -12 1176 q 71 1221 -12 1221 m 321 1221 q 404 1176 404 1221 l 404 1093 q 321 1049 404 1049 q 238 1093 238 1049 l 238 1176 q 321 1221 238 1221 z "},"İ":{"ha":392,"x_min":88,"x_max":303,"o":"m 88 0 m 219 976 q 303 931 303 976 l 303 42 q 219 -4 303 -4 l 171 -4 q 88 42 88 -4 l 88 931 q 171 976 88 976 l 219 976 m 196 1221 q 279 1176 279 1221 l 279 1093 q 196 1049 279 1049 q 113 1093 113 1049 l 113 1176 q 196 1221 113 1221 z "},"Ị":{"ha":392,"x_min":88,"x_max":303,"o":"m 88 0 m 219 976 q 303 931 303 976 l 303 42 q 219 -4 303 -4 l 171 -4 q 88 42 88 -4 l 88 931 q 171 976 88 976 l 219 976 m 199 -111 q 282 -156 282 -111 l 282 -239 q 199 -283 282 -283 q 115 -239 115 -283 l 115 -156 q 199 -111 115 -111 z "},"Ì":{"ha":392,"x_min":10,"x_max":303,"o":"m 10 0 m 219 976 q 303 931 303 976 l 303 42 q 219 -4 303 -4 l 171 -4 q 88 42 88 -4 l 88 931 q 171 976 88 976 l 219 976 m 93 1265 q 211 1228 190 1265 q 268 1131 214 1222 q 292 1089 283 1106 q 301 1065 301 1072 q 292 1049 301 1054 q 258 1044 283 1044 q 191 1054 214 1044 q 154 1079 168 1064 q 61 1179 132 1104 q 18 1227 26 1217 q 10 1246 10 1238 q 30 1261 10 1257 q 93 1265 50 1265 z "},"Ỉ":{"ha":392,"x_min":88,"x_max":368,"o":"m 88 0 m 219 976 q 303 931 303 976 l 303 42 q 219 -4 303 -4 l 171 -4 q 88 42 88 -4 l 88 931 q 171 976 88 976 l 219 976 m 247 1174 q 234 1196 247 1188 q 203 1204 221 1204 q 167 1196 185 1204 q 144 1188 150 1188 q 119 1209 136 1188 q 103 1246 103 1231 q 140 1274 103 1260 q 214 1289 178 1289 q 328 1260 288 1289 q 368 1179 368 1231 q 340 1113 368 1146 q 278 1059 313 1081 q 229 1038 243 1038 q 180 1049 206 1038 q 154 1069 154 1061 q 190 1107 154 1081 q 232 1142 217 1126 q 247 1174 247 1158 z "},"Ī":{"ha":392,"x_min":4,"x_max":386,"o":"m 4 0 m 219 976 q 303 931 303 976 l 303 42 q 219 -4 303 -4 l 171 -4 q 88 42 88 -4 l 88 931 q 171 976 88 976 l 219 976 m 344 1207 q 376 1194 367 1207 q 386 1151 386 1181 l 386 1131 q 376 1088 386 1101 q 344 1075 367 1075 l 46 1075 q 14 1088 24 1075 q 4 1131 4 1101 l 4 1151 q 14 1194 4 1181 q 46 1207 24 1207 l 344 1207 z "},"Į":{"ha":392,"x_min":88,"x_max":422,"o":"m 392 -146 q 422 -185 422 -146 q 308 -254 422 -254 q 178 -208 211 -254 q 144 -112 144 -162 q 151 -57 144 -89 q 175 -4 158 -25 l 171 -4 q 88 42 88 -4 l 88 931 q 171 976 88 976 l 219 976 q 303 931 303 976 l 303 42 q 253 -1 303 7 l 253 -7 q 245 -39 253 -15 q 238 -86 238 -62 q 263 -144 238 -131 q 324 -157 288 -157 q 364 -151 342 -157 q 392 -146 381 -146 z "},"Ĩ":{"ha":392,"x_min":-43,"x_max":406,"o":"m 97 1210 q 151 1200 117 1210 q 193 1189 186 1190 q 272 1169 249 1171 q 314 1192 294 1169 q 349 1215 332 1215 q 364 1213 353 1215 l 378 1208 q 406 1171 406 1199 q 403 1151 406 1157 q 353 1083 389 1111 q 267 1054 317 1054 q 213 1063 247 1054 q 171 1075 179 1072 q 90 1094 115 1093 q 49 1072 67 1094 q 15 1049 32 1049 q -1 1051 10 1049 l -15 1056 q -43 1092 -43 1065 q -39 1113 -43 1103 q 10 1181 -26 1153 q 97 1210 46 1210 m 219 976 q 303 931 303 976 l 303 42 q 219 -4 303 -4 l 171 -4 q 88 42 88 -4 l 88 931 q 171 976 88 976 l 219 976 z "},"J":{"ha":558,"x_min":0,"x_max":467,"o":"m 383 976 q 467 931 467 976 l 467 281 q 394 66 467 143 q 172 -11 322 -11 q 58 1 117 -11 q 0 53 0 14 q 15 132 0 85 q 57 182 29 179 q 84 176 63 182 q 135 171 106 171 q 224 205 197 171 q 251 315 251 239 l 251 931 q 335 976 251 976 l 383 976 z "},"Ĵ":{"ha":558,"x_min":0,"x_max":553,"o":"m 0 0 m 383 976 q 467 931 467 976 l 467 281 q 394 66 467 143 q 172 -11 322 -11 q 58 1 117 -11 q 0 53 0 14 q 15 132 0 85 q 57 182 29 179 q 84 176 63 182 q 135 171 106 171 q 224 205 197 171 q 251 315 251 239 l 251 931 q 335 976 251 976 l 383 976 m 369 1243 q 424 1238 406 1243 q 454 1217 443 1233 l 544 1075 q 553 1054 553 1063 q 525 1040 553 1040 l 494 1040 q 400 1074 422 1040 l 361 1129 l 322 1075 q 285 1047 308 1054 q 229 1040 263 1040 l 199 1040 q 171 1054 171 1040 q 179 1075 171 1063 l 269 1217 q 299 1238 281 1233 q 354 1243 318 1243 l 369 1243 z "},"K":{"ha":800,"x_min":96,"x_max":821,"o":"m 707 975 q 785 954 785 975 q 774 925 785 942 l 506 514 l 810 47 q 821 18 821 31 q 743 -3 821 -3 l 663 -3 q 578 24 593 -3 l 317 446 l 311 444 l 311 42 q 228 -3 311 -3 l 179 -3 q 96 42 96 -3 l 96 931 q 179 975 96 975 l 228 975 q 311 931 311 975 l 311 558 l 317 557 l 558 949 q 642 975 574 975 l 707 975 z "},"Ķ":{"ha":800,"x_min":96,"x_max":821,"o":"m 96 0 m 707 975 q 785 954 785 975 q 774 925 785 942 l 506 514 l 810 47 q 821 18 821 31 q 743 -3 821 -3 l 663 -3 q 578 24 593 -3 l 317 446 l 311 444 l 311 42 q 228 -3 311 -3 l 179 -3 q 96 42 96 -3 l 96 931 q 179 975 96 975 l 228 975 q 311 931 311 975 l 311 558 l 317 557 l 558 949 q 642 975 574 975 l 707 975 m 431 -71 q 483 -87 465 -71 q 500 -132 500 -104 q 474 -223 500 -176 q 411 -301 447 -269 q 350 -333 375 -333 q 308 -326 328 -333 q 288 -303 288 -318 q 296 -274 288 -293 q 314 -212 307 -243 q 321 -132 321 -181 q 404 -71 321 -71 l 431 -71 z "},"L":{"ha":672,"x_min":96,"x_max":661,"o":"m 226 975 q 310 931 310 975 l 310 182 l 619 182 q 651 165 642 182 q 661 113 661 149 l 661 69 q 651 17 661 33 q 619 0 642 0 l 151 0 q 109 13 122 0 q 96 56 96 26 l 96 931 q 179 975 96 975 l 226 975 z "},"Ǉ":{"ha":997,"x_min":96,"x_max":917,"o":"m 833 976 q 917 931 917 976 l 917 58 q 844 -167 917 -82 q 622 -251 771 -251 q 508 -239 567 -251 q 450 -187 450 -226 q 465 -108 450 -156 q 507 -58 479 -61 q 534 -64 513 -58 q 585 -69 556 -69 q 674 -35 647 -69 q 701 75 701 -1 l 701 931 q 785 976 701 976 l 833 976 m 226 975 q 310 931 310 975 l 310 182 l 522 182 q 554 165 544 182 q 564 113 564 149 l 564 69 q 554 17 564 33 q 522 0 544 0 l 151 0 q 109 13 122 0 q 96 56 96 26 l 96 931 q 179 975 96 975 l 226 975 z "},"Ĺ":{"ha":672,"x_min":96,"x_max":661,"o":"m 96 0 m 226 975 q 310 931 310 975 l 310 182 l 619 182 q 651 165 642 182 q 661 113 661 149 l 661 69 q 651 17 661 33 q 619 0 642 0 l 151 0 q 109 13 122 0 q 96 56 96 26 l 96 931 q 179 975 96 975 l 226 975 m 319 1265 q 383 1261 363 1265 q 403 1246 403 1257 q 394 1227 403 1238 q 351 1179 386 1217 q 258 1079 281 1104 q 222 1054 244 1064 q 154 1044 199 1044 q 120 1049 129 1044 q 111 1065 111 1054 q 120 1089 111 1072 q 144 1131 129 1106 q 201 1228 199 1222 q 319 1265 222 1265 z "},"Ľ":{"ha":672,"x_min":96,"x_max":661,"o":"m 96 0 m 226 975 q 310 931 310 975 l 310 182 l 619 182 q 651 165 642 182 q 661 113 661 149 l 661 69 q 651 17 661 33 q 619 0 642 0 l 151 0 q 109 13 122 0 q 96 56 96 26 l 96 931 q 179 975 96 975 l 226 975 m 553 972 q 605 956 588 972 q 622 911 622 939 q 601 822 622 868 q 550 743 579 775 q 500 710 521 711 q 458 717 478 710 q 438 740 438 725 q 440 842 438 783 q 443 911 443 892 q 526 972 443 972 l 553 972 z "},"Ļ":{"ha":672,"x_min":96,"x_max":661,"o":"m 96 0 m 226 975 q 310 931 310 975 l 310 182 l 619 182 q 651 165 642 182 q 661 113 661 149 l 661 69 q 651 17 661 33 q 619 0 642 0 l 151 0 q 109 13 122 0 q 96 56 96 26 l 96 931 q 179 975 96 975 l 226 975 m 353 -71 q 405 -87 388 -71 q 422 -132 422 -104 q 396 -223 422 -176 q 333 -301 369 -269 q 272 -333 297 -333 q 230 -326 250 -333 q 210 -303 210 -318 q 218 -274 210 -293 q 236 -212 229 -243 q 243 -132 243 -181 q 326 -71 243 -71 l 353 -71 z "},"Ŀ":{"ha":672,"x_min":96,"x_max":661,"o":"m 96 0 m 226 975 q 310 931 310 975 l 310 182 l 619 182 q 651 165 642 182 q 661 113 661 149 l 661 69 q 651 17 661 33 q 619 0 642 0 l 151 0 q 109 13 122 0 q 96 56 96 26 l 96 931 q 179 975 96 975 l 226 975 m 460 596 q 528 567 500 596 q 557 499 557 539 q 528 430 557 458 q 460 401 500 401 q 391 430 419 401 q 363 499 363 458 q 391 567 363 539 q 460 596 419 596 z "},"ǈ":{"ha":1056,"x_min":96,"x_max":975,"o":"m 96 0 m 226 975 q 310 931 310 975 l 310 182 l 619 182 q 651 165 642 182 q 661 113 661 149 l 661 69 q 651 17 661 33 q 619 0 642 0 l 151 0 q 109 13 122 0 q 96 56 96 26 l 96 931 q 179 975 96 975 l 226 975 m 892 1047 q 975 1003 975 1047 l 975 890 q 892 846 975 846 l 853 846 q 769 890 769 846 l 769 1003 q 853 1047 769 1047 l 892 1047 m 892 729 q 975 685 975 729 l 975 -69 q 919 -237 975 -179 q 772 -294 863 -294 q 659 -278 690 -294 q 628 -222 628 -262 q 643 -160 628 -194 q 678 -126 658 -126 q 698 -129 685 -126 q 719 -132 711 -132 q 758 -118 746 -132 q 769 -72 769 -104 l 769 685 q 853 729 769 729 l 892 729 z "},"Ł":{"ha":675,"x_min":36,"x_max":664,"o":"m 229 975 q 313 931 313 975 l 313 660 l 433 733 q 454 742 446 742 q 469 714 469 742 l 469 686 q 433 622 469 644 l 313 549 l 313 182 l 622 182 q 654 165 644 182 q 664 113 664 149 l 664 69 q 654 17 664 33 q 622 0 644 0 l 154 0 q 112 13 125 0 q 99 56 99 26 l 99 418 l 72 401 q 51 394 61 394 q 36 422 36 394 l 36 450 q 44 487 36 472 q 72 513 53 501 l 99 529 l 99 931 q 182 975 99 975 l 229 975 z "},"M":{"ha":1171,"x_min":96,"x_max":1075,"o":"m 992 975 q 1075 931 1075 975 l 1075 42 q 992 -3 1075 -3 l 951 -3 q 868 42 868 -3 l 868 617 l 863 618 l 661 258 q 606 232 642 232 l 565 232 q 510 258 529 232 l 308 618 l 303 617 l 303 42 q 219 -3 303 -3 l 179 -3 q 96 42 96 -3 l 96 931 q 179 975 96 975 l 253 975 q 340 938 319 975 l 574 522 l 585 503 l 597 526 l 832 938 q 919 975 853 975 l 992 975 z "},"N":{"ha":999,"x_min":96,"x_max":903,"o":"m 819 975 q 903 931 903 975 l 903 42 q 819 -3 903 -3 l 767 -3 q 711 5 733 -3 q 675 35 689 13 l 303 604 l 303 42 q 219 -3 303 -3 l 179 -3 q 96 42 96 -3 l 96 931 q 179 975 96 975 l 239 975 q 294 967 272 975 q 331 938 317 960 l 658 432 l 696 375 l 696 931 q 779 975 696 975 l 819 975 z "},"Ǌ":{"ha":1557,"x_min":96,"x_max":1465,"o":"m 96 0 m 819 975 q 903 931 903 975 l 903 42 q 819 -3 903 -3 l 767 -3 q 711 5 733 -3 q 675 35 689 13 l 303 604 l 303 42 q 219 -3 303 -3 l 179 -3 q 96 42 96 -3 l 96 931 q 179 975 96 975 l 239 975 q 294 967 272 975 q 331 938 317 960 l 658 432 l 696 375 l 696 931 q 779 975 696 975 l 819 975 m 1382 976 q 1465 931 1465 976 l 1465 281 q 1393 66 1465 143 q 1171 -11 1321 -11 q 1057 1 1115 -11 q 999 53 999 14 q 1013 132 999 85 q 1056 182 1028 179 q 1083 176 1061 182 q 1133 171 1104 171 q 1223 205 1196 171 q 1250 315 1250 239 l 1250 931 q 1333 976 1250 976 l 1382 976 z "},"Ń":{"ha":999,"x_min":96,"x_max":903,"o":"m 96 0 m 819 975 q 903 931 903 975 l 903 42 q 819 -3 903 -3 l 767 -3 q 711 5 733 -3 q 675 35 689 13 l 303 604 l 303 42 q 219 -3 303 -3 l 179 -3 q 96 42 96 -3 l 96 931 q 179 975 96 975 l 239 975 q 294 967 272 975 q 331 938 317 960 l 658 432 l 696 375 l 696 931 q 779 975 696 975 l 819 975 m 611 1265 q 674 1261 654 1265 q 694 1246 694 1257 q 686 1227 694 1238 q 643 1179 678 1217 q 550 1079 572 1104 q 513 1054 536 1064 q 446 1044 490 1044 q 412 1049 421 1044 q 403 1065 403 1054 q 412 1089 403 1072 q 436 1131 421 1106 q 493 1228 490 1222 q 611 1265 514 1265 z "},"Ň":{"ha":999,"x_min":96,"x_max":903,"o":"m 96 0 m 819 975 q 903 931 903 975 l 903 42 q 819 -3 903 -3 l 767 -3 q 711 5 733 -3 q 675 35 689 13 l 303 604 l 303 42 q 219 -3 303 -3 l 179 -3 q 96 42 96 -3 l 96 931 q 179 975 96 975 l 239 975 q 294 967 272 975 q 331 938 317 960 l 658 432 l 696 375 l 696 931 q 779 975 696 975 l 819 975 m 663 1243 q 690 1229 690 1243 q 682 1208 690 1221 l 592 1067 q 562 1045 581 1050 q 507 1040 543 1040 l 492 1040 q 437 1045 456 1040 q 407 1067 418 1050 l 317 1208 q 308 1229 308 1221 q 336 1243 308 1243 l 367 1243 q 423 1236 400 1243 q 460 1208 446 1229 l 499 1154 l 538 1210 q 632 1243 560 1243 l 663 1243 z "},"Ņ":{"ha":999,"x_min":96,"x_max":903,"o":"m 96 0 m 819 975 q 903 931 903 975 l 903 42 q 819 -3 903 -3 l 767 -3 q 711 5 733 -3 q 675 35 689 13 l 303 604 l 303 42 q 219 -3 303 -3 l 179 -3 q 96 42 96 -3 l 96 931 q 179 975 96 975 l 239 975 q 294 967 272 975 q 331 938 317 960 l 658 432 l 696 375 l 696 931 q 779 975 696 975 l 819 975 m 517 -71 q 569 -87 551 -71 q 586 -132 586 -104 q 560 -223 586 -176 q 497 -301 533 -269 q 436 -333 461 -333 q 394 -326 414 -333 q 374 -303 374 -318 q 382 -274 374 -293 q 400 -212 393 -243 q 407 -132 407 -181 q 490 -71 407 -71 l 517 -71 z "},"Ṅ":{"ha":999,"x_min":96,"x_max":903,"o":"m 96 0 m 819 975 q 903 931 903 975 l 903 42 q 819 -3 903 -3 l 767 -3 q 711 5 733 -3 q 675 35 689 13 l 303 604 l 303 42 q 219 -3 303 -3 l 179 -3 q 96 42 96 -3 l 96 931 q 179 975 96 975 l 239 975 q 294 967 272 975 q 331 938 317 960 l 658 432 l 696 375 l 696 931 q 779 975 696 975 l 819 975 m 500 1221 q 583 1176 583 1221 l 583 1093 q 500 1049 583 1049 q 417 1093 417 1049 l 417 1176 q 500 1221 417 1221 z "},"Ŋ":{"ha":999,"x_min":96,"x_max":903,"o":"m 819 975 q 903 931 903 975 l 903 -69 q 847 -237 903 -179 q 700 -294 790 -294 q 587 -278 618 -294 q 556 -222 556 -262 q 571 -160 556 -194 q 606 -126 586 -126 q 626 -129 613 -126 q 647 -132 639 -132 q 685 -118 674 -132 q 697 -72 697 -104 l 697 1 l 338 550 l 303 604 l 303 42 q 219 -3 303 -3 l 179 -3 q 96 42 96 -3 l 96 931 q 179 975 96 975 l 239 975 q 294 967 272 975 q 331 938 317 960 l 696 375 l 696 931 q 779 975 696 975 l 819 975 z "},"ǋ":{"ha":1382,"x_min":96,"x_max":1301,"o":"m 96 0 m 819 975 q 903 931 903 975 l 903 42 q 819 -3 903 -3 l 767 -3 q 711 5 733 -3 q 675 35 689 13 l 303 604 l 303 42 q 219 -3 303 -3 l 179 -3 q 96 42 96 -3 l 96 931 q 179 975 96 975 l 239 975 q 294 967 272 975 q 331 938 317 960 l 658 432 l 696 375 l 696 931 q 779 975 696 975 l 819 975 m 1218 1047 q 1301 1003 1301 1047 l 1301 890 q 1218 846 1301 846 l 1179 846 q 1096 890 1096 846 l 1096 1003 q 1179 1047 1096 1047 l 1218 1047 m 1218 729 q 1301 685 1301 729 l 1301 -69 q 1245 -237 1301 -179 q 1099 -294 1189 -294 q 985 -278 1017 -294 q 954 -222 954 -262 q 969 -160 954 -194 q 1004 -126 985 -126 q 1024 -129 1011 -126 q 1046 -132 1038 -132 q 1084 -118 1072 -132 q 1096 -72 1096 -104 l 1096 685 q 1179 729 1096 729 l 1218 729 z "},"Ñ":{"ha":999,"x_min":96,"x_max":903,"o":"m 96 0 m 819 975 q 903 931 903 975 l 903 42 q 819 -3 903 -3 l 767 -3 q 711 5 733 -3 q 675 35 689 13 l 303 604 l 303 42 q 219 -3 303 -3 l 179 -3 q 96 42 96 -3 l 96 931 q 179 975 96 975 l 239 975 q 294 967 272 975 q 331 938 317 960 l 658 432 l 696 375 l 696 931 q 779 975 696 975 l 819 975 m 390 1210 q 451 1200 413 1210 q 497 1189 489 1190 q 586 1169 561 1171 q 632 1192 611 1169 q 669 1215 650 1215 q 688 1213 676 1215 l 703 1208 q 735 1171 735 1199 q 731 1151 735 1160 q 675 1083 715 1111 q 579 1054 635 1054 q 519 1064 557 1054 q 472 1075 481 1074 q 383 1094 408 1093 q 338 1072 357 1094 q 300 1049 319 1049 q 282 1051 293 1049 l 267 1056 q 235 1093 235 1065 q 239 1113 235 1104 q 294 1181 254 1153 q 390 1210 335 1210 z "},"O":{"ha":1015,"x_min":63,"x_max":953,"o":"m 508 983 q 838 855 724 983 q 953 486 953 726 q 838 117 953 246 q 508 -11 724 -11 q 178 117 293 -11 q 63 486 63 246 q 178 855 63 726 q 508 983 293 983 m 508 800 q 340 720 397 800 q 282 486 282 640 q 340 251 282 332 q 508 171 397 171 q 676 251 619 171 q 733 486 733 332 q 676 720 733 640 q 508 800 619 800 z "},"Ó":{"ha":1015,"x_min":63,"x_max":953,"o":"m 63 0 m 508 983 q 838 855 724 983 q 953 486 953 726 q 838 117 953 246 q 508 -11 724 -11 q 178 117 293 -11 q 63 486 63 246 q 178 855 63 726 q 508 983 293 983 m 508 800 q 340 720 397 800 q 282 486 282 640 q 340 251 282 332 q 508 171 397 171 q 676 251 619 171 q 733 486 733 332 q 676 720 733 640 q 508 800 619 800 m 619 1265 q 683 1261 663 1265 q 703 1246 703 1257 q 694 1227 703 1238 q 651 1179 686 1217 q 558 1079 581 1104 q 522 1054 544 1064 q 454 1044 499 1044 q 420 1049 429 1044 q 411 1065 411 1054 q 420 1089 411 1072 q 444 1131 429 1106 q 501 1228 499 1222 q 619 1265 522 1265 z "},"Ŏ":{"ha":1015,"x_min":63,"x_max":953,"o":"m 63 0 m 508 983 q 838 855 724 983 q 953 486 953 726 q 838 117 953 246 q 508 -11 724 -11 q 178 117 293 -11 q 63 486 63 246 q 178 855 63 726 q 508 983 293 983 m 508 800 q 340 720 397 800 q 282 486 282 640 q 340 251 282 332 q 508 171 397 171 q 676 251 619 171 q 733 486 733 332 q 676 720 733 640 q 508 800 619 800 m 664 1239 q 700 1228 688 1239 q 713 1200 713 1218 q 686 1124 713 1160 q 613 1067 660 1089 q 508 1044 567 1044 q 403 1067 450 1044 q 331 1124 357 1089 q 304 1200 304 1160 q 317 1228 304 1218 q 353 1239 329 1239 q 377 1233 368 1239 q 399 1214 386 1228 q 440 1182 418 1193 q 508 1171 461 1171 q 578 1183 557 1171 q 621 1217 600 1194 q 640 1233 631 1228 q 664 1239 649 1239 z "},"Ô":{"ha":1015,"x_min":63,"x_max":953,"o":"m 63 0 m 508 983 q 838 855 724 983 q 953 486 953 726 q 838 117 953 246 q 508 -11 724 -11 q 178 117 293 -11 q 63 486 63 246 q 178 855 63 726 q 508 983 293 983 m 508 800 q 340 720 397 800 q 282 486 282 640 q 340 251 282 332 q 508 171 397 171 q 676 251 619 171 q 733 486 733 332 q 676 720 733 640 q 508 800 619 800 m 515 1243 q 570 1238 551 1243 q 600 1217 589 1233 l 690 1075 q 699 1054 699 1063 q 671 1040 699 1040 l 640 1040 q 546 1074 568 1040 l 507 1129 l 468 1075 q 431 1047 454 1054 q 375 1040 408 1040 l 344 1040 q 317 1054 317 1040 q 325 1075 317 1063 l 415 1217 q 445 1238 426 1233 q 500 1243 464 1243 l 515 1243 z "},"Ố":{"ha":1015,"x_min":63,"x_max":953,"o":"m 790 1339 q 833 1332 819 1339 q 846 1306 846 1325 q 828 1272 846 1296 q 743 1167 811 1249 q 717 1151 733 1157 q 667 1146 700 1146 q 644 1151 650 1146 q 638 1167 638 1156 q 657 1225 638 1176 l 686 1301 q 790 1339 706 1339 m 517 1243 q 562 1238 546 1243 q 588 1217 578 1233 l 671 1075 q 679 1054 679 1063 q 651 1040 679 1040 l 621 1040 q 558 1047 583 1040 q 526 1074 533 1054 l 508 1129 l 469 1075 q 433 1047 456 1054 q 376 1040 410 1040 l 346 1040 q 318 1054 318 1040 q 326 1075 318 1063 l 417 1217 q 447 1238 428 1233 q 501 1243 465 1243 l 517 1243 m 508 983 q 838 855 724 983 q 953 486 953 726 q 838 117 953 246 q 508 -11 724 -11 q 178 117 293 -11 q 63 486 63 246 q 178 855 63 726 q 508 983 293 983 m 508 800 q 340 720 397 800 q 282 486 282 640 q 340 251 282 332 q 508 171 397 171 q 676 251 619 171 q 733 486 733 332 q 676 720 733 640 q 508 800 619 800 z "},"Ộ":{"ha":1015,"x_min":63,"x_max":953,"o":"m 63 0 m 508 983 q 838 855 724 983 q 953 486 953 726 q 838 117 953 246 q 508 -11 724 -11 q 178 117 293 -11 q 63 486 63 246 q 178 855 63 726 q 508 983 293 983 m 508 800 q 340 720 397 800 q 282 486 282 640 q 340 251 282 332 q 508 171 397 171 q 676 251 619 171 q 733 486 733 332 q 676 720 733 640 q 508 800 619 800 m 515 1243 q 570 1238 551 1243 q 600 1217 589 1233 l 690 1075 q 699 1054 699 1063 q 671 1040 699 1040 l 640 1040 q 546 1074 568 1040 l 507 1129 l 468 1075 q 431 1047 454 1054 q 375 1040 408 1040 l 344 1040 q 317 1054 317 1040 q 325 1075 317 1063 l 415 1217 q 445 1238 426 1233 q 500 1243 464 1243 l 515 1243 m 513 -111 q 596 -156 596 -111 l 596 -239 q 513 -283 596 -283 q 429 -239 429 -283 l 429 -156 q 513 -111 429 -111 z "},"Ồ":{"ha":1015,"x_min":63,"x_max":953,"o":"m 601 1338 q 719 1300 703 1338 q 765 1165 765 1186 q 756 1149 765 1154 q 722 1144 747 1144 q 669 1153 688 1144 q 636 1179 650 1163 l 583 1247 q 547 1294 557 1279 q 536 1318 536 1310 q 552 1333 536 1329 q 601 1338 568 1338 m 517 1243 q 562 1238 546 1243 q 588 1217 578 1233 l 671 1075 q 679 1054 679 1063 q 651 1040 679 1040 l 621 1040 q 558 1047 583 1040 q 526 1074 533 1054 l 508 1129 l 469 1075 q 433 1047 456 1054 q 376 1040 410 1040 l 346 1040 q 318 1054 318 1040 q 326 1075 318 1063 l 417 1217 q 447 1238 428 1233 q 501 1243 465 1243 l 517 1243 m 508 983 q 838 855 724 983 q 953 486 953 726 q 838 117 953 246 q 508 -11 724 -11 q 178 117 293 -11 q 63 486 63 246 q 178 855 63 726 q 508 983 293 983 m 508 800 q 340 720 397 800 q 282 486 282 640 q 340 251 282 332 q 508 171 397 171 q 676 251 619 171 q 733 486 733 332 q 676 720 733 640 q 508 800 619 800 z "},"Ổ":{"ha":1015,"x_min":63,"x_max":953,"o":"m 708 1243 q 699 1260 708 1254 q 679 1267 690 1267 q 629 1255 649 1267 q 606 1243 610 1243 q 581 1265 597 1243 q 564 1301 564 1286 q 601 1328 564 1315 q 675 1340 638 1340 q 769 1315 735 1340 q 804 1249 804 1290 q 768 1183 804 1213 q 735 1163 754 1172 q 700 1153 715 1153 q 656 1161 672 1153 q 639 1182 639 1169 q 647 1192 639 1186 q 665 1204 656 1199 q 699 1223 690 1215 q 708 1243 708 1231 m 517 1243 q 562 1238 546 1243 q 588 1217 578 1233 l 671 1075 q 679 1054 679 1063 q 651 1040 679 1040 l 621 1040 q 558 1047 583 1040 q 526 1074 533 1054 l 508 1129 l 469 1075 q 433 1047 456 1054 q 376 1040 410 1040 l 346 1040 q 318 1054 318 1040 q 326 1075 318 1063 l 417 1217 q 447 1238 428 1233 q 501 1243 465 1243 l 517 1243 m 508 983 q 838 855 724 983 q 953 486 953 726 q 838 117 953 246 q 508 -11 724 -11 q 178 117 293 -11 q 63 486 63 246 q 178 855 63 726 q 508 983 293 983 m 508 800 q 340 720 397 800 q 282 486 282 640 q 340 251 282 332 q 508 171 397 171 q 676 251 619 171 q 733 486 733 332 q 676 720 733 640 q 508 800 619 800 z "},"Ỗ":{"ha":1015,"x_min":63,"x_max":953,"o":"m 415 1411 q 471 1401 436 1411 q 513 1390 506 1392 q 593 1371 568 1372 q 635 1393 617 1371 q 669 1417 653 1417 q 686 1414 675 1417 l 700 1410 q 728 1372 728 1400 q 725 1353 728 1358 q 675 1284 711 1313 q 588 1256 639 1256 q 532 1265 567 1256 q 490 1276 497 1275 q 410 1296 435 1294 q 368 1274 386 1296 q 333 1250 350 1250 q 317 1253 328 1250 l 303 1257 q 275 1294 275 1267 q 278 1314 275 1308 q 328 1383 292 1354 q 415 1411 364 1411 m 517 1210 q 567 1204 549 1210 q 601 1183 586 1199 l 692 1075 q 700 1054 700 1063 q 672 1040 700 1040 l 642 1040 q 595 1049 615 1040 q 547 1074 575 1057 l 508 1111 l 469 1075 q 445 1060 463 1071 q 412 1045 428 1050 q 376 1040 396 1040 l 346 1040 q 318 1054 318 1040 q 326 1075 318 1063 l 417 1183 q 451 1204 432 1199 q 501 1210 469 1210 l 517 1210 m 508 983 q 838 855 724 983 q 953 486 953 726 q 838 117 953 246 q 508 -11 724 -11 q 178 117 293 -11 q 63 486 63 246 q 178 855 63 726 q 508 983 293 983 m 508 800 q 340 720 397 800 q 282 486 282 640 q 340 251 282 332 q 508 171 397 171 q 676 251 619 171 q 733 486 733 332 q 676 720 733 640 q 508 800 619 800 z "},"Ö":{"ha":1015,"x_min":63,"x_max":953,"o":"m 63 0 m 508 983 q 838 855 724 983 q 953 486 953 726 q 838 117 953 246 q 508 -11 724 -11 q 178 117 293 -11 q 63 486 63 246 q 178 855 63 726 q 508 983 293 983 m 508 800 q 340 720 397 800 q 282 486 282 640 q 340 251 282 332 q 508 171 397 171 q 676 251 619 171 q 733 486 733 332 q 676 720 733 640 q 508 800 619 800 m 383 1221 q 467 1176 467 1221 l 467 1093 q 383 1049 467 1049 q 300 1093 300 1049 l 300 1176 q 383 1221 300 1221 m 633 1221 q 717 1176 717 1221 l 717 1093 q 633 1049 717 1049 q 550 1093 550 1049 l 550 1176 q 633 1221 550 1221 z "},"Ọ":{"ha":1015,"x_min":63,"x_max":953,"o":"m 63 0 m 508 983 q 838 855 724 983 q 953 486 953 726 q 838 117 953 246 q 508 -11 724 -11 q 178 117 293 -11 q 63 486 63 246 q 178 855 63 726 q 508 983 293 983 m 508 800 q 340 720 397 800 q 282 486 282 640 q 340 251 282 332 q 508 171 397 171 q 676 251 619 171 q 733 486 733 332 q 676 720 733 640 q 508 800 619 800 m 513 -111 q 596 -156 596 -111 l 596 -239 q 513 -283 596 -283 q 429 -239 429 -283 l 429 -156 q 513 -111 429 -111 z "},"Ò":{"ha":1015,"x_min":63,"x_max":953,"o":"m 63 0 m 508 983 q 838 855 724 983 q 953 486 953 726 q 838 117 953 246 q 508 -11 724 -11 q 178 117 293 -11 q 63 486 63 246 q 178 855 63 726 q 508 983 293 983 m 508 800 q 340 720 397 800 q 282 486 282 640 q 340 251 282 332 q 508 171 397 171 q 676 251 619 171 q 733 486 733 332 q 676 720 733 640 q 508 800 619 800 m 406 1265 q 524 1228 503 1265 q 581 1131 526 1222 q 605 1089 596 1106 q 614 1065 614 1072 q 605 1049 614 1054 q 571 1044 596 1044 q 503 1054 526 1044 q 467 1079 481 1064 q 374 1179 444 1104 q 331 1227 339 1217 q 322 1246 322 1238 q 342 1261 322 1257 q 406 1265 363 1265 z "},"Ỏ":{"ha":1015,"x_min":63,"x_max":953,"o":"m 63 0 m 508 983 q 838 855 724 983 q 953 486 953 726 q 838 117 953 246 q 508 -11 724 -11 q 178 117 293 -11 q 63 486 63 246 q 178 855 63 726 q 508 983 293 983 m 508 800 q 340 720 397 800 q 282 486 282 640 q 340 251 282 332 q 508 171 397 171 q 676 251 619 171 q 733 486 733 332 q 676 720 733 640 q 508 800 619 800 m 560 1174 q 547 1196 560 1188 q 515 1204 533 1204 q 480 1196 497 1204 q 457 1188 463 1188 q 432 1209 449 1188 q 415 1246 415 1231 q 453 1274 415 1260 q 526 1289 490 1289 q 640 1260 600 1289 q 681 1179 681 1231 q 653 1113 681 1146 q 590 1059 625 1081 q 542 1038 556 1038 q 492 1049 518 1038 q 467 1069 467 1061 q 503 1107 467 1081 q 544 1142 529 1126 q 560 1174 560 1158 z "},"Ơ":{"ha":1015,"x_min":63,"x_max":953,"o":"m 799 893 q 913 728 874 832 q 953 486 953 625 q 838 117 953 246 q 508 -11 724 -11 q 178 117 293 -11 q 63 486 63 246 q 178 855 63 726 q 508 983 293 983 q 707 947 619 983 l 739 947 q 804 997 804 947 q 782 1043 804 1015 q 774 1053 781 1044 q 768 1069 768 1063 q 783 1096 768 1086 l 828 1126 q 850 1133 836 1133 q 895 1093 875 1133 q 915 1018 915 1053 q 886 937 915 969 q 799 893 857 904 m 508 171 q 676 251 619 171 q 733 486 733 332 q 676 720 733 640 q 508 800 619 800 q 340 720 397 800 q 282 486 282 640 q 340 251 282 332 q 508 171 397 171 z "},"Ớ":{"ha":1015,"x_min":63,"x_max":953,"o":"m 481 1047 q 447 1052 456 1047 q 438 1068 438 1057 q 447 1092 438 1075 q 471 1133 456 1108 q 528 1231 525 1225 q 646 1268 549 1268 q 709 1264 689 1268 q 729 1249 729 1260 q 721 1230 729 1240 q 678 1182 713 1219 q 585 1082 607 1107 q 548 1057 571 1067 q 481 1047 525 1047 m 799 893 q 913 728 874 832 q 953 486 953 625 q 838 117 953 246 q 508 -11 724 -11 q 178 117 293 -11 q 63 486 63 246 q 178 855 63 726 q 508 983 293 983 q 707 947 619 983 l 739 947 q 804 997 804 947 q 782 1043 804 1015 q 774 1053 781 1044 q 768 1069 768 1063 q 783 1096 768 1086 l 828 1126 q 850 1133 836 1133 q 895 1093 875 1133 q 915 1018 915 1053 q 886 937 915 969 q 799 893 857 904 m 508 171 q 676 251 619 171 q 733 486 733 332 q 676 720 733 640 q 508 800 619 800 q 340 720 397 800 q 282 486 282 640 q 340 251 282 332 q 508 171 397 171 z "},"Ợ":{"ha":1015,"x_min":63,"x_max":953,"o":"m 799 893 q 913 728 874 832 q 953 486 953 625 q 838 117 953 246 q 508 -11 724 -11 q 178 117 293 -11 q 63 486 63 246 q 178 855 63 726 q 508 983 293 983 q 707 947 619 983 l 739 947 q 804 997 804 947 q 782 1043 804 1015 q 774 1053 781 1044 q 768 1069 768 1063 q 783 1096 768 1086 l 828 1126 q 850 1133 836 1133 q 895 1093 875 1133 q 915 1018 915 1053 q 886 937 915 969 q 799 893 857 904 m 508 171 q 676 251 619 171 q 733 486 733 332 q 676 720 733 640 q 508 800 619 800 q 340 720 397 800 q 282 486 282 640 q 340 251 282 332 q 508 171 397 171 m 513 -111 q 596 -156 596 -111 l 596 -239 q 513 -283 596 -283 q 429 -239 429 -283 l 429 -156 q 513 -111 429 -111 z "},"Ờ":{"ha":1015,"x_min":63,"x_max":953,"o":"m 597 1047 q 530 1057 553 1047 q 493 1082 507 1067 q 400 1182 471 1107 q 357 1230 365 1219 q 349 1249 349 1240 q 369 1264 349 1260 q 432 1268 389 1268 q 550 1231 529 1268 q 607 1133 553 1225 q 631 1092 622 1108 q 640 1068 640 1075 q 631 1052 640 1057 q 597 1047 622 1047 m 799 893 q 913 728 874 832 q 953 486 953 625 q 838 117 953 246 q 508 -11 724 -11 q 178 117 293 -11 q 63 486 63 246 q 178 855 63 726 q 508 983 293 983 q 707 947 619 983 l 739 947 q 804 997 804 947 q 782 1043 804 1015 q 774 1053 781 1044 q 768 1069 768 1063 q 783 1096 768 1086 l 828 1126 q 850 1133 836 1133 q 895 1093 875 1133 q 915 1018 915 1053 q 886 937 915 969 q 799 893 857 904 m 508 171 q 676 251 619 171 q 733 486 733 332 q 676 720 733 640 q 508 800 619 800 q 340 720 397 800 q 282 486 282 640 q 340 251 282 332 q 508 171 397 171 z "},"Ở":{"ha":1015,"x_min":63,"x_max":953,"o":"m 483 1190 q 458 1212 475 1190 q 442 1249 442 1233 q 479 1277 442 1263 q 553 1292 517 1292 q 667 1263 626 1292 q 707 1182 707 1233 q 679 1116 707 1149 q 617 1062 651 1083 q 568 1040 582 1040 q 519 1052 544 1040 q 493 1072 493 1064 q 529 1110 493 1083 q 571 1145 556 1129 q 586 1176 586 1161 q 573 1199 586 1190 q 542 1207 560 1207 q 506 1199 524 1207 q 483 1190 489 1190 m 799 893 q 913 728 874 832 q 953 486 953 625 q 838 117 953 246 q 508 -11 724 -11 q 178 117 293 -11 q 63 486 63 246 q 178 855 63 726 q 508 983 293 983 q 707 947 619 983 l 739 947 q 804 997 804 947 q 782 1043 804 1015 q 774 1053 781 1044 q 768 1069 768 1063 q 783 1096 768 1086 l 828 1126 q 850 1133 836 1133 q 895 1093 875 1133 q 915 1018 915 1053 q 886 937 915 969 q 799 893 857 904 m 508 171 q 676 251 619 171 q 733 486 733 332 q 676 720 733 640 q 508 800 619 800 q 340 720 397 800 q 282 486 282 640 q 340 251 282 332 q 508 171 397 171 z "},"Ỡ":{"ha":1015,"x_min":63,"x_max":953,"o":"m 324 1058 q 296 1094 296 1068 q 300 1115 296 1106 q 349 1184 313 1156 q 436 1213 385 1213 q 490 1203 456 1213 q 532 1192 525 1193 q 611 1172 588 1174 q 653 1194 633 1172 q 688 1218 671 1218 q 703 1215 692 1218 l 717 1211 q 744 1174 744 1201 q 742 1154 744 1160 q 692 1085 728 1114 q 606 1057 656 1057 q 552 1066 586 1057 q 510 1078 518 1075 q 429 1097 454 1096 q 388 1075 406 1097 q 354 1051 371 1051 q 338 1054 349 1051 l 324 1058 m 799 893 q 913 728 874 832 q 953 486 953 625 q 838 117 953 246 q 508 -11 724 -11 q 178 117 293 -11 q 63 486 63 246 q 178 855 63 726 q 508 983 293 983 q 707 947 619 983 l 739 947 q 804 997 804 947 q 782 1043 804 1015 q 774 1053 781 1044 q 768 1069 768 1063 q 783 1096 768 1086 l 828 1126 q 850 1133 836 1133 q 895 1093 875 1133 q 915 1018 915 1053 q 886 937 915 969 q 799 893 857 904 m 508 171 q 676 251 619 171 q 733 486 733 332 q 676 720 733 640 q 508 800 619 800 q 340 720 397 800 q 282 486 282 640 q 340 251 282 332 q 508 171 397 171 z "},"Ő":{"ha":1015,"x_min":63,"x_max":953,"o":"m 63 0 m 508 983 q 838 855 724 983 q 953 486 953 726 q 838 117 953 246 q 508 -11 724 -11 q 178 117 293 -11 q 63 486 63 246 q 178 855 63 726 q 508 983 293 983 m 508 800 q 340 720 397 800 q 282 486 282 640 q 340 251 282 332 q 508 171 397 171 q 676 251 619 171 q 733 486 733 332 q 676 720 733 640 q 508 800 619 800 m 503 1265 q 566 1261 546 1265 q 586 1246 586 1257 q 578 1227 586 1238 q 535 1179 569 1217 q 442 1079 464 1104 q 405 1054 428 1064 q 338 1044 382 1044 q 303 1049 313 1044 q 294 1065 294 1054 q 303 1089 294 1072 q 328 1131 313 1106 q 385 1228 382 1222 q 503 1265 406 1265 m 757 1265 q 820 1261 800 1265 q 840 1246 840 1257 q 832 1227 840 1238 q 789 1179 824 1217 q 696 1079 718 1104 q 659 1054 682 1064 q 592 1044 636 1044 q 558 1049 567 1044 q 549 1065 549 1054 q 558 1089 549 1072 q 582 1131 567 1106 q 639 1228 636 1222 q 757 1265 660 1265 z "},"Ō":{"ha":1015,"x_min":63,"x_max":953,"o":"m 63 0 m 508 983 q 838 855 724 983 q 953 486 953 726 q 838 117 953 246 q 508 -11 724 -11 q 178 117 293 -11 q 63 486 63 246 q 178 855 63 726 q 508 983 293 983 m 508 800 q 340 720 397 800 q 282 486 282 640 q 340 251 282 332 q 508 171 397 171 q 676 251 619 171 q 733 486 733 332 q 676 720 733 640 q 508 800 619 800 m 657 1207 q 689 1194 679 1207 q 699 1151 699 1181 l 699 1131 q 689 1088 699 1101 q 657 1075 679 1075 l 358 1075 q 326 1088 336 1075 q 317 1131 317 1101 l 317 1151 q 326 1194 317 1181 q 358 1207 336 1207 l 657 1207 z "},"Ǫ":{"ha":1015,"x_min":63,"x_max":953,"o":"m 953 486 q 866 153 953 278 q 615 -1 779 28 l 615 -7 q 608 -39 615 -15 q 600 -86 600 -62 q 625 -144 600 -131 q 686 -157 650 -157 q 726 -151 704 -157 q 754 -146 743 -146 q 785 -185 785 -146 q 671 -254 785 -254 q 540 -208 574 -254 q 507 -112 507 -162 q 513 -61 507 -90 q 533 -11 518 -32 l 508 -11 q 178 117 293 -11 q 63 486 63 246 q 178 855 63 726 q 508 983 293 983 q 838 855 724 983 q 953 486 953 726 m 508 171 q 676 251 619 171 q 733 486 733 332 q 676 720 733 640 q 508 800 619 800 q 340 720 397 800 q 282 486 282 640 q 340 251 282 332 q 508 171 397 171 z "},"Ø":{"ha":1015,"x_min":26,"x_max":953,"o":"m 508 983 q 778 907 672 983 l 850 989 q 881 1006 865 1006 q 923 983 899 1006 q 947 942 947 960 q 933 914 947 928 l 858 829 q 953 486 953 700 q 838 117 953 246 q 508 -11 724 -11 q 204 92 315 -11 l 124 0 q 93 -17 110 -17 q 51 6 75 -17 q 26 47 26 28 q 40 75 26 61 l 132 179 q 63 486 63 299 q 178 855 63 726 q 508 983 293 983 m 508 800 q 340 720 397 800 q 282 486 282 640 q 293 361 282 421 l 643 756 q 508 800 590 800 m 343 247 q 508 171 400 171 q 676 251 619 171 q 733 486 733 332 q 707 658 733 586 l 343 247 z "},"Ǿ":{"ha":1015,"x_min":26,"x_max":953,"o":"m 26 0 m 508 983 q 778 907 672 983 l 850 989 q 881 1006 865 1006 q 923 983 899 1006 q 947 942 947 960 q 933 914 947 928 l 858 829 q 953 486 953 700 q 838 117 953 246 q 508 -11 724 -11 q 204 92 315 -11 l 124 0 q 93 -17 110 -17 q 51 6 75 -17 q 26 47 26 28 q 40 75 26 61 l 132 179 q 63 486 63 299 q 178 855 63 726 q 508 983 293 983 m 508 800 q 340 720 397 800 q 282 486 282 640 q 293 361 282 421 l 643 756 q 508 800 590 800 m 343 247 q 508 171 400 171 q 676 251 619 171 q 733 486 733 332 q 707 658 733 586 l 343 247 m 619 1265 q 683 1261 663 1265 q 703 1246 703 1257 q 694 1227 703 1238 q 651 1179 686 1217 q 558 1079 581 1104 q 522 1054 544 1064 q 454 1044 499 1044 q 420 1049 429 1044 q 411 1065 411 1054 q 420 1089 411 1072 q 444 1131 429 1106 q 501 1228 499 1222 q 619 1265 522 1265 z "},"Õ":{"ha":1015,"x_min":63,"x_max":953,"o":"m 63 0 m 508 983 q 838 855 724 983 q 953 486 953 726 q 838 117 953 246 q 508 -11 724 -11 q 178 117 293 -11 q 63 486 63 246 q 178 855 63 726 q 508 983 293 983 m 508 800 q 340 720 397 800 q 282 486 282 640 q 340 251 282 332 q 508 171 397 171 q 676 251 619 171 q 733 486 733 332 q 676 720 733 640 q 508 800 619 800 m 399 1210 q 459 1200 421 1210 q 506 1189 497 1190 q 594 1169 569 1171 q 640 1192 619 1169 q 678 1215 658 1215 q 696 1213 685 1215 l 711 1208 q 743 1171 743 1199 q 739 1151 743 1160 q 683 1083 724 1111 q 588 1054 643 1054 q 527 1064 565 1054 q 481 1075 489 1074 q 392 1094 417 1093 q 346 1072 365 1094 q 308 1049 328 1049 q 290 1051 301 1049 l 275 1056 q 243 1093 243 1065 q 247 1113 243 1104 q 303 1181 263 1153 q 399 1210 343 1210 z "},"Œ":{"ha":1418,"x_min":63,"x_max":1343,"o":"m 1301 182 q 1333 165 1324 182 q 1343 113 1343 149 l 1343 69 q 1333 17 1343 33 q 1301 0 1324 0 l 792 0 q 751 13 764 0 q 736 51 738 25 q 494 -11 635 -11 q 174 117 286 -11 q 63 486 63 246 q 174 855 63 726 q 494 983 286 983 q 736 919 635 983 q 749 960 736 947 q 792 972 763 972 l 1300 972 q 1332 956 1322 972 q 1342 903 1342 939 l 1342 860 q 1332 807 1342 824 q 1300 790 1322 790 l 950 790 l 950 589 l 1263 589 q 1294 572 1285 589 q 1304 519 1304 556 l 1304 476 q 1294 424 1304 440 q 1263 407 1285 407 l 950 407 l 950 182 l 1301 182 m 508 171 q 676 251 619 171 q 733 486 733 332 q 676 720 733 640 q 508 800 619 800 q 340 720 397 800 q 282 486 282 640 q 340 251 282 332 q 508 171 397 171 z "},"P":{"ha":792,"x_min":96,"x_max":774,"o":"m 443 972 q 674 909 574 972 q 774 668 774 846 q 715 478 774 546 q 585 388 657 411 q 457 364 513 364 l 310 364 l 310 42 q 226 -3 310 -3 l 179 -3 q 96 42 96 -3 l 96 917 q 109 959 96 946 q 151 972 122 972 l 443 972 m 310 790 l 310 547 l 433 547 q 519 574 483 547 q 554 668 554 600 q 519 763 554 736 q 433 790 483 790 l 310 790 z "},"Þ":{"ha":788,"x_min":94,"x_max":782,"o":"m 225 975 q 308 931 308 975 l 308 824 l 451 824 q 682 760 582 824 q 782 519 782 697 q 724 330 782 397 q 593 239 665 263 q 465 215 521 215 l 308 215 l 308 42 q 225 -3 308 -3 l 178 -3 q 94 42 94 -3 l 94 931 q 178 975 94 975 l 225 975 m 308 642 l 308 399 l 442 399 q 527 425 492 399 q 563 519 563 451 q 527 615 563 588 q 442 642 492 642 l 308 642 z "},"Q":{"ha":1015,"x_min":63,"x_max":967,"o":"m 508 983 q 838 855 724 983 q 953 486 953 726 q 897 210 953 322 q 735 43 840 97 l 735 38 l 947 -39 q 967 -61 967 -46 q 956 -110 967 -75 q 927 -174 944 -146 q 890 -203 910 -203 q 850 -190 883 -203 q 728 -142 817 -178 q 625 -100 711 -135 q 315 22 539 -65 q 127 189 192 71 q 63 486 63 307 q 178 855 63 726 q 508 983 293 983 m 508 800 q 340 720 397 800 q 282 486 282 640 q 340 247 282 329 q 508 165 397 165 q 676 247 619 165 q 733 486 733 329 q 676 720 733 640 q 508 800 619 800 z "},"R":{"ha":847,"x_min":96,"x_max":835,"o":"m 422 972 q 768 711 768 972 q 724 576 768 633 q 606 490 681 518 l 606 485 q 660 438 632 475 q 706 357 688 401 l 828 51 q 835 25 835 33 q 814 5 835 13 q 751 -3 793 -3 l 694 -3 q 614 26 625 -3 l 504 297 q 453 362 481 343 q 364 381 426 381 l 310 381 l 310 42 q 226 -3 310 -3 l 179 -3 q 96 42 96 -3 l 96 917 q 109 959 96 946 q 151 972 122 972 l 422 972 m 310 790 l 310 565 l 442 565 q 517 600 485 565 q 549 685 549 635 q 517 762 549 733 q 432 790 486 790 l 310 790 z "},"Ŕ":{"ha":847,"x_min":96,"x_max":835,"o":"m 96 0 m 422 972 q 768 711 768 972 q 724 576 768 633 q 606 490 681 518 l 606 485 q 660 438 632 475 q 706 357 688 401 l 828 51 q 835 25 835 33 q 814 5 835 13 q 751 -3 793 -3 l 694 -3 q 614 26 625 -3 l 504 297 q 453 362 481 343 q 364 381 426 381 l 310 381 l 310 42 q 226 -3 310 -3 l 179 -3 q 96 42 96 -3 l 96 917 q 109 959 96 946 q 151 972 122 972 l 422 972 m 310 790 l 310 565 l 442 565 q 517 600 485 565 q 549 685 549 635 q 517 762 549 733 q 432 790 486 790 l 310 790 m 535 1265 q 598 1261 578 1265 q 618 1246 618 1257 q 610 1227 618 1238 q 567 1179 601 1217 q 474 1079 496 1104 q 437 1054 460 1064 q 369 1044 414 1044 q 335 1049 344 1044 q 326 1065 326 1054 q 335 1089 326 1072 q 360 1131 344 1106 q 417 1228 414 1222 q 535 1265 438 1265 z "},"Ř":{"ha":847,"x_min":96,"x_max":835,"o":"m 96 0 m 422 972 q 768 711 768 972 q 724 576 768 633 q 606 490 681 518 l 606 485 q 660 438 632 475 q 706 357 688 401 l 828 51 q 835 25 835 33 q 814 5 835 13 q 751 -3 793 -3 l 694 -3 q 614 26 625 -3 l 504 297 q 453 362 481 343 q 364 381 426 381 l 310 381 l 310 42 q 226 -3 310 -3 l 179 -3 q 96 42 96 -3 l 96 917 q 109 959 96 946 q 151 972 122 972 l 422 972 m 310 790 l 310 565 l 442 565 q 517 600 485 565 q 549 685 549 635 q 517 762 549 733 q 432 790 486 790 l 310 790 m 586 1243 q 614 1229 614 1243 q 606 1208 614 1221 l 515 1067 q 485 1045 504 1050 q 431 1040 467 1040 l 415 1040 q 360 1045 379 1040 q 331 1067 342 1050 l 240 1208 q 232 1229 232 1221 q 260 1243 232 1243 l 290 1243 q 347 1236 324 1243 q 383 1208 369 1229 l 422 1154 l 461 1210 q 556 1243 483 1243 l 586 1243 z "},"Ŗ":{"ha":847,"x_min":96,"x_max":835,"o":"m 96 0 m 422 972 q 768 711 768 972 q 724 576 768 633 q 606 490 681 518 l 606 485 q 660 438 632 475 q 706 357 688 401 l 828 51 q 835 25 835 33 q 814 5 835 13 q 751 -3 793 -3 l 694 -3 q 614 26 625 -3 l 504 297 q 453 362 481 343 q 364 381 426 381 l 310 381 l 310 42 q 226 -3 310 -3 l 179 -3 q 96 42 96 -3 l 96 917 q 109 959 96 946 q 151 972 122 972 l 422 972 m 310 790 l 310 565 l 442 565 q 517 600 485 565 q 549 685 549 635 q 517 762 549 733 q 432 790 486 790 l 310 790 m 440 -71 q 492 -87 475 -71 q 510 -132 510 -104 q 483 -223 510 -176 q 421 -301 457 -269 q 360 -333 385 -333 q 317 -326 338 -333 q 297 -303 297 -318 q 306 -274 297 -293 q 324 -212 317 -243 q 331 -132 331 -181 q 414 -71 331 -71 l 440 -71 z "},"Ṛ":{"ha":847,"x_min":96,"x_max":835,"o":"m 96 0 m 422 972 q 768 711 768 972 q 724 576 768 633 q 606 490 681 518 l 606 485 q 660 438 632 475 q 706 357 688 401 l 828 51 q 835 25 835 33 q 814 5 835 13 q 751 -3 793 -3 l 694 -3 q 614 26 625 -3 l 504 297 q 453 362 481 343 q 364 381 426 381 l 310 381 l 310 42 q 226 -3 310 -3 l 179 -3 q 96 42 96 -3 l 96 917 q 109 959 96 946 q 151 972 122 972 l 422 972 m 310 790 l 310 565 l 442 565 q 517 600 485 565 q 549 685 549 635 q 517 762 549 733 q 432 790 486 790 l 310 790 m 426 -111 q 510 -156 510 -111 l 510 -239 q 426 -283 510 -283 q 343 -239 343 -283 l 343 -156 q 426 -111 343 -111 z "},"S":{"ha":694,"x_min":31,"x_max":671,"o":"m 379 983 q 507 969 450 983 q 597 932 564 954 q 629 886 629 910 q 617 838 629 867 q 586 787 604 808 q 553 765 568 765 q 523 776 547 765 q 469 793 499 786 q 399 800 439 800 q 298 776 326 800 q 269 722 269 753 q 306 644 269 671 q 418 586 342 617 q 547 523 497 553 q 634 437 597 493 q 671 293 671 381 q 626 118 671 186 q 510 19 581 50 q 357 -11 439 -11 q 184 8 258 -11 q 70 57 110 28 q 31 111 31 86 q 46 161 31 132 q 82 213 61 190 q 117 235 103 235 q 154 219 124 235 q 233 185 194 199 q 321 171 272 171 q 413 192 375 171 q 451 268 451 214 q 416 338 451 313 q 301 396 381 364 l 238 424 q 100 527 150 465 q 50 703 50 589 q 97 860 50 797 q 218 953 143 924 q 379 983 293 983 z "},"Ś":{"ha":694,"x_min":31,"x_max":671,"o":"m 31 0 m 379 983 q 507 969 450 983 q 597 932 564 954 q 629 886 629 910 q 617 838 629 867 q 586 787 604 808 q 553 765 568 765 q 523 776 547 765 q 469 793 499 786 q 399 800 439 800 q 298 776 326 800 q 269 722 269 753 q 306 644 269 671 q 418 586 342 617 q 547 523 497 553 q 634 437 597 493 q 671 293 671 381 q 626 118 671 186 q 510 19 581 50 q 357 -11 439 -11 q 184 8 258 -11 q 70 57 110 28 q 31 111 31 86 q 46 161 31 132 q 82 213 61 190 q 117 235 103 235 q 154 219 124 235 q 233 185 194 199 q 321 171 272 171 q 413 192 375 171 q 451 268 451 214 q 416 338 451 313 q 301 396 381 364 l 238 424 q 100 527 150 465 q 50 703 50 589 q 97 860 50 797 q 218 953 143 924 q 379 983 293 983 m 458 1265 q 522 1261 501 1265 q 542 1246 542 1257 q 533 1227 542 1238 q 490 1179 525 1217 q 397 1079 419 1104 q 360 1054 383 1064 q 293 1044 338 1044 q 259 1049 268 1044 q 250 1065 250 1054 q 259 1089 250 1072 q 283 1131 268 1106 q 340 1228 338 1222 q 458 1265 361 1265 z "},"Š":{"ha":694,"x_min":31,"x_max":671,"o":"m 31 0 m 379 983 q 507 969 450 983 q 597 932 564 954 q 629 886 629 910 q 617 838 629 867 q 586 787 604 808 q 553 765 568 765 q 523 776 547 765 q 469 793 499 786 q 399 800 439 800 q 298 776 326 800 q 269 722 269 753 q 306 644 269 671 q 418 586 342 617 q 547 523 497 553 q 634 437 597 493 q 671 293 671 381 q 626 118 671 186 q 510 19 581 50 q 357 -11 439 -11 q 184 8 258 -11 q 70 57 110 28 q 31 111 31 86 q 46 161 31 132 q 82 213 61 190 q 117 235 103 235 q 154 219 124 235 q 233 185 194 199 q 321 171 272 171 q 413 192 375 171 q 451 268 451 214 q 416 338 451 313 q 301 396 381 364 l 238 424 q 100 527 150 465 q 50 703 50 589 q 97 860 50 797 q 218 953 143 924 q 379 983 293 983 m 510 1243 q 538 1229 538 1243 q 529 1208 538 1221 l 439 1067 q 409 1045 428 1050 q 354 1040 390 1040 l 339 1040 q 284 1045 303 1040 q 254 1067 265 1050 l 164 1208 q 156 1229 156 1221 q 183 1243 156 1243 l 214 1243 q 270 1236 247 1243 q 307 1208 293 1229 l 346 1154 l 385 1210 q 479 1243 407 1243 l 510 1243 z "},"Ş":{"ha":694,"x_min":31,"x_max":671,"o":"m 671 293 q 590 74 671 147 q 390 -10 510 0 l 381 -50 q 456 -81 424 -56 q 488 -156 488 -107 q 322 -294 488 -294 q 199 -275 257 -294 q 140 -225 140 -256 q 156 -179 140 -194 q 185 -164 172 -164 q 229 -175 196 -164 q 311 -193 278 -193 q 344 -169 344 -193 q 335 -150 344 -157 q 307 -135 326 -143 q 281 -121 290 -128 q 271 -103 271 -114 q 299 -10 271 -94 q 156 16 217 -4 q 63 63 94 36 q 31 111 31 89 q 46 161 31 132 q 82 213 61 190 q 117 235 103 235 q 154 219 124 235 q 233 185 194 199 q 321 171 272 171 q 413 192 375 171 q 451 268 451 214 q 416 338 451 313 q 301 396 381 364 l 238 424 q 100 527 150 465 q 50 703 50 589 q 97 860 50 797 q 218 953 143 924 q 379 983 293 983 q 507 969 450 983 q 597 932 564 954 q 629 886 629 910 q 617 838 629 867 q 586 787 604 808 q 553 765 568 765 q 523 776 547 765 q 469 793 499 786 q 399 800 439 800 q 298 776 326 800 q 269 722 269 753 q 306 644 269 671 q 418 586 342 617 q 547 523 497 553 q 634 437 597 493 q 671 293 671 381 z "},"Ŝ":{"ha":694,"x_min":31,"x_max":671,"o":"m 31 0 m 379 983 q 507 969 450 983 q 597 932 564 954 q 629 886 629 910 q 617 838 629 867 q 586 787 604 808 q 553 765 568 765 q 523 776 547 765 q 469 793 499 786 q 399 800 439 800 q 298 776 326 800 q 269 722 269 753 q 306 644 269 671 q 418 586 342 617 q 547 523 497 553 q 634 437 597 493 q 671 293 671 381 q 626 118 671 186 q 510 19 581 50 q 357 -11 439 -11 q 184 8 258 -11 q 70 57 110 28 q 31 111 31 86 q 46 161 31 132 q 82 213 61 190 q 117 235 103 235 q 154 219 124 235 q 233 185 194 199 q 321 171 272 171 q 413 192 375 171 q 451 268 451 214 q 416 338 451 313 q 301 396 381 364 l 238 424 q 100 527 150 465 q 50 703 50 589 q 97 860 50 797 q 218 953 143 924 q 379 983 293 983 m 354 1243 q 409 1238 390 1243 q 439 1217 428 1233 l 529 1075 q 538 1054 538 1063 q 510 1040 538 1040 l 479 1040 q 385 1074 407 1040 l 346 1129 l 307 1075 q 270 1047 293 1054 q 214 1040 247 1040 l 183 1040 q 156 1054 156 1040 q 164 1075 156 1063 l 254 1217 q 284 1238 265 1233 q 339 1243 303 1243 l 354 1243 z "},"Ș":{"ha":694,"x_min":31,"x_max":671,"o":"m 31 0 m 379 983 q 507 969 450 983 q 597 932 564 954 q 629 886 629 910 q 617 838 629 867 q 586 787 604 808 q 553 765 568 765 q 523 776 547 765 q 469 793 499 786 q 399 800 439 800 q 298 776 326 800 q 269 722 269 753 q 306 644 269 671 q 418 586 342 617 q 547 523 497 553 q 634 437 597 493 q 671 293 671 381 q 626 118 671 186 q 510 19 581 50 q 357 -11 439 -11 q 184 8 258 -11 q 70 57 110 28 q 31 111 31 86 q 46 161 31 132 q 82 213 61 190 q 117 235 103 235 q 154 219 124 235 q 233 185 194 199 q 321 171 272 171 q 413 192 375 171 q 451 268 451 214 q 416 338 451 313 q 301 396 381 364 l 238 424 q 100 527 150 465 q 50 703 50 589 q 97 860 50 797 q 218 953 143 924 q 379 983 293 983 m 364 -71 q 416 -87 399 -71 q 433 -132 433 -104 q 407 -223 433 -176 q 344 -301 381 -269 q 283 -333 308 -333 q 241 -326 261 -333 q 221 -303 221 -318 q 229 -274 221 -293 q 247 -212 240 -243 q 254 -132 254 -181 q 338 -71 254 -71 l 364 -71 z "},"Ṣ":{"ha":694,"x_min":31,"x_max":671,"o":"m 31 0 m 379 983 q 507 969 450 983 q 597 932 564 954 q 629 886 629 910 q 617 838 629 867 q 586 787 604 808 q 553 765 568 765 q 523 776 547 765 q 469 793 499 786 q 399 800 439 800 q 298 776 326 800 q 269 722 269 753 q 306 644 269 671 q 418 586 342 617 q 547 523 497 553 q 634 437 597 493 q 671 293 671 381 q 626 118 671 186 q 510 19 581 50 q 357 -11 439 -11 q 184 8 258 -11 q 70 57 110 28 q 31 111 31 86 q 46 161 31 132 q 82 213 61 190 q 117 235 103 235 q 154 219 124 235 q 233 185 194 199 q 321 171 272 171 q 413 192 375 171 q 451 268 451 214 q 416 338 451 313 q 301 396 381 364 l 238 424 q 100 527 150 465 q 50 703 50 589 q 97 860 50 797 q 218 953 143 924 q 379 983 293 983 m 350 -111 q 433 -156 433 -111 l 433 -239 q 350 -283 433 -283 q 267 -239 267 -283 l 267 -156 q 350 -111 267 -111 z "},"ẞ":{"ha":972,"x_min":92,"x_max":938,"o":"m 725 569 q 881 468 824 531 q 938 283 938 406 q 855 68 938 147 q 638 -11 772 -11 q 463 17 549 -11 q 378 103 378 46 q 389 142 378 117 q 415 188 400 168 q 446 208 431 208 q 476 194 453 208 q 538 163 508 175 q 606 151 568 151 q 695 187 661 151 q 729 286 729 222 q 691 391 729 354 q 581 428 653 428 l 543 428 q 508 474 526 428 q 489 551 489 521 q 492 565 489 560 l 629 793 q 482 800 563 800 q 307 599 307 800 l 307 42 q 224 -3 307 -3 l 175 -3 q 92 42 92 -3 l 92 600 q 192 886 92 789 q 486 983 292 983 q 665 976 572 983 q 831 958 758 969 q 864 908 846 957 q 882 831 882 860 q 881 819 882 822 l 725 569 z "},"Ə":{"ha":933,"x_min":53,"x_max":829,"o":"m 422 -1 q 144 123 235 -1 q 53 440 53 247 q 81 490 53 457 q 124 522 110 522 l 617 522 q 553 755 606 689 q 401 821 500 821 q 297 806 343 821 q 196 767 250 792 q 150 750 158 750 q 119 770 136 750 q 90 816 101 790 q 78 856 78 842 q 136 925 78 896 q 273 969 194 954 q 411 983 351 983 q 726 845 622 983 q 829 461 829 707 q 721 110 829 222 q 422 -1 613 -1 m 422 161 q 549 212 499 161 q 617 385 600 263 l 253 385 q 295 222 253 282 q 422 161 338 161 z "},"T":{"ha":763,"x_min":11,"x_max":751,"o":"m 710 972 q 742 956 732 972 q 751 903 751 939 l 751 860 q 742 807 751 824 q 710 790 732 790 l 489 790 l 489 42 q 406 -3 489 -3 l 357 -3 q 274 42 274 -3 l 274 790 l 53 790 q 21 807 31 790 q 11 860 11 824 l 11 903 q 21 956 11 939 q 53 972 31 972 l 710 972 z "},"Ŧ":{"ha":763,"x_min":11,"x_max":751,"o":"m 710 972 q 742 956 732 972 q 751 903 751 939 l 751 860 q 742 807 751 824 q 710 790 732 790 l 489 790 l 489 553 l 633 553 q 665 540 656 553 q 675 497 675 526 l 675 476 q 665 434 675 447 q 633 421 656 421 l 489 421 l 489 42 q 406 -3 489 -3 l 357 -3 q 274 42 274 -3 l 274 421 l 140 421 q 108 434 118 421 q 99 476 99 447 l 99 497 q 108 540 99 526 q 140 553 118 553 l 274 553 l 274 790 l 53 790 q 21 807 31 790 q 11 860 11 824 l 11 903 q 21 956 11 939 q 53 972 31 972 l 710 972 z "},"Ť":{"ha":763,"x_min":11,"x_max":751,"o":"m 11 0 m 710 972 q 742 956 732 972 q 751 903 751 939 l 751 860 q 742 807 751 824 q 710 790 732 790 l 489 790 l 489 42 q 406 -3 489 -3 l 357 -3 q 274 42 274 -3 l 274 790 l 53 790 q 21 807 31 790 q 11 860 11 824 l 11 903 q 21 956 11 939 q 53 972 31 972 l 710 972 m 544 1243 q 572 1229 572 1243 q 564 1208 572 1221 l 474 1067 q 444 1045 463 1050 q 389 1040 425 1040 l 374 1040 q 319 1045 338 1040 q 289 1067 300 1050 l 199 1208 q 190 1229 190 1221 q 218 1243 190 1243 l 249 1243 q 305 1236 282 1243 q 342 1208 328 1229 l 381 1154 l 419 1210 q 514 1243 442 1243 l 544 1243 z "},"Ţ":{"ha":763,"x_min":11,"x_max":751,"o":"m 710 972 q 742 956 732 972 q 751 903 751 939 l 751 860 q 742 807 751 824 q 710 790 732 790 l 489 790 l 489 42 q 428 -1 489 3 l 415 -50 q 490 -81 458 -56 q 522 -156 522 -107 q 357 -294 522 -294 q 233 -275 292 -294 q 175 -225 175 -256 q 191 -179 175 -194 q 219 -164 207 -164 q 264 -175 231 -164 q 346 -193 313 -193 q 379 -169 379 -193 q 370 -150 379 -157 q 342 -135 361 -143 q 315 -121 325 -128 q 306 -103 306 -114 q 335 -1 306 -94 q 274 42 274 3 l 274 790 l 53 790 q 21 807 31 790 q 11 860 11 824 l 11 903 q 21 956 11 939 q 53 972 31 972 l 710 972 z "},"Ț":{"ha":763,"x_min":11,"x_max":751,"o":"m 11 0 m 710 972 q 742 956 732 972 q 751 903 751 939 l 751 860 q 742 807 751 824 q 710 790 732 790 l 489 790 l 489 42 q 406 -3 489 -3 l 357 -3 q 274 42 274 -3 l 274 790 l 53 790 q 21 807 31 790 q 11 860 11 824 l 11 903 q 21 956 11 939 q 53 972 31 972 l 710 972 m 399 -71 q 451 -87 433 -71 q 468 -132 468 -104 q 442 -223 468 -176 q 379 -301 415 -269 q 318 -333 343 -333 q 276 -326 296 -333 q 256 -303 256 -318 q 264 -274 256 -293 q 282 -212 275 -243 q 289 -132 289 -181 q 372 -71 289 -71 l 399 -71 z "},"Ṭ":{"ha":763,"x_min":11,"x_max":751,"o":"m 11 0 m 710 972 q 742 956 732 972 q 751 903 751 939 l 751 860 q 742 807 751 824 q 710 790 732 790 l 489 790 l 489 42 q 406 -3 489 -3 l 357 -3 q 274 42 274 -3 l 274 790 l 53 790 q 21 807 31 790 q 11 860 11 824 l 11 903 q 21 956 11 939 q 53 972 31 972 l 710 972 m 385 -111 q 468 -156 468 -111 l 468 -239 q 385 -283 468 -283 q 301 -239 301 -283 l 301 -156 q 385 -111 301 -111 z "},"U":{"ha":989,"x_min":92,"x_max":897,"o":"m 814 975 q 897 931 897 975 l 897 325 q 792 77 897 165 q 494 -11 686 -11 q 197 77 303 -11 q 92 325 92 165 l 92 931 q 175 975 92 975 l 222 975 q 306 931 306 975 l 306 339 q 358 218 306 265 q 494 171 411 171 q 631 218 578 171 q 685 339 685 265 l 685 931 q 768 975 685 975 l 814 975 z "},"Ú":{"ha":989,"x_min":92,"x_max":897,"o":"m 92 0 m 814 975 q 897 931 897 975 l 897 325 q 792 77 897 165 q 494 -11 686 -11 q 197 77 303 -11 q 92 325 92 165 l 92 931 q 175 975 92 975 l 222 975 q 306 931 306 975 l 306 339 q 358 218 306 265 q 494 171 411 171 q 631 218 578 171 q 685 339 685 265 l 685 931 q 768 975 685 975 l 814 975 m 606 1265 q 669 1261 649 1265 q 689 1246 689 1257 q 681 1227 689 1238 q 638 1179 672 1217 q 544 1079 567 1104 q 508 1054 531 1064 q 440 1044 485 1044 q 406 1049 415 1044 q 397 1065 397 1054 q 406 1089 397 1072 q 431 1131 415 1106 q 488 1228 485 1222 q 606 1265 508 1265 z "},"Ŭ":{"ha":989,"x_min":92,"x_max":897,"o":"m 92 0 m 814 975 q 897 931 897 975 l 897 325 q 792 77 897 165 q 494 -11 686 -11 q 197 77 303 -11 q 92 325 92 165 l 92 931 q 175 975 92 975 l 222 975 q 306 931 306 975 l 306 339 q 358 218 306 265 q 494 171 411 171 q 631 218 578 171 q 685 339 685 265 l 685 931 q 768 975 685 975 l 814 975 m 650 1239 q 686 1228 674 1239 q 699 1200 699 1218 q 672 1124 699 1160 q 599 1067 646 1089 q 494 1044 553 1044 q 390 1067 436 1044 q 317 1124 343 1089 q 290 1200 290 1160 q 303 1228 290 1218 q 339 1239 315 1239 q 363 1233 354 1239 q 385 1214 372 1228 q 426 1182 404 1193 q 494 1171 447 1171 q 565 1183 543 1171 q 607 1217 586 1194 q 626 1233 617 1228 q 650 1239 635 1239 z "},"Û":{"ha":989,"x_min":92,"x_max":897,"o":"m 92 0 m 814 975 q 897 931 897 975 l 897 325 q 792 77 897 165 q 494 -11 686 -11 q 197 77 303 -11 q 92 325 92 165 l 92 931 q 175 975 92 975 l 222 975 q 306 931 306 975 l 306 339 q 358 218 306 265 q 494 171 411 171 q 631 218 578 171 q 685 339 685 265 l 685 931 q 768 975 685 975 l 814 975 m 501 1243 q 556 1238 538 1243 q 586 1217 575 1233 l 676 1075 q 685 1054 685 1063 q 657 1040 685 1040 l 626 1040 q 532 1074 554 1040 l 493 1129 l 454 1075 q 417 1047 440 1054 q 361 1040 394 1040 l 331 1040 q 303 1054 303 1040 q 311 1075 303 1063 l 401 1217 q 431 1238 413 1233 q 486 1243 450 1243 l 501 1243 z "},"Ü":{"ha":989,"x_min":92,"x_max":897,"o":"m 92 0 m 814 975 q 897 931 897 975 l 897 325 q 792 77 897 165 q 494 -11 686 -11 q 197 77 303 -11 q 92 325 92 165 l 92 931 q 175 975 92 975 l 222 975 q 306 931 306 975 l 306 339 q 358 218 306 265 q 494 171 411 171 q 631 218 578 171 q 685 339 685 265 l 685 931 q 768 975 685 975 l 814 975 m 369 1221 q 453 1176 453 1221 l 453 1093 q 369 1049 453 1049 q 286 1093 286 1049 l 286 1176 q 369 1221 286 1221 m 619 1221 q 703 1176 703 1221 l 703 1093 q 619 1049 703 1049 q 536 1093 536 1049 l 536 1176 q 619 1221 536 1221 z "},"Ụ":{"ha":989,"x_min":92,"x_max":897,"o":"m 92 0 m 814 975 q 897 931 897 975 l 897 325 q 792 77 897 165 q 494 -11 686 -11 q 197 77 303 -11 q 92 325 92 165 l 92 931 q 175 975 92 975 l 222 975 q 306 931 306 975 l 306 339 q 358 218 306 265 q 494 171 411 171 q 631 218 578 171 q 685 339 685 265 l 685 931 q 768 975 685 975 l 814 975 m 497 -111 q 581 -156 581 -111 l 581 -239 q 497 -283 581 -283 q 414 -239 414 -283 l 414 -156 q 497 -111 414 -111 z "},"Ù":{"ha":989,"x_min":92,"x_max":897,"o":"m 92 0 m 814 975 q 897 931 897 975 l 897 325 q 792 77 897 165 q 494 -11 686 -11 q 197 77 303 -11 q 92 325 92 165 l 92 931 q 175 975 92 975 l 222 975 q 306 931 306 975 l 306 339 q 358 218 306 265 q 494 171 411 171 q 631 218 578 171 q 685 339 685 265 l 685 931 q 768 975 685 975 l 814 975 m 392 1265 q 510 1228 489 1265 q 567 1131 513 1222 q 591 1089 582 1106 q 600 1065 600 1072 q 591 1049 600 1054 q 557 1044 582 1044 q 490 1054 513 1044 q 453 1079 467 1064 q 360 1179 431 1104 q 317 1227 325 1217 q 308 1246 308 1238 q 328 1261 308 1257 q 392 1265 349 1265 z "},"Ủ":{"ha":989,"x_min":92,"x_max":897,"o":"m 92 0 m 814 975 q 897 931 897 975 l 897 325 q 792 77 897 165 q 494 -11 686 -11 q 197 77 303 -11 q 92 325 92 165 l 92 931 q 175 975 92 975 l 222 975 q 306 931 306 975 l 306 339 q 358 218 306 265 q 494 171 411 171 q 631 218 578 171 q 685 339 685 265 l 685 931 q 768 975 685 975 l 814 975 m 546 1174 q 533 1196 546 1188 q 501 1204 519 1204 q 466 1196 483 1204 q 443 1188 449 1188 q 418 1209 435 1188 q 401 1246 401 1231 q 439 1274 401 1260 q 513 1289 476 1289 q 626 1260 586 1289 q 667 1179 667 1231 q 639 1113 667 1146 q 576 1059 611 1081 q 528 1038 542 1038 q 478 1049 504 1038 q 453 1069 453 1061 q 489 1107 453 1081 q 531 1142 515 1126 q 546 1174 546 1158 z "},"Ư":{"ha":989,"x_min":92,"x_max":1025,"o":"m 1025 1046 q 994 962 1025 994 q 897 919 963 929 l 897 325 q 792 77 897 165 q 494 -11 686 -11 q 197 77 303 -11 q 92 325 92 165 l 92 931 q 175 975 92 975 l 222 975 q 306 931 306 975 l 306 339 q 358 218 306 265 q 494 171 411 171 q 631 218 578 171 q 685 339 685 265 l 685 931 q 768 975 685 975 l 849 975 q 914 1025 914 975 q 892 1071 914 1043 q 884 1081 890 1072 q 878 1097 878 1090 q 893 1124 878 1114 l 938 1154 q 960 1161 946 1161 q 1005 1121 985 1161 q 1025 1046 1025 1081 z "},"Ứ":{"ha":989,"x_min":92,"x_max":1025,"o":"m 440 1044 q 406 1049 415 1044 q 397 1065 397 1054 q 406 1089 397 1072 q 431 1131 415 1106 q 488 1228 485 1222 q 606 1265 508 1265 q 669 1261 649 1265 q 689 1246 689 1257 q 681 1227 689 1238 q 638 1179 672 1217 q 544 1079 567 1104 q 508 1054 531 1064 q 440 1044 485 1044 m 1025 1046 q 994 962 1025 994 q 897 919 963 929 l 897 325 q 792 77 897 165 q 494 -11 686 -11 q 197 77 303 -11 q 92 325 92 165 l 92 931 q 175 975 92 975 l 222 975 q 306 931 306 975 l 306 339 q 358 218 306 265 q 494 171 411 171 q 631 218 578 171 q 685 339 685 265 l 685 931 q 768 975 685 975 l 849 975 q 914 1025 914 975 q 892 1071 914 1043 q 884 1081 890 1072 q 878 1097 878 1090 q 893 1124 878 1114 l 938 1154 q 960 1161 946 1161 q 1005 1121 985 1161 q 1025 1046 1025 1081 z "},"Ự":{"ha":989,"x_min":92,"x_max":1025,"o":"m 1025 1046 q 994 962 1025 994 q 897 919 963 929 l 897 325 q 792 77 897 165 q 494 -11 686 -11 q 197 77 303 -11 q 92 325 92 165 l 92 931 q 175 975 92 975 l 222 975 q 306 931 306 975 l 306 339 q 358 218 306 265 q 494 171 411 171 q 631 218 578 171 q 685 339 685 265 l 685 931 q 768 975 685 975 l 849 975 q 914 1025 914 975 q 892 1071 914 1043 q 884 1081 890 1072 q 878 1097 878 1090 q 893 1124 878 1114 l 938 1154 q 960 1161 946 1161 q 1005 1121 985 1161 q 1025 1046 1025 1081 m 497 -111 q 581 -156 581 -111 l 581 -239 q 497 -283 581 -283 q 414 -239 414 -283 l 414 -156 q 497 -111 414 -111 z "},"Ừ":{"ha":989,"x_min":92,"x_max":1025,"o":"m 557 1044 q 490 1054 513 1044 q 453 1079 467 1064 q 360 1179 431 1104 q 317 1227 325 1217 q 308 1246 308 1238 q 328 1261 308 1257 q 392 1265 349 1265 q 510 1228 489 1265 q 567 1131 513 1222 q 591 1089 582 1106 q 600 1065 600 1072 q 591 1049 600 1054 q 557 1044 582 1044 m 1025 1046 q 994 962 1025 994 q 897 919 963 929 l 897 325 q 792 77 897 165 q 494 -11 686 -11 q 197 77 303 -11 q 92 325 92 165 l 92 931 q 175 975 92 975 l 222 975 q 306 931 306 975 l 306 339 q 358 218 306 265 q 494 171 411 171 q 631 218 578 171 q 685 339 685 265 l 685 931 q 768 975 685 975 l 849 975 q 914 1025 914 975 q 892 1071 914 1043 q 884 1081 890 1072 q 878 1097 878 1090 q 893 1124 878 1114 l 938 1154 q 960 1161 946 1161 q 1005 1121 985 1161 q 1025 1046 1025 1081 z "},"Ử":{"ha":989,"x_min":92,"x_max":1025,"o":"m 443 1188 q 418 1209 435 1188 q 401 1246 401 1231 q 439 1274 401 1260 q 513 1289 476 1289 q 626 1260 586 1289 q 667 1179 667 1231 q 639 1113 667 1146 q 576 1059 611 1081 q 528 1038 542 1038 q 478 1049 504 1038 q 453 1069 453 1061 q 489 1107 453 1081 q 531 1142 515 1126 q 546 1174 546 1158 q 533 1196 546 1188 q 501 1204 519 1204 q 466 1196 483 1204 q 443 1188 449 1188 m 1025 1046 q 994 962 1025 994 q 897 919 963 929 l 897 325 q 792 77 897 165 q 494 -11 686 -11 q 197 77 303 -11 q 92 325 92 165 l 92 931 q 175 975 92 975 l 222 975 q 306 931 306 975 l 306 339 q 358 218 306 265 q 494 171 411 171 q 631 218 578 171 q 685 339 685 265 l 685 931 q 768 975 685 975 l 849 975 q 914 1025 914 975 q 892 1071 914 1043 q 884 1081 890 1072 q 878 1097 878 1090 q 893 1124 878 1114 l 938 1154 q 960 1161 946 1161 q 1005 1121 985 1161 q 1025 1046 1025 1081 z "},"Ữ":{"ha":989,"x_min":92,"x_max":1025,"o":"m 261 1056 q 229 1093 229 1065 q 233 1113 229 1104 q 289 1181 249 1153 q 385 1210 329 1210 q 445 1200 407 1210 q 492 1189 483 1190 q 581 1169 556 1171 q 626 1192 606 1169 q 664 1215 644 1215 q 682 1213 671 1215 l 697 1208 q 729 1171 729 1199 q 725 1151 729 1160 q 669 1083 710 1111 q 574 1054 629 1054 q 513 1064 551 1054 q 467 1075 475 1074 q 378 1094 403 1093 q 332 1072 351 1094 q 294 1049 314 1049 q 276 1051 288 1049 l 261 1056 m 1025 1046 q 994 962 1025 994 q 897 919 963 929 l 897 325 q 792 77 897 165 q 494 -11 686 -11 q 197 77 303 -11 q 92 325 92 165 l 92 931 q 175 975 92 975 l 222 975 q 306 931 306 975 l 306 339 q 358 218 306 265 q 494 171 411 171 q 631 218 578 171 q 685 339 685 265 l 685 931 q 768 975 685 975 l 849 975 q 914 1025 914 975 q 892 1071 914 1043 q 884 1081 890 1072 q 878 1097 878 1090 q 893 1124 878 1114 l 938 1154 q 960 1161 946 1161 q 1005 1121 985 1161 q 1025 1046 1025 1081 z "},"Ű":{"ha":989,"x_min":92,"x_max":897,"o":"m 92 0 m 814 975 q 897 931 897 975 l 897 325 q 792 77 897 165 q 494 -11 686 -11 q 197 77 303 -11 q 92 325 92 165 l 92 931 q 175 975 92 975 l 222 975 q 306 931 306 975 l 306 339 q 358 218 306 265 q 494 171 411 171 q 631 218 578 171 q 685 339 685 265 l 685 931 q 768 975 685 975 l 814 975 m 489 1265 q 552 1261 532 1265 q 572 1246 572 1257 q 564 1227 572 1238 q 521 1179 556 1217 q 428 1079 450 1104 q 391 1054 414 1064 q 324 1044 368 1044 q 290 1049 299 1044 q 281 1065 281 1054 q 290 1089 281 1072 q 314 1131 299 1106 q 371 1228 368 1222 q 489 1265 392 1265 m 743 1265 q 806 1261 786 1265 q 826 1246 826 1257 q 818 1227 826 1238 q 775 1179 810 1217 q 682 1079 704 1104 q 645 1054 668 1064 q 578 1044 622 1044 q 544 1049 553 1044 q 535 1065 535 1054 q 544 1089 535 1072 q 568 1131 553 1106 q 625 1228 622 1222 q 743 1265 646 1265 z "},"Ū":{"ha":989,"x_min":92,"x_max":897,"o":"m 92 0 m 814 975 q 897 931 897 975 l 897 325 q 792 77 897 165 q 494 -11 686 -11 q 197 77 303 -11 q 92 325 92 165 l 92 931 q 175 975 92 975 l 222 975 q 306 931 306 975 l 306 339 q 358 218 306 265 q 494 171 411 171 q 631 218 578 171 q 685 339 685 265 l 685 931 q 768 975 685 975 l 814 975 m 643 1207 q 675 1194 665 1207 q 685 1151 685 1181 l 685 1131 q 675 1088 685 1101 q 643 1075 665 1075 l 344 1075 q 313 1088 322 1075 q 303 1131 303 1101 l 303 1151 q 313 1194 303 1181 q 344 1207 322 1207 l 643 1207 z "},"Ų":{"ha":989,"x_min":92,"x_max":897,"o":"m 814 975 q 897 931 897 975 l 897 325 q 825 110 897 193 q 619 0 753 26 q 621 -7 621 -1 q 613 -39 621 -15 q 606 -86 606 -62 q 631 -144 606 -131 q 692 -157 656 -157 q 732 -151 710 -157 q 760 -146 749 -146 q 790 -185 790 -146 q 676 -254 790 -254 q 546 -208 579 -254 q 513 -112 513 -162 q 518 -60 513 -90 q 539 -10 524 -31 q 494 -11 525 -11 q 197 77 303 -11 q 92 325 92 165 l 92 931 q 175 975 92 975 l 222 975 q 306 931 306 975 l 306 339 q 358 218 306 265 q 494 171 411 171 q 631 218 578 171 q 685 339 685 265 l 685 931 q 768 975 685 975 l 814 975 z "},"Ů":{"ha":989,"x_min":92,"x_max":897,"o":"m 92 0 m 814 975 q 897 931 897 975 l 897 325 q 792 77 897 165 q 494 -11 686 -11 q 197 77 303 -11 q 92 325 92 165 l 92 931 q 175 975 92 975 l 222 975 q 306 931 306 975 l 306 339 q 358 218 306 265 q 494 171 411 171 q 631 218 578 171 q 685 339 685 265 l 685 931 q 768 975 685 975 l 814 975 m 493 1286 q 592 1246 551 1286 q 632 1147 632 1206 q 592 1049 632 1089 q 493 1010 551 1010 q 395 1049 435 1010 q 356 1147 356 1089 q 395 1246 356 1206 q 493 1286 435 1286 m 493 1197 q 458 1182 472 1197 q 443 1146 443 1167 q 458 1110 443 1125 q 493 1096 472 1096 q 529 1110 514 1096 q 544 1146 544 1125 q 529 1182 544 1167 q 493 1197 514 1197 z "},"Ũ":{"ha":989,"x_min":92,"x_max":897,"o":"m 92 0 m 814 975 q 897 931 897 975 l 897 325 q 792 77 897 165 q 494 -11 686 -11 q 197 77 303 -11 q 92 325 92 165 l 92 931 q 175 975 92 975 l 222 975 q 306 931 306 975 l 306 339 q 358 218 306 265 q 494 171 411 171 q 631 218 578 171 q 685 339 685 265 l 685 931 q 768 975 685 975 l 814 975 m 385 1210 q 445 1200 407 1210 q 492 1189 483 1190 q 581 1169 556 1171 q 626 1192 606 1169 q 664 1215 644 1215 q 682 1213 671 1215 l 697 1208 q 729 1171 729 1199 q 725 1151 729 1160 q 669 1083 710 1111 q 574 1054 629 1054 q 513 1064 551 1054 q 467 1075 475 1074 q 378 1094 403 1093 q 332 1072 351 1094 q 294 1049 314 1049 q 276 1051 288 1049 l 261 1056 q 229 1093 229 1065 q 233 1113 229 1104 q 289 1181 249 1153 q 385 1210 329 1210 z "},"V":{"ha":857,"x_min":7,"x_max":844,"o":"m 761 975 q 844 944 844 975 q 840 919 844 935 l 540 26 q 463 -3 531 -3 l 390 -3 q 313 26 322 -3 l 13 919 q 7 944 7 939 q 92 975 7 975 l 138 975 q 219 935 207 975 l 407 333 l 422 285 l 428 285 l 443 333 l 636 935 q 718 975 650 975 l 761 975 z "},"W":{"ha":1225,"x_min":-6,"x_max":1231,"o":"m 1144 975 q 1231 939 1231 975 q 1228 918 1231 935 l 1001 26 q 976 5 997 13 q 925 -3 956 -3 l 824 -3 q 772 5 793 -3 q 747 26 750 13 l 633 507 l 611 601 l 588 507 l 469 26 q 444 5 465 13 q 393 -3 424 -3 l 293 -3 q 217 26 224 -3 l -3 918 q -6 939 -6 926 q 81 975 -6 975 l 117 975 q 210 932 200 975 l 314 485 l 342 358 q 357 285 346 335 q 384 410 367 349 q 404 485 401 472 l 518 946 q 541 969 522 963 q 594 975 560 975 l 647 975 q 701 969 682 975 q 724 946 719 963 l 833 485 q 881 275 857 383 l 908 397 l 928 485 l 1036 932 q 1129 975 1046 975 l 1144 975 z "},"Ẃ":{"ha":1225,"x_min":-6,"x_max":1231,"o":"m 0 0 m 1144 975 q 1231 939 1231 975 q 1228 918 1231 935 l 1001 26 q 976 5 997 13 q 925 -3 956 -3 l 824 -3 q 772 5 793 -3 q 747 26 750 13 l 633 507 l 611 601 l 588 507 l 469 26 q 444 5 465 13 q 393 -3 424 -3 l 293 -3 q 217 26 224 -3 l -3 918 q -6 939 -6 926 q 81 975 -6 975 l 117 975 q 210 932 200 975 l 314 485 l 342 358 q 357 285 346 335 q 384 410 367 349 q 404 485 401 472 l 518 946 q 541 969 522 963 q 594 975 560 975 l 647 975 q 701 969 682 975 q 724 946 719 963 l 833 485 q 881 275 857 383 l 908 397 l 928 485 l 1036 932 q 1129 975 1046 975 l 1144 975 m 724 1265 q 787 1261 767 1265 q 807 1246 807 1257 q 799 1227 807 1238 q 756 1179 790 1217 q 663 1079 685 1104 q 626 1054 649 1064 q 558 1044 603 1044 q 524 1049 533 1044 q 515 1065 515 1054 q 524 1089 515 1072 q 549 1131 533 1106 q 606 1228 603 1222 q 724 1265 626 1265 z "},"Ŵ":{"ha":1225,"x_min":-6,"x_max":1231,"o":"m 0 0 m 1144 975 q 1231 939 1231 975 q 1228 918 1231 935 l 1001 26 q 976 5 997 13 q 925 -3 956 -3 l 824 -3 q 772 5 793 -3 q 747 26 750 13 l 633 507 l 611 601 l 588 507 l 469 26 q 444 5 465 13 q 393 -3 424 -3 l 293 -3 q 217 26 224 -3 l -3 918 q -6 939 -6 926 q 81 975 -6 975 l 117 975 q 210 932 200 975 l 314 485 l 342 358 q 357 285 346 335 q 384 410 367 349 q 404 485 401 472 l 518 946 q 541 969 522 963 q 594 975 560 975 l 647 975 q 701 969 682 975 q 724 946 719 963 l 833 485 q 881 275 857 383 l 908 397 l 928 485 l 1036 932 q 1129 975 1046 975 l 1144 975 m 619 1243 q 674 1238 656 1243 q 704 1217 693 1233 l 794 1075 q 803 1054 803 1063 q 775 1040 803 1040 l 744 1040 q 650 1074 672 1040 l 611 1129 l 572 1075 q 535 1047 558 1054 q 479 1040 513 1040 l 449 1040 q 421 1054 421 1040 q 429 1075 421 1063 l 519 1217 q 549 1238 531 1233 q 604 1243 568 1243 l 619 1243 z "},"Ẅ":{"ha":1225,"x_min":-6,"x_max":1231,"o":"m 0 0 m 1144 975 q 1231 939 1231 975 q 1228 918 1231 935 l 1001 26 q 976 5 997 13 q 925 -3 956 -3 l 824 -3 q 772 5 793 -3 q 747 26 750 13 l 633 507 l 611 601 l 588 507 l 469 26 q 444 5 465 13 q 393 -3 424 -3 l 293 -3 q 217 26 224 -3 l -3 918 q -6 939 -6 926 q 81 975 -6 975 l 117 975 q 210 932 200 975 l 314 485 l 342 358 q 357 285 346 335 q 384 410 367 349 q 404 485 401 472 l 518 946 q 541 969 522 963 q 594 975 560 975 l 647 975 q 701 969 682 975 q 724 946 719 963 l 833 485 q 881 275 857 383 l 908 397 l 928 485 l 1036 932 q 1129 975 1046 975 l 1144 975 m 488 1221 q 571 1176 571 1221 l 571 1093 q 488 1049 571 1049 q 404 1093 404 1049 l 404 1176 q 488 1221 404 1221 m 738 1221 q 821 1176 821 1221 l 821 1093 q 738 1049 821 1049 q 654 1093 654 1049 l 654 1176 q 738 1221 654 1221 z "},"Ẁ":{"ha":1225,"x_min":-6,"x_max":1231,"o":"m 0 0 m 1144 975 q 1231 939 1231 975 q 1228 918 1231 935 l 1001 26 q 976 5 997 13 q 925 -3 956 -3 l 824 -3 q 772 5 793 -3 q 747 26 750 13 l 633 507 l 611 601 l 588 507 l 469 26 q 444 5 465 13 q 393 -3 424 -3 l 293 -3 q 217 26 224 -3 l -3 918 q -6 939 -6 926 q 81 975 -6 975 l 117 975 q 210 932 200 975 l 314 485 l 342 358 q 357 285 346 335 q 384 410 367 349 q 404 485 401 472 l 518 946 q 541 969 522 963 q 594 975 560 975 l 647 975 q 701 969 682 975 q 724 946 719 963 l 833 485 q 881 275 857 383 l 908 397 l 928 485 l 1036 932 q 1129 975 1046 975 l 1144 975 m 510 1265 q 628 1228 607 1265 q 685 1131 631 1222 q 709 1089 700 1106 q 718 1065 718 1072 q 709 1049 718 1054 q 675 1044 700 1044 q 608 1054 631 1044 q 571 1079 585 1064 q 478 1179 549 1104 q 435 1227 443 1217 q 426 1246 426 1238 q 447 1261 426 1257 q 510 1265 467 1265 z "},"X":{"ha":849,"x_min":11,"x_max":838,"o":"m 736 975 q 824 949 824 975 q 810 914 824 933 l 547 504 l 825 58 q 838 24 838 38 q 750 -3 838 -3 l 696 -3 q 613 24 628 -3 l 428 322 l 236 24 q 206 2 225 7 q 151 -3 188 -3 l 99 -3 q 11 24 11 -3 q 25 58 11 36 l 311 507 l 57 914 q 43 949 43 938 q 65 968 43 961 q 132 975 88 975 l 189 975 q 272 949 257 975 l 431 690 l 597 949 q 628 970 608 965 q 682 975 647 975 l 736 975 z "},"Y":{"ha":776,"x_min":-8,"x_max":785,"o":"m 697 975 q 785 947 785 975 q 772 913 785 933 l 496 463 l 496 42 q 413 -3 496 -3 l 365 -3 q 282 42 282 -3 l 282 467 l 6 913 q -8 947 -8 936 q 81 975 -8 975 l 140 975 q 224 949 208 975 l 393 651 l 564 949 q 647 975 579 975 l 697 975 z "},"Ý":{"ha":776,"x_min":-8,"x_max":785,"o":"m 0 0 m 697 975 q 785 947 785 975 q 772 913 785 933 l 496 463 l 496 42 q 413 -3 496 -3 l 365 -3 q 282 42 282 -3 l 282 467 l 6 913 q -8 947 -8 936 q 81 975 -8 975 l 140 975 q 224 949 208 975 l 393 651 l 564 949 q 647 975 579 975 l 697 975 m 500 1265 q 563 1261 543 1265 q 583 1246 583 1257 q 575 1227 583 1238 q 532 1179 567 1217 q 439 1079 461 1104 q 402 1054 425 1064 q 335 1044 379 1044 q 301 1049 310 1044 q 292 1065 292 1054 q 301 1089 292 1072 q 325 1131 310 1106 q 382 1228 379 1222 q 500 1265 403 1265 z "},"Ŷ":{"ha":776,"x_min":-8,"x_max":785,"o":"m 0 0 m 697 975 q 785 947 785 975 q 772 913 785 933 l 496 463 l 496 42 q 413 -3 496 -3 l 365 -3 q 282 42 282 -3 l 282 467 l 6 913 q -8 947 -8 936 q 81 975 -8 975 l 140 975 q 224 949 208 975 l 393 651 l 564 949 q 647 975 579 975 l 697 975 m 396 1243 q 451 1238 432 1243 q 481 1217 469 1233 l 571 1075 q 579 1054 579 1063 q 551 1040 579 1040 l 521 1040 q 426 1074 449 1040 l 388 1129 l 349 1075 q 312 1047 335 1054 q 256 1040 289 1040 l 225 1040 q 197 1054 197 1040 q 206 1075 197 1063 l 296 1217 q 326 1238 307 1233 q 381 1243 344 1243 l 396 1243 z "},"Ÿ":{"ha":776,"x_min":-8,"x_max":785,"o":"m 0 0 m 697 975 q 785 947 785 975 q 772 913 785 933 l 496 463 l 496 42 q 413 -3 496 -3 l 365 -3 q 282 42 282 -3 l 282 467 l 6 913 q -8 947 -8 936 q 81 975 -8 975 l 140 975 q 224 949 208 975 l 393 651 l 564 949 q 647 975 579 975 l 697 975 m 264 1221 q 347 1176 347 1221 l 347 1093 q 264 1049 347 1049 q 181 1093 181 1049 l 181 1176 q 264 1221 181 1221 m 514 1221 q 597 1176 597 1221 l 597 1093 q 514 1049 597 1049 q 431 1093 431 1049 l 431 1176 q 514 1221 431 1221 z "},"Ỵ":{"ha":776,"x_min":-8,"x_max":785,"o":"m 0 0 m 697 975 q 785 947 785 975 q 772 913 785 933 l 496 463 l 496 42 q 413 -3 496 -3 l 365 -3 q 282 42 282 -3 l 282 467 l 6 913 q -8 947 -8 936 q 81 975 -8 975 l 140 975 q 224 949 208 975 l 393 651 l 564 949 q 647 975 579 975 l 697 975 m 394 -111 q 478 -156 478 -111 l 478 -239 q 394 -283 478 -283 q 311 -239 311 -283 l 311 -156 q 394 -111 311 -111 z "},"Ỳ":{"ha":776,"x_min":-8,"x_max":785,"o":"m 0 0 m 697 975 q 785 947 785 975 q 772 913 785 933 l 496 463 l 496 42 q 413 -3 496 -3 l 365 -3 q 282 42 282 -3 l 282 467 l 6 913 q -8 947 -8 936 q 81 975 -8 975 l 140 975 q 224 949 208 975 l 393 651 l 564 949 q 647 975 579 975 l 697 975 m 286 1265 q 404 1228 383 1265 q 461 1131 407 1222 q 485 1089 476 1106 q 494 1065 494 1072 q 485 1049 494 1054 q 451 1044 476 1044 q 384 1054 407 1044 q 347 1079 361 1064 q 254 1179 325 1104 q 211 1227 219 1217 q 203 1246 203 1238 q 223 1261 203 1257 q 286 1265 243 1265 z "},"Ỷ":{"ha":776,"x_min":-8,"x_max":785,"o":"m 0 0 m 697 975 q 785 947 785 975 q 772 913 785 933 l 496 463 l 496 42 q 413 -3 496 -3 l 365 -3 q 282 42 282 -3 l 282 467 l 6 913 q -8 947 -8 936 q 81 975 -8 975 l 140 975 q 224 949 208 975 l 393 651 l 564 949 q 647 975 579 975 l 697 975 m 440 1174 q 427 1196 440 1188 q 396 1204 414 1204 q 360 1196 378 1204 q 338 1188 343 1188 q 313 1209 329 1188 q 296 1246 296 1231 q 333 1274 296 1260 q 407 1289 371 1289 q 521 1260 481 1289 q 561 1179 561 1231 q 533 1113 561 1146 q 471 1059 506 1081 q 422 1038 436 1038 q 373 1049 399 1038 q 347 1069 347 1061 q 383 1107 347 1081 q 425 1142 410 1126 q 440 1174 440 1158 z "},"Ỹ":{"ha":776,"x_min":-8,"x_max":785,"o":"m 0 0 m 697 975 q 785 947 785 975 q 772 913 785 933 l 496 463 l 496 42 q 413 -3 496 -3 l 365 -3 q 282 42 282 -3 l 282 467 l 6 913 q -8 947 -8 936 q 81 975 -8 975 l 140 975 q 224 949 208 975 l 393 651 l 564 949 q 647 975 579 975 l 697 975 m 279 1210 q 340 1200 301 1210 q 386 1189 378 1190 q 475 1169 450 1171 q 521 1192 500 1169 q 558 1215 539 1215 q 576 1213 565 1215 l 592 1208 q 624 1171 624 1199 q 619 1151 624 1160 q 564 1083 604 1111 q 468 1054 524 1054 q 408 1064 446 1054 q 361 1075 369 1074 q 272 1094 297 1093 q 226 1072 246 1094 q 189 1049 208 1049 q 171 1051 182 1049 l 156 1056 q 124 1093 124 1065 q 128 1113 124 1104 q 183 1181 143 1153 q 279 1210 224 1210 z "},"Z":{"ha":856,"x_min":38,"x_max":806,"o":"m 754 972 q 788 924 769 972 q 806 844 806 875 q 804 833 806 836 l 340 182 l 764 182 q 796 165 786 182 q 806 113 806 149 l 806 69 q 796 17 806 33 q 764 0 786 0 l 92 0 q 56 47 75 0 q 38 124 38 93 q 40 138 38 132 l 506 790 l 119 790 q 88 807 97 790 q 78 860 78 824 l 78 903 q 88 956 78 939 q 119 972 97 972 l 754 972 z "},"Ź":{"ha":856,"x_min":38,"x_max":806,"o":"m 38 0 m 754 972 q 788 924 769 972 q 806 844 806 875 q 804 833 806 836 l 340 182 l 764 182 q 796 165 786 182 q 806 113 806 149 l 806 69 q 796 17 806 33 q 764 0 786 0 l 92 0 q 56 47 75 0 q 38 124 38 93 q 40 138 38 132 l 506 790 l 119 790 q 88 807 97 790 q 78 860 78 824 l 78 903 q 88 956 78 939 q 119 972 97 972 l 754 972 m 539 1265 q 602 1261 582 1265 q 622 1246 622 1257 q 614 1227 622 1238 q 571 1179 606 1217 q 478 1079 500 1104 q 441 1054 464 1064 q 374 1044 418 1044 q 340 1049 349 1044 q 331 1065 331 1054 q 340 1089 331 1072 q 364 1131 349 1106 q 421 1228 418 1222 q 539 1265 442 1265 z "},"Ž":{"ha":856,"x_min":38,"x_max":806,"o":"m 38 0 m 754 972 q 788 924 769 972 q 806 844 806 875 q 804 833 806 836 l 340 182 l 764 182 q 796 165 786 182 q 806 113 806 149 l 806 69 q 796 17 806 33 q 764 0 786 0 l 92 0 q 56 47 75 0 q 38 124 38 93 q 40 138 38 132 l 506 790 l 119 790 q 88 807 97 790 q 78 860 78 824 l 78 903 q 88 956 78 939 q 119 972 97 972 l 754 972 m 590 1243 q 618 1229 618 1243 q 610 1208 618 1221 l 519 1067 q 490 1045 508 1050 q 435 1040 471 1040 l 419 1040 q 365 1045 383 1040 q 335 1067 346 1050 l 244 1208 q 236 1229 236 1221 q 264 1243 236 1243 l 294 1243 q 351 1236 328 1243 q 388 1208 374 1229 l 426 1154 l 465 1210 q 560 1243 488 1243 l 590 1243 z "},"Ż":{"ha":856,"x_min":38,"x_max":806,"o":"m 38 0 m 754 972 q 788 924 769 972 q 806 844 806 875 q 804 833 806 836 l 340 182 l 764 182 q 796 165 786 182 q 806 113 806 149 l 806 69 q 796 17 806 33 q 764 0 786 0 l 92 0 q 56 47 75 0 q 38 124 38 93 q 40 138 38 132 l 506 790 l 119 790 q 88 807 97 790 q 78 860 78 824 l 78 903 q 88 956 78 939 q 119 972 97 972 l 754 972 m 428 1221 q 511 1176 511 1221 l 511 1093 q 428 1049 511 1049 q 344 1093 344 1049 l 344 1176 q 428 1221 344 1221 z "},"Ẓ":{"ha":856,"x_min":38,"x_max":806,"o":"m 38 0 m 754 972 q 788 924 769 972 q 806 844 806 875 q 804 833 806 836 l 340 182 l 764 182 q 796 165 786 182 q 806 113 806 149 l 806 69 q 796 17 806 33 q 764 0 786 0 l 92 0 q 56 47 75 0 q 38 124 38 93 q 40 138 38 132 l 506 790 l 119 790 q 88 807 97 790 q 78 860 78 824 l 78 903 q 88 956 78 939 q 119 972 97 972 l 754 972 m 418 -111 q 501 -156 501 -111 l 501 -239 q 418 -283 501 -283 q 335 -239 335 -283 l 335 -156 q 418 -111 335 -111 z "},"a":{"ha":757,"x_min":58,"x_max":679,"o":"m 364 738 q 592 676 521 738 q 663 506 663 614 l 663 244 q 666 147 663 181 q 675 74 669 114 q 679 43 679 56 q 623 10 679 21 q 524 -1 567 -1 q 489 19 499 -1 q 474 63 479 39 q 468 94 469 86 q 435 55 460 79 q 365 10 410 31 q 264 -11 321 -11 q 108 44 157 -11 q 58 192 58 100 q 140 376 58 303 q 457 450 221 450 l 457 496 q 431 556 457 536 q 349 575 406 575 q 266 565 301 575 q 203 543 231 556 q 171 531 175 531 q 140 551 157 531 q 111 599 124 572 q 99 642 99 626 q 133 688 99 665 q 229 724 168 710 q 364 738 290 738 m 457 315 q 263 213 263 315 q 281 168 263 185 q 332 151 299 151 q 406 176 371 151 q 457 239 440 201 l 457 315 z "},"á":{"ha":757,"x_min":58,"x_max":679,"o":"m 58 0 m 364 738 q 592 676 521 738 q 663 506 663 614 l 663 244 q 666 147 663 181 q 675 74 669 114 q 679 43 679 56 q 623 10 679 21 q 524 -1 567 -1 q 489 19 499 -1 q 474 63 479 39 q 468 94 469 86 q 435 55 460 79 q 365 10 410 31 q 264 -11 321 -11 q 108 44 157 -11 q 58 192 58 100 q 140 376 58 303 q 457 450 221 450 l 457 496 q 431 556 457 536 q 349 575 406 575 q 266 565 301 575 q 203 543 231 556 q 171 531 175 531 q 140 551 157 531 q 111 599 124 572 q 99 642 99 626 q 133 688 99 665 q 229 724 168 710 q 364 738 290 738 m 457 315 q 263 213 263 315 q 281 168 263 185 q 332 151 299 151 q 406 176 371 151 q 457 239 440 201 l 457 315 m 490 1019 q 553 1015 533 1019 q 574 1000 574 1011 q 565 981 574 992 q 522 933 557 971 q 429 833 451 858 q 392 808 415 818 q 325 799 369 799 q 291 803 300 799 q 282 819 282 808 q 291 843 282 826 q 315 885 300 860 q 372 982 369 976 q 490 1019 393 1019 z "},"ă":{"ha":757,"x_min":58,"x_max":679,"o":"m 58 0 m 364 738 q 592 676 521 738 q 663 506 663 614 l 663 244 q 666 147 663 181 q 675 74 669 114 q 679 43 679 56 q 623 10 679 21 q 524 -1 567 -1 q 489 19 499 -1 q 474 63 479 39 q 468 94 469 86 q 435 55 460 79 q 365 10 410 31 q 264 -11 321 -11 q 108 44 157 -11 q 58 192 58 100 q 140 376 58 303 q 457 450 221 450 l 457 496 q 431 556 457 536 q 349 575 406 575 q 266 565 301 575 q 203 543 231 556 q 171 531 175 531 q 140 551 157 531 q 111 599 124 572 q 99 642 99 626 q 133 688 99 665 q 229 724 168 710 q 364 738 290 738 m 457 315 q 263 213 263 315 q 281 168 263 185 q 332 151 299 151 q 406 176 371 151 q 457 239 440 201 l 457 315 m 535 993 q 571 983 558 993 q 583 954 583 972 q 557 878 583 914 q 484 821 531 843 q 379 799 438 799 q 274 821 321 799 q 201 878 228 843 q 175 954 175 914 q 188 983 175 972 q 224 993 200 993 q 248 988 239 993 q 269 968 257 982 q 310 936 289 947 q 379 925 332 925 q 449 937 428 925 q 492 971 471 949 q 510 988 501 982 q 535 993 519 993 z "},"ắ":{"ha":757,"x_min":58,"x_max":679,"o":"m 58 0 m 364 738 q 592 676 521 738 q 663 506 663 614 l 663 244 q 666 147 663 181 q 675 74 669 114 q 679 43 679 56 q 623 10 679 21 q 524 -1 567 -1 q 489 19 499 -1 q 474 63 479 39 q 468 94 469 86 q 435 55 460 79 q 365 10 410 31 q 264 -11 321 -11 q 108 44 157 -11 q 58 192 58 100 q 140 376 58 303 q 457 450 221 450 l 457 496 q 431 556 457 536 q 349 575 406 575 q 266 565 301 575 q 203 543 231 556 q 171 531 175 531 q 140 551 157 531 q 111 599 124 572 q 99 642 99 626 q 133 688 99 665 q 229 724 168 710 q 364 738 290 738 m 457 315 q 263 213 263 315 q 281 168 263 185 q 332 151 299 151 q 406 176 371 151 q 457 239 440 201 l 457 315 m 535 993 q 571 983 558 993 q 583 954 583 972 q 557 878 583 914 q 484 821 531 843 q 379 799 438 799 q 274 821 321 799 q 201 878 228 843 q 175 954 175 914 q 188 983 175 972 q 224 993 200 993 q 248 988 239 993 q 269 968 257 982 q 310 936 289 947 q 379 925 332 925 q 449 937 428 925 q 492 971 471 949 q 510 988 501 982 q 535 993 519 993 m 490 1246 q 553 1242 533 1246 q 574 1226 574 1238 q 565 1208 574 1218 q 522 1160 557 1197 q 429 1060 451 1085 q 392 1035 415 1044 q 325 1025 369 1025 q 291 1030 300 1025 q 282 1046 282 1035 q 291 1069 282 1053 q 315 1111 300 1086 q 372 1208 369 1203 q 490 1246 393 1246 z "},"ặ":{"ha":757,"x_min":58,"x_max":679,"o":"m 58 0 m 364 738 q 592 676 521 738 q 663 506 663 614 l 663 244 q 666 147 663 181 q 675 74 669 114 q 679 43 679 56 q 623 10 679 21 q 524 -1 567 -1 q 489 19 499 -1 q 474 63 479 39 q 468 94 469 86 q 435 55 460 79 q 365 10 410 31 q 264 -11 321 -11 q 108 44 157 -11 q 58 192 58 100 q 140 376 58 303 q 457 450 221 450 l 457 496 q 431 556 457 536 q 349 575 406 575 q 266 565 301 575 q 203 543 231 556 q 171 531 175 531 q 140 551 157 531 q 111 599 124 572 q 99 642 99 626 q 133 688 99 665 q 229 724 168 710 q 364 738 290 738 m 457 315 q 263 213 263 315 q 281 168 263 185 q 332 151 299 151 q 406 176 371 151 q 457 239 440 201 l 457 315 m 535 993 q 571 983 558 993 q 583 954 583 972 q 557 878 583 914 q 484 821 531 843 q 379 799 438 799 q 274 821 321 799 q 201 878 228 843 q 175 954 175 914 q 188 983 175 972 q 224 993 200 993 q 248 988 239 993 q 269 968 257 982 q 310 936 289 947 q 379 925 332 925 q 449 937 428 925 q 492 971 471 949 q 510 988 501 982 q 535 993 519 993 m 382 -111 q 465 -156 465 -111 l 465 -239 q 382 -283 465 -283 q 299 -239 299 -283 l 299 -156 q 382 -111 299 -111 z "},"ằ":{"ha":757,"x_min":58,"x_max":679,"o":"m 58 0 m 364 738 q 592 676 521 738 q 663 506 663 614 l 663 244 q 666 147 663 181 q 675 74 669 114 q 679 43 679 56 q 623 10 679 21 q 524 -1 567 -1 q 489 19 499 -1 q 474 63 479 39 q 468 94 469 86 q 435 55 460 79 q 365 10 410 31 q 264 -11 321 -11 q 108 44 157 -11 q 58 192 58 100 q 140 376 58 303 q 457 450 221 450 l 457 496 q 431 556 457 536 q 349 575 406 575 q 266 565 301 575 q 203 543 231 556 q 171 531 175 531 q 140 551 157 531 q 111 599 124 572 q 99 642 99 626 q 133 688 99 665 q 229 724 168 710 q 364 738 290 738 m 457 315 q 263 213 263 315 q 281 168 263 185 q 332 151 299 151 q 406 176 371 151 q 457 239 440 201 l 457 315 m 535 993 q 571 983 558 993 q 583 954 583 972 q 557 878 583 914 q 484 821 531 843 q 379 799 438 799 q 274 821 321 799 q 201 878 228 843 q 175 954 175 914 q 188 983 175 972 q 224 993 200 993 q 248 988 239 993 q 269 968 257 982 q 310 936 289 947 q 379 925 332 925 q 449 937 428 925 q 492 971 471 949 q 510 988 501 982 q 535 993 519 993 m 276 1246 q 394 1208 374 1246 q 451 1111 397 1203 q 476 1069 467 1086 q 485 1046 485 1053 q 476 1030 485 1035 q 442 1025 467 1025 q 374 1035 397 1025 q 338 1060 351 1044 q 244 1160 315 1085 q 201 1208 210 1197 q 193 1226 193 1218 q 213 1242 193 1238 q 276 1246 233 1246 z "},"ẳ":{"ha":757,"x_min":58,"x_max":679,"o":"m 58 0 m 364 738 q 592 676 521 738 q 663 506 663 614 l 663 244 q 666 147 663 181 q 675 74 669 114 q 679 43 679 56 q 623 10 679 21 q 524 -1 567 -1 q 489 19 499 -1 q 474 63 479 39 q 468 94 469 86 q 435 55 460 79 q 365 10 410 31 q 264 -11 321 -11 q 108 44 157 -11 q 58 192 58 100 q 140 376 58 303 q 457 450 221 450 l 457 496 q 431 556 457 536 q 349 575 406 575 q 266 565 301 575 q 203 543 231 556 q 171 531 175 531 q 140 551 157 531 q 111 599 124 572 q 99 642 99 626 q 133 688 99 665 q 229 724 168 710 q 364 738 290 738 m 457 315 q 263 213 263 315 q 281 168 263 185 q 332 151 299 151 q 406 176 371 151 q 457 239 440 201 l 457 315 m 535 993 q 571 983 558 993 q 583 954 583 972 q 557 878 583 914 q 484 821 531 843 q 379 799 438 799 q 274 821 321 799 q 201 878 228 843 q 175 954 175 914 q 188 983 175 972 q 224 993 200 993 q 248 988 239 993 q 269 968 257 982 q 310 936 289 947 q 379 925 332 925 q 449 937 428 925 q 492 971 471 949 q 510 988 501 982 q 535 993 519 993 m 431 1154 q 417 1176 431 1168 q 386 1185 404 1185 q 351 1176 368 1185 q 328 1168 333 1168 q 303 1190 319 1168 q 286 1226 286 1211 q 324 1255 286 1240 q 397 1269 361 1269 q 511 1240 471 1269 q 551 1160 551 1211 q 524 1094 551 1126 q 461 1040 496 1061 q 413 1018 426 1018 q 363 1030 389 1018 q 338 1050 338 1042 q 374 1088 338 1061 q 415 1123 400 1107 q 431 1154 431 1139 z "},"ẵ":{"ha":757,"x_min":58,"x_max":679,"o":"m 283 1208 q 339 1199 304 1208 q 381 1188 374 1189 q 461 1168 436 1169 q 503 1190 485 1168 q 538 1214 521 1214 q 554 1211 543 1214 l 568 1207 q 596 1169 596 1197 q 593 1150 596 1156 q 543 1081 579 1110 q 456 1053 507 1053 q 400 1063 435 1053 q 358 1074 365 1072 q 278 1093 303 1092 q 236 1071 254 1093 q 201 1047 218 1047 q 185 1050 196 1047 l 171 1054 q 143 1092 143 1064 q 146 1111 143 1106 q 196 1180 160 1151 q 283 1208 232 1208 m 535 993 q 571 983 558 993 q 583 954 583 972 q 557 878 583 914 q 484 821 531 843 q 379 799 438 799 q 274 821 321 799 q 201 878 228 843 q 175 954 175 914 q 188 983 175 972 q 224 993 200 993 q 248 988 239 993 q 269 968 257 982 q 310 936 289 947 q 379 925 332 925 q 449 937 428 925 q 492 971 471 949 q 510 988 501 982 q 535 993 519 993 m 364 738 q 592 676 521 738 q 663 506 663 614 l 663 244 q 666 147 663 181 q 675 74 669 114 q 679 43 679 56 q 623 10 679 21 q 524 -1 567 -1 q 489 19 499 -1 q 474 63 479 39 q 468 94 469 86 q 435 55 460 79 q 365 10 410 31 q 264 -11 321 -11 q 108 44 157 -11 q 58 192 58 100 q 140 376 58 303 q 457 450 221 450 l 457 496 q 431 556 457 536 q 349 575 406 575 q 266 565 301 575 q 203 543 231 556 q 171 531 175 531 q 140 551 157 531 q 111 599 124 572 q 99 642 99 626 q 133 688 99 665 q 229 724 168 710 q 364 738 290 738 m 457 315 q 263 213 263 315 q 281 168 263 185 q 332 151 299 151 q 406 176 371 151 q 457 239 440 201 l 457 315 z "},"â":{"ha":757,"x_min":58,"x_max":679,"o":"m 58 0 m 364 738 q 592 676 521 738 q 663 506 663 614 l 663 244 q 666 147 663 181 q 675 74 669 114 q 679 43 679 56 q 623 10 679 21 q 524 -1 567 -1 q 489 19 499 -1 q 474 63 479 39 q 468 94 469 86 q 435 55 460 79 q 365 10 410 31 q 264 -11 321 -11 q 108 44 157 -11 q 58 192 58 100 q 140 376 58 303 q 457 450 221 450 l 457 496 q 431 556 457 536 q 349 575 406 575 q 266 565 301 575 q 203 543 231 556 q 171 531 175 531 q 140 551 157 531 q 111 599 124 572 q 99 642 99 626 q 133 688 99 665 q 229 724 168 710 q 364 738 290 738 m 457 315 q 263 213 263 315 q 281 168 263 185 q 332 151 299 151 q 406 176 371 151 q 457 239 440 201 l 457 315 m 386 997 q 441 992 422 997 q 471 971 460 988 l 561 829 q 569 808 569 817 q 542 794 569 794 l 511 794 q 417 828 439 794 l 378 883 l 339 829 q 302 801 325 808 q 246 794 279 794 l 215 794 q 188 808 188 794 q 196 829 188 817 l 286 971 q 316 992 297 988 q 371 997 335 997 l 386 997 z "},"ấ":{"ha":757,"x_min":58,"x_max":760,"o":"m 676 1199 q 740 1194 719 1199 q 760 1179 760 1190 q 751 1160 760 1171 q 708 1113 743 1150 q 615 1013 638 1038 q 578 988 601 997 q 511 978 556 978 q 477 983 486 978 q 468 999 468 988 q 477 1022 468 1006 q 501 1064 486 1039 q 558 1161 556 1156 q 676 1199 579 1199 m 388 997 q 433 992 417 997 q 458 971 449 988 l 542 829 q 550 808 550 817 q 522 794 550 794 l 492 794 q 429 801 454 794 q 397 828 404 808 l 379 883 l 340 829 q 303 801 326 808 q 247 794 281 794 l 217 794 q 189 808 189 794 q 197 829 189 817 l 288 971 q 317 992 299 988 q 372 997 336 997 l 388 997 m 364 738 q 592 676 521 738 q 663 506 663 614 l 663 244 q 666 147 663 181 q 675 74 669 114 q 679 43 679 56 q 623 10 679 21 q 524 -1 567 -1 q 489 19 499 -1 q 474 63 479 39 q 468 94 469 86 q 435 55 460 79 q 365 10 410 31 q 264 -11 321 -11 q 108 44 157 -11 q 58 192 58 100 q 140 376 58 303 q 457 450 221 450 l 457 496 q 431 556 457 536 q 349 575 406 575 q 266 565 301 575 q 203 543 231 556 q 171 531 175 531 q 140 551 157 531 q 111 599 124 572 q 99 642 99 626 q 133 688 99 665 q 229 724 168 710 q 364 738 290 738 m 457 315 q 263 213 263 315 q 281 168 263 185 q 332 151 299 151 q 406 176 371 151 q 457 239 440 201 l 457 315 z "},"ậ":{"ha":757,"x_min":58,"x_max":679,"o":"m 58 0 m 364 738 q 592 676 521 738 q 663 506 663 614 l 663 244 q 666 147 663 181 q 675 74 669 114 q 679 43 679 56 q 623 10 679 21 q 524 -1 567 -1 q 489 19 499 -1 q 474 63 479 39 q 468 94 469 86 q 435 55 460 79 q 365 10 410 31 q 264 -11 321 -11 q 108 44 157 -11 q 58 192 58 100 q 140 376 58 303 q 457 450 221 450 l 457 496 q 431 556 457 536 q 349 575 406 575 q 266 565 301 575 q 203 543 231 556 q 171 531 175 531 q 140 551 157 531 q 111 599 124 572 q 99 642 99 626 q 133 688 99 665 q 229 724 168 710 q 364 738 290 738 m 457 315 q 263 213 263 315 q 281 168 263 185 q 332 151 299 151 q 406 176 371 151 q 457 239 440 201 l 457 315 m 386 997 q 441 992 422 997 q 471 971 460 988 l 561 829 q 569 808 569 817 q 542 794 569 794 l 511 794 q 417 828 439 794 l 378 883 l 339 829 q 302 801 325 808 q 246 794 279 794 l 215 794 q 188 808 188 794 q 196 829 188 817 l 286 971 q 316 992 297 988 q 371 997 335 997 l 386 997 m 382 -111 q 465 -156 465 -111 l 465 -239 q 382 -283 465 -283 q 299 -239 299 -283 l 299 -156 q 382 -111 299 -111 z "},"ầ":{"ha":757,"x_min":58,"x_max":679,"o":"m 463 1199 q 581 1161 560 1199 q 638 1064 583 1156 q 662 1022 653 1039 q 671 999 671 1006 q 662 983 671 988 q 628 978 653 978 q 560 988 583 978 q 524 1013 538 997 q 431 1113 501 1038 q 388 1160 396 1150 q 379 1179 379 1171 q 399 1194 379 1190 q 463 1199 419 1199 m 388 997 q 433 992 417 997 q 458 971 449 988 l 542 829 q 550 808 550 817 q 522 794 550 794 l 492 794 q 429 801 454 794 q 397 828 404 808 l 379 883 l 340 829 q 303 801 326 808 q 247 794 281 794 l 217 794 q 189 808 189 794 q 197 829 189 817 l 288 971 q 317 992 299 988 q 372 997 336 997 l 388 997 m 364 738 q 592 676 521 738 q 663 506 663 614 l 663 244 q 666 147 663 181 q 675 74 669 114 q 679 43 679 56 q 623 10 679 21 q 524 -1 567 -1 q 489 19 499 -1 q 474 63 479 39 q 468 94 469 86 q 435 55 460 79 q 365 10 410 31 q 264 -11 321 -11 q 108 44 157 -11 q 58 192 58 100 q 140 376 58 303 q 457 450 221 450 l 457 496 q 431 556 457 536 q 349 575 406 575 q 266 565 301 575 q 203 543 231 556 q 171 531 175 531 q 140 551 157 531 q 111 599 124 572 q 99 642 99 626 q 133 688 99 665 q 229 724 168 710 q 364 738 290 738 m 457 315 q 263 213 263 315 q 281 168 263 185 q 332 151 299 151 q 406 176 371 151 q 457 239 440 201 l 457 315 z "},"ẩ":{"ha":757,"x_min":58,"x_max":738,"o":"m 617 1107 q 603 1129 617 1121 q 572 1138 590 1138 q 537 1129 554 1138 q 514 1121 519 1121 q 489 1142 506 1121 q 472 1179 472 1164 q 510 1208 472 1193 q 583 1222 547 1222 q 697 1193 657 1222 q 738 1113 738 1164 q 710 1047 738 1079 q 647 992 682 1014 q 599 971 613 971 q 549 983 575 971 q 524 1003 524 994 q 560 1040 524 1014 q 601 1076 586 1060 q 617 1107 617 1092 m 388 997 q 433 992 417 997 q 458 971 449 988 l 542 829 q 550 808 550 817 q 522 794 550 794 l 492 794 q 429 801 454 794 q 397 828 404 808 l 379 883 l 340 829 q 303 801 326 808 q 247 794 281 794 l 217 794 q 189 808 189 794 q 197 829 189 817 l 288 971 q 317 992 299 988 q 372 997 336 997 l 388 997 m 364 738 q 592 676 521 738 q 663 506 663 614 l 663 244 q 666 147 663 181 q 675 74 669 114 q 679 43 679 56 q 623 10 679 21 q 524 -1 567 -1 q 489 19 499 -1 q 474 63 479 39 q 468 94 469 86 q 435 55 460 79 q 365 10 410 31 q 264 -11 321 -11 q 108 44 157 -11 q 58 192 58 100 q 140 376 58 303 q 457 450 221 450 l 457 496 q 431 556 457 536 q 349 575 406 575 q 266 565 301 575 q 203 543 231 556 q 171 531 175 531 q 140 551 157 531 q 111 599 124 572 q 99 642 99 626 q 133 688 99 665 q 229 724 168 710 q 364 738 290 738 m 457 315 q 263 213 263 315 q 281 168 263 185 q 332 151 299 151 q 406 176 371 151 q 457 239 440 201 l 457 315 z "},"ẫ":{"ha":757,"x_min":58,"x_max":679,"o":"m 296 1208 q 351 1199 317 1208 q 393 1188 386 1189 q 474 1168 449 1169 q 515 1190 497 1168 q 550 1214 533 1214 q 567 1211 556 1214 l 581 1207 q 608 1169 608 1197 q 606 1150 608 1156 q 556 1081 592 1110 q 468 1053 519 1053 q 413 1063 447 1053 q 371 1074 378 1072 q 290 1093 315 1092 q 249 1071 267 1093 q 214 1047 231 1047 q 197 1050 208 1047 l 183 1054 q 156 1092 156 1064 q 158 1111 156 1106 q 208 1180 172 1151 q 296 1208 244 1208 m 388 997 q 442 992 424 997 q 472 971 461 988 l 563 829 q 571 808 571 817 q 543 794 571 794 l 513 794 q 418 828 440 794 l 379 883 l 340 829 q 303 801 326 808 q 247 794 281 794 l 217 794 q 189 808 189 794 q 197 829 189 817 l 288 971 q 317 992 299 988 q 372 997 336 997 l 388 997 m 364 738 q 592 676 521 738 q 663 506 663 614 l 663 244 q 666 147 663 181 q 675 74 669 114 q 679 43 679 56 q 623 10 679 21 q 524 -1 567 -1 q 489 19 499 -1 q 474 63 479 39 q 468 94 469 86 q 435 55 460 79 q 365 10 410 31 q 264 -11 321 -11 q 108 44 157 -11 q 58 192 58 100 q 140 376 58 303 q 457 450 221 450 l 457 496 q 431 556 457 536 q 349 575 406 575 q 266 565 301 575 q 203 543 231 556 q 171 531 175 531 q 140 551 157 531 q 111 599 124 572 q 99 642 99 626 q 133 688 99 665 q 229 724 168 710 q 364 738 290 738 m 457 315 q 263 213 263 315 q 281 168 263 185 q 332 151 299 151 q 406 176 371 151 q 457 239 440 201 l 457 315 z "},"ä":{"ha":757,"x_min":58,"x_max":679,"o":"m 58 0 m 364 738 q 592 676 521 738 q 663 506 663 614 l 663 244 q 666 147 663 181 q 675 74 669 114 q 679 43 679 56 q 623 10 679 21 q 524 -1 567 -1 q 489 19 499 -1 q 474 63 479 39 q 468 94 469 86 q 435 55 460 79 q 365 10 410 31 q 264 -11 321 -11 q 108 44 157 -11 q 58 192 58 100 q 140 376 58 303 q 457 450 221 450 l 457 496 q 431 556 457 536 q 349 575 406 575 q 266 565 301 575 q 203 543 231 556 q 171 531 175 531 q 140 551 157 531 q 111 599 124 572 q 99 642 99 626 q 133 688 99 665 q 229 724 168 710 q 364 738 290 738 m 457 315 q 263 213 263 315 q 281 168 263 185 q 332 151 299 151 q 406 176 371 151 q 457 239 440 201 l 457 315 m 254 975 q 338 931 338 975 l 338 847 q 254 803 338 803 q 171 847 171 803 l 171 931 q 254 975 171 975 m 504 975 q 588 931 588 975 l 588 847 q 504 803 588 803 q 421 847 421 803 l 421 931 q 504 975 421 975 z "},"ạ":{"ha":757,"x_min":58,"x_max":679,"o":"m 58 0 m 364 738 q 592 676 521 738 q 663 506 663 614 l 663 244 q 666 147 663 181 q 675 74 669 114 q 679 43 679 56 q 623 10 679 21 q 524 -1 567 -1 q 489 19 499 -1 q 474 63 479 39 q 468 94 469 86 q 435 55 460 79 q 365 10 410 31 q 264 -11 321 -11 q 108 44 157 -11 q 58 192 58 100 q 140 376 58 303 q 457 450 221 450 l 457 496 q 431 556 457 536 q 349 575 406 575 q 266 565 301 575 q 203 543 231 556 q 171 531 175 531 q 140 551 157 531 q 111 599 124 572 q 99 642 99 626 q 133 688 99 665 q 229 724 168 710 q 364 738 290 738 m 457 315 q 263 213 263 315 q 281 168 263 185 q 332 151 299 151 q 406 176 371 151 q 457 239 440 201 l 457 315 m 382 -111 q 465 -156 465 -111 l 465 -239 q 382 -283 465 -283 q 299 -239 299 -283 l 299 -156 q 382 -111 299 -111 z "},"à":{"ha":757,"x_min":58,"x_max":679,"o":"m 58 0 m 364 738 q 592 676 521 738 q 663 506 663 614 l 663 244 q 666 147 663 181 q 675 74 669 114 q 679 43 679 56 q 623 10 679 21 q 524 -1 567 -1 q 489 19 499 -1 q 474 63 479 39 q 468 94 469 86 q 435 55 460 79 q 365 10 410 31 q 264 -11 321 -11 q 108 44 157 -11 q 58 192 58 100 q 140 376 58 303 q 457 450 221 450 l 457 496 q 431 556 457 536 q 349 575 406 575 q 266 565 301 575 q 203 543 231 556 q 171 531 175 531 q 140 551 157 531 q 111 599 124 572 q 99 642 99 626 q 133 688 99 665 q 229 724 168 710 q 364 738 290 738 m 457 315 q 263 213 263 315 q 281 168 263 185 q 332 151 299 151 q 406 176 371 151 q 457 239 440 201 l 457 315 m 276 1019 q 394 982 374 1019 q 451 885 397 976 q 476 843 467 860 q 485 819 485 826 q 476 803 485 808 q 442 799 467 799 q 374 808 397 799 q 338 833 351 818 q 244 933 315 858 q 201 981 210 971 q 193 1000 193 992 q 213 1015 193 1011 q 276 1019 233 1019 z "},"ả":{"ha":757,"x_min":58,"x_max":679,"o":"m 58 0 m 364 738 q 592 676 521 738 q 663 506 663 614 l 663 244 q 666 147 663 181 q 675 74 669 114 q 679 43 679 56 q 623 10 679 21 q 524 -1 567 -1 q 489 19 499 -1 q 474 63 479 39 q 468 94 469 86 q 435 55 460 79 q 365 10 410 31 q 264 -11 321 -11 q 108 44 157 -11 q 58 192 58 100 q 140 376 58 303 q 457 450 221 450 l 457 496 q 431 556 457 536 q 349 575 406 575 q 266 565 301 575 q 203 543 231 556 q 171 531 175 531 q 140 551 157 531 q 111 599 124 572 q 99 642 99 626 q 133 688 99 665 q 229 724 168 710 q 364 738 290 738 m 457 315 q 263 213 263 315 q 281 168 263 185 q 332 151 299 151 q 406 176 371 151 q 457 239 440 201 l 457 315 m 431 928 q 417 950 431 942 q 386 958 404 958 q 351 950 368 958 q 328 942 333 942 q 303 963 319 942 q 286 1000 286 985 q 324 1028 286 1014 q 397 1043 361 1043 q 511 1014 471 1043 q 551 933 551 985 q 524 867 551 900 q 461 813 496 835 q 413 792 426 792 q 363 803 389 792 q 338 824 338 815 q 374 861 338 835 q 415 897 400 881 q 431 928 431 913 z "},"ā":{"ha":757,"x_min":58,"x_max":679,"o":"m 58 0 m 364 738 q 592 676 521 738 q 663 506 663 614 l 663 244 q 666 147 663 181 q 675 74 669 114 q 679 43 679 56 q 623 10 679 21 q 524 -1 567 -1 q 489 19 499 -1 q 474 63 479 39 q 468 94 469 86 q 435 55 460 79 q 365 10 410 31 q 264 -11 321 -11 q 108 44 157 -11 q 58 192 58 100 q 140 376 58 303 q 457 450 221 450 l 457 496 q 431 556 457 536 q 349 575 406 575 q 266 565 301 575 q 203 543 231 556 q 171 531 175 531 q 140 551 157 531 q 111 599 124 572 q 99 642 99 626 q 133 688 99 665 q 229 724 168 710 q 364 738 290 738 m 457 315 q 263 213 263 315 q 281 168 263 185 q 332 151 299 151 q 406 176 371 151 q 457 239 440 201 l 457 315 m 528 961 q 560 948 550 961 q 569 906 569 935 l 569 885 q 560 842 569 856 q 528 829 550 829 l 229 829 q 197 842 207 829 q 188 885 188 856 l 188 906 q 197 948 188 935 q 229 961 207 961 l 528 961 z "},"ą":{"ha":757,"x_min":58,"x_max":839,"o":"m 808 -103 q 839 -142 839 -103 q 725 -211 839 -211 q 594 -165 628 -211 q 561 -69 561 -119 q 572 1 561 -33 l 524 -1 q 489 19 499 -1 q 474 63 479 39 q 468 94 469 86 q 435 55 460 79 q 365 10 410 31 q 264 -11 321 -11 q 108 44 157 -11 q 58 192 58 100 q 140 376 58 303 q 457 450 221 450 l 457 496 q 431 556 457 536 q 349 575 406 575 q 266 565 301 575 q 203 543 231 556 q 171 531 175 531 q 140 551 157 531 q 111 599 124 572 q 99 642 99 626 q 133 688 99 665 q 229 724 168 710 q 364 738 290 738 q 592 676 521 738 q 663 506 663 614 l 663 244 q 666 147 663 181 q 675 74 669 114 q 679 43 679 56 q 668 28 679 35 q 660 -1 667 18 q 654 -43 654 -19 q 679 -101 654 -87 q 740 -114 704 -114 q 781 -108 758 -114 q 808 -103 797 -103 m 457 315 q 263 213 263 315 q 281 168 263 185 q 332 151 299 151 q 406 176 371 151 q 457 239 440 201 l 457 315 z "},"å":{"ha":757,"x_min":58,"x_max":679,"o":"m 58 0 m 364 738 q 592 676 521 738 q 663 506 663 614 l 663 244 q 666 147 663 181 q 675 74 669 114 q 679 43 679 56 q 623 10 679 21 q 524 -1 567 -1 q 489 19 499 -1 q 474 63 479 39 q 468 94 469 86 q 435 55 460 79 q 365 10 410 31 q 264 -11 321 -11 q 108 44 157 -11 q 58 192 58 100 q 140 376 58 303 q 457 450 221 450 l 457 496 q 431 556 457 536 q 349 575 406 575 q 266 565 301 575 q 203 543 231 556 q 171 531 175 531 q 140 551 157 531 q 111 599 124 572 q 99 642 99 626 q 133 688 99 665 q 229 724 168 710 q 364 738 290 738 m 457 315 q 263 213 263 315 q 281 168 263 185 q 332 151 299 151 q 406 176 371 151 q 457 239 440 201 l 457 315 m 378 1040 q 476 1000 436 1040 q 517 901 517 960 q 476 803 517 843 q 378 764 436 764 q 280 803 319 764 q 240 901 240 843 q 280 1000 240 960 q 378 1040 319 1040 m 378 951 q 342 936 357 951 q 328 900 328 921 q 342 865 328 879 q 378 850 357 850 q 414 865 399 850 q 429 900 429 879 q 414 936 429 921 q 378 951 399 951 z "},"ǻ":{"ha":757,"x_min":58,"x_max":679,"o":"m 58 0 m 364 738 q 592 676 521 738 q 663 506 663 614 l 663 244 q 666 147 663 181 q 675 74 669 114 q 679 43 679 56 q 623 10 679 21 q 524 -1 567 -1 q 489 19 499 -1 q 474 63 479 39 q 468 94 469 86 q 435 55 460 79 q 365 10 410 31 q 264 -11 321 -11 q 108 44 157 -11 q 58 192 58 100 q 140 376 58 303 q 457 450 221 450 l 457 496 q 431 556 457 536 q 349 575 406 575 q 266 565 301 575 q 203 543 231 556 q 171 531 175 531 q 140 551 157 531 q 111 599 124 572 q 99 642 99 626 q 133 688 99 665 q 229 724 168 710 q 364 738 290 738 m 457 315 q 263 213 263 315 q 281 168 263 185 q 332 151 299 151 q 406 176 371 151 q 457 239 440 201 l 457 315 m 378 1040 q 476 1000 436 1040 q 517 901 517 960 q 476 803 517 843 q 378 764 436 764 q 280 803 319 764 q 240 901 240 843 q 280 1000 240 960 q 378 1040 319 1040 m 378 951 q 342 936 357 951 q 328 900 328 921 q 342 865 328 879 q 378 850 357 850 q 414 865 399 850 q 429 900 429 879 q 414 936 429 921 q 378 951 399 951 m 532 1283 q 595 1279 575 1283 q 615 1264 615 1275 q 607 1245 615 1256 q 564 1197 599 1235 q 471 1097 493 1122 q 434 1072 457 1082 q 367 1063 411 1063 q 333 1067 342 1063 q 324 1083 324 1072 q 333 1107 324 1090 q 357 1149 342 1124 q 414 1246 411 1240 q 532 1283 435 1283 z "},"ã":{"ha":757,"x_min":58,"x_max":679,"o":"m 58 0 m 364 738 q 592 676 521 738 q 663 506 663 614 l 663 244 q 666 147 663 181 q 675 74 669 114 q 679 43 679 56 q 623 10 679 21 q 524 -1 567 -1 q 489 19 499 -1 q 474 63 479 39 q 468 94 469 86 q 435 55 460 79 q 365 10 410 31 q 264 -11 321 -11 q 108 44 157 -11 q 58 192 58 100 q 140 376 58 303 q 457 450 221 450 l 457 496 q 431 556 457 536 q 349 575 406 575 q 266 565 301 575 q 203 543 231 556 q 171 531 175 531 q 140 551 157 531 q 111 599 124 572 q 99 642 99 626 q 133 688 99 665 q 229 724 168 710 q 364 738 290 738 m 457 315 q 263 213 263 315 q 281 168 263 185 q 332 151 299 151 q 406 176 371 151 q 457 239 440 201 l 457 315 m 269 964 q 330 954 292 964 q 376 943 368 944 q 465 924 440 925 q 511 946 490 924 q 549 969 529 969 q 567 967 556 969 l 582 963 q 614 925 614 953 q 610 906 614 914 q 554 837 594 865 q 458 808 514 808 q 398 818 436 808 q 351 829 360 828 q 263 849 288 847 q 217 826 236 849 q 179 803 199 803 q 161 806 172 803 l 146 810 q 114 847 114 819 q 118 867 114 858 q 174 935 133 907 q 269 964 214 964 z "},"æ":{"ha":1151,"x_min":57,"x_max":1083,"o":"m 783 738 q 1011 643 939 738 q 1083 393 1083 549 q 1056 343 1083 375 q 1015 311 1029 311 l 661 311 q 706 189 661 226 q 818 151 750 151 q 889 160 857 151 q 956 183 921 169 q 986 194 978 194 q 1017 174 1000 194 q 1047 128 1035 154 q 1058 89 1058 103 q 1015 34 1058 57 q 913 0 972 11 q 808 -11 853 -11 q 538 83 632 -11 q 438 19 504 50 q 288 -11 372 -11 q 118 46 179 -11 q 57 192 57 103 q 138 374 57 301 q 451 449 218 447 q 472 538 457 497 q 347 575 443 575 q 207 542 288 575 q 169 531 174 531 q 139 551 156 531 q 110 599 122 572 q 97 642 97 626 q 132 688 97 665 q 228 724 167 710 q 363 738 289 738 q 586 688 513 738 q 783 738 668 738 m 783 575 q 658 449 678 575 l 883 449 q 856 542 883 508 q 783 575 829 575 m 447 313 q 261 213 261 311 q 279 168 261 185 q 331 151 297 151 q 407 169 369 151 q 464 217 444 186 q 447 313 451 261 z "},"ǽ":{"ha":1151,"x_min":57,"x_max":1083,"o":"m 57 0 m 783 738 q 1011 643 939 738 q 1083 393 1083 549 q 1056 343 1083 375 q 1015 311 1029 311 l 661 311 q 706 189 661 226 q 818 151 750 151 q 889 160 857 151 q 956 183 921 169 q 986 194 978 194 q 1017 174 1000 194 q 1047 128 1035 154 q 1058 89 1058 103 q 1015 34 1058 57 q 913 0 972 11 q 808 -11 853 -11 q 538 83 632 -11 q 438 19 504 50 q 288 -11 372 -11 q 118 46 179 -11 q 57 192 57 103 q 138 374 57 301 q 451 449 218 447 q 472 538 457 497 q 347 575 443 575 q 207 542 288 575 q 169 531 174 531 q 139 551 156 531 q 110 599 122 572 q 97 642 97 626 q 132 688 97 665 q 228 724 167 710 q 363 738 289 738 q 586 688 513 738 q 783 738 668 738 m 783 575 q 658 449 678 575 l 883 449 q 856 542 883 508 q 783 575 829 575 m 447 313 q 261 213 261 311 q 279 168 261 185 q 331 151 297 151 q 407 169 369 151 q 464 217 444 186 q 447 313 451 261 m 688 1019 q 751 1015 731 1019 q 771 1000 771 1011 q 763 981 771 992 q 719 933 754 971 q 626 833 649 858 q 590 808 613 818 q 522 799 567 799 q 488 803 497 799 q 479 819 479 808 q 488 843 479 826 q 513 885 497 860 q 569 982 567 976 q 688 1019 590 1019 z "},"b":{"ha":790,"x_min":92,"x_max":732,"o":"m 214 1047 q 297 1003 297 1047 l 297 694 q 439 738 357 738 q 655 637 578 738 q 732 364 732 536 q 699 161 732 246 q 606 33 665 76 q 472 -11 547 -11 q 360 18 410 -11 q 286 93 311 47 q 272 33 276 49 q 247 5 267 13 q 192 -3 228 -3 l 175 -3 q 92 42 92 -3 l 92 1003 q 175 1047 92 1047 l 214 1047 m 394 575 q 297 549 344 575 l 297 239 q 411 157 344 157 q 524 364 524 157 q 394 575 524 575 z "},"c":{"ha":674,"x_min":58,"x_max":651,"o":"m 415 738 q 573 712 500 738 q 646 642 646 686 q 617 578 646 621 q 572 535 589 535 q 547 544 567 535 q 492 567 519 558 q 426 575 465 575 q 307 524 344 575 q 269 364 269 472 q 305 203 269 256 q 418 151 340 151 q 554 183 486 151 q 579 192 576 192 q 610 172 593 192 q 640 126 628 151 q 651 86 651 100 q 605 29 651 51 q 500 -2 558 7 q 408 -11 442 -11 q 144 80 231 -11 q 58 358 58 171 q 145 642 58 547 q 415 738 232 738 z "},"ć":{"ha":674,"x_min":58,"x_max":651,"o":"m 58 0 m 415 738 q 573 712 500 738 q 646 642 646 686 q 617 578 646 621 q 572 535 589 535 q 547 544 567 535 q 492 567 519 558 q 426 575 465 575 q 307 524 344 575 q 269 364 269 472 q 305 203 269 256 q 418 151 340 151 q 554 183 486 151 q 579 192 576 192 q 610 172 593 192 q 640 126 628 151 q 651 86 651 100 q 605 29 651 51 q 500 -2 558 7 q 408 -11 442 -11 q 144 80 231 -11 q 58 358 58 171 q 145 642 58 547 q 415 738 232 738 m 493 1019 q 556 1015 536 1019 q 576 1000 576 1011 q 568 981 576 992 q 525 933 560 971 q 432 833 454 858 q 395 808 418 818 q 328 799 372 799 q 294 803 303 799 q 285 819 285 808 q 294 843 285 826 q 318 885 303 860 q 375 982 372 976 q 493 1019 396 1019 z "},"č":{"ha":674,"x_min":58,"x_max":651,"o":"m 58 0 m 415 738 q 573 712 500 738 q 646 642 646 686 q 617 578 646 621 q 572 535 589 535 q 547 544 567 535 q 492 567 519 558 q 426 575 465 575 q 307 524 344 575 q 269 364 269 472 q 305 203 269 256 q 418 151 340 151 q 554 183 486 151 q 579 192 576 192 q 610 172 593 192 q 640 126 628 151 q 651 86 651 100 q 605 29 651 51 q 500 -2 558 7 q 408 -11 442 -11 q 144 80 231 -11 q 58 358 58 171 q 145 642 58 547 q 415 738 232 738 m 544 997 q 572 983 572 997 q 564 963 572 975 l 474 821 q 444 799 463 804 q 389 794 425 794 l 374 794 q 319 799 338 794 q 289 821 300 804 l 199 963 q 190 983 190 975 q 218 997 190 997 l 249 997 q 305 990 282 997 q 342 963 328 983 l 381 908 l 419 964 q 514 997 442 997 l 544 997 z "},"ç":{"ha":674,"x_min":58,"x_max":651,"o":"m 651 86 q 588 22 651 44 q 450 -8 525 -1 l 439 -50 q 514 -81 482 -56 q 546 -156 546 -107 q 381 -294 546 -294 q 257 -275 315 -294 q 199 -225 199 -256 q 215 -179 199 -194 q 243 -164 231 -164 q 288 -175 254 -164 q 369 -193 336 -193 q 403 -169 403 -193 q 394 -150 403 -157 q 365 -135 385 -143 q 339 -121 349 -128 q 329 -103 329 -114 q 357 -8 329 -94 q 132 95 206 4 q 58 358 58 186 q 145 642 58 547 q 415 738 232 738 q 573 712 500 738 q 646 642 646 686 q 617 578 646 621 q 572 535 589 535 q 547 544 567 535 q 492 567 519 558 q 426 575 465 575 q 307 524 344 575 q 269 364 269 472 q 305 203 269 256 q 418 151 340 151 q 554 183 486 151 q 579 192 576 192 q 610 172 593 192 q 640 126 628 151 q 651 86 651 100 z "},"ĉ":{"ha":674,"x_min":58,"x_max":651,"o":"m 58 0 m 415 738 q 573 712 500 738 q 646 642 646 686 q 617 578 646 621 q 572 535 589 535 q 547 544 567 535 q 492 567 519 558 q 426 575 465 575 q 307 524 344 575 q 269 364 269 472 q 305 203 269 256 q 418 151 340 151 q 554 183 486 151 q 579 192 576 192 q 610 172 593 192 q 640 126 628 151 q 651 86 651 100 q 605 29 651 51 q 500 -2 558 7 q 408 -11 442 -11 q 144 80 231 -11 q 58 358 58 171 q 145 642 58 547 q 415 738 232 738 m 389 997 q 444 992 425 997 q 474 971 463 988 l 564 829 q 572 808 572 817 q 544 794 572 794 l 514 794 q 419 828 442 794 l 381 883 l 342 829 q 305 801 328 808 q 249 794 282 794 l 218 794 q 190 808 190 794 q 199 829 190 817 l 289 971 q 319 992 300 988 q 374 997 338 997 l 389 997 z "},"ċ":{"ha":674,"x_min":58,"x_max":651,"o":"m 58 0 m 415 738 q 573 712 500 738 q 646 642 646 686 q 617 578 646 621 q 572 535 589 535 q 547 544 567 535 q 492 567 519 558 q 426 575 465 575 q 307 524 344 575 q 269 364 269 472 q 305 203 269 256 q 418 151 340 151 q 554 183 486 151 q 579 192 576 192 q 610 172 593 192 q 640 126 628 151 q 651 86 651 100 q 605 29 651 51 q 500 -2 558 7 q 408 -11 442 -11 q 144 80 231 -11 q 58 358 58 171 q 145 642 58 547 q 415 738 232 738 m 382 975 q 465 931 465 975 l 465 847 q 382 803 465 803 q 299 847 299 803 l 299 931 q 382 975 299 975 z "},"d":{"ha":785,"x_min":58,"x_max":715,"o":"m 615 1047 q 699 1003 699 1047 l 699 244 q 702 147 699 181 q 711 74 706 114 q 715 43 715 56 q 659 10 715 21 q 560 -1 603 -1 q 525 19 535 -1 q 510 62 515 39 q 504 93 506 85 q 430 18 479 47 q 318 -11 381 -11 q 184 33 243 -11 q 92 161 125 76 q 58 364 58 246 q 135 637 58 536 q 351 738 213 738 q 493 694 433 738 l 493 1003 q 576 1047 493 1047 l 615 1047 m 396 575 q 267 364 267 575 q 379 157 267 157 q 493 239 446 157 l 493 549 q 396 575 446 575 z "},"ð":{"ha":790,"x_min":58,"x_max":732,"o":"m 432 993 q 485 978 461 993 q 540 918 506 963 l 635 931 q 669 912 653 931 q 686 872 686 893 q 657 850 686 854 l 593 842 q 692 624 651 753 q 732 364 732 496 q 647 85 732 182 q 396 -11 561 -11 q 144 85 231 -11 q 58 364 58 182 q 144 642 58 546 q 396 738 231 738 q 467 732 422 738 q 422 818 450 769 q 338 807 346 807 q 300 825 317 807 q 283 865 283 843 q 313 888 283 883 l 372 896 l 353 921 q 319 967 319 957 q 346 983 319 979 l 432 993 m 396 575 q 299 522 331 575 q 267 364 267 469 q 396 151 267 151 q 492 205 461 151 q 524 364 524 258 q 492 522 524 469 q 396 575 461 575 z "},"ď":{"ha":785,"x_min":58,"x_max":950,"o":"m 58 0 m 615 1047 q 699 1003 699 1047 l 699 244 q 702 147 699 181 q 711 74 706 114 q 715 43 715 56 q 659 10 715 21 q 560 -1 603 -1 q 525 19 535 -1 q 510 62 515 39 q 504 93 506 85 q 430 18 479 47 q 318 -11 381 -11 q 184 33 243 -11 q 92 161 125 76 q 58 364 58 246 q 135 637 58 536 q 351 738 213 738 q 493 694 433 738 l 493 1003 q 576 1047 493 1047 l 615 1047 m 396 575 q 267 364 267 575 q 379 157 267 157 q 493 239 446 157 l 493 549 q 396 575 446 575 m 881 972 q 933 956 915 972 q 950 911 950 939 q 928 822 950 868 q 878 743 907 775 q 828 710 849 711 q 785 717 806 710 q 765 740 765 725 q 768 842 765 783 q 771 911 771 892 q 854 972 771 972 l 881 972 z "},"đ":{"ha":785,"x_min":58,"x_max":763,"o":"m 721 942 q 753 928 743 942 q 763 886 763 915 l 763 865 q 753 823 763 836 q 721 810 743 810 l 699 810 l 699 244 q 702 147 699 181 q 711 74 706 114 q 715 43 715 56 q 659 10 715 21 q 560 -1 603 -1 q 525 19 535 -1 q 510 62 515 39 q 504 93 506 85 q 430 18 479 47 q 318 -11 381 -11 q 184 33 243 -11 q 92 161 125 76 q 58 364 58 246 q 135 637 58 536 q 351 738 213 738 q 493 694 433 738 l 493 810 l 422 810 q 390 823 400 810 q 381 865 381 836 l 381 886 q 390 928 381 915 q 422 942 400 942 l 493 942 l 493 1003 q 576 1047 493 1047 l 615 1047 q 699 1003 699 1047 l 699 942 l 721 942 m 493 549 q 396 575 446 575 q 267 364 267 575 q 379 157 267 157 q 493 239 446 157 l 493 549 z "},"ḍ":{"ha":785,"x_min":58,"x_max":715,"o":"m 58 0 m 615 1047 q 699 1003 699 1047 l 699 244 q 702 147 699 181 q 711 74 706 114 q 715 43 715 56 q 659 10 715 21 q 560 -1 603 -1 q 525 19 535 -1 q 510 62 515 39 q 504 93 506 85 q 430 18 479 47 q 318 -11 381 -11 q 184 33 243 -11 q 92 161 125 76 q 58 364 58 246 q 135 637 58 536 q 351 738 213 738 q 493 694 433 738 l 493 1003 q 576 1047 493 1047 l 615 1047 m 396 575 q 267 364 267 575 q 379 157 267 157 q 493 239 446 157 l 493 549 q 396 575 446 575 m 407 -111 q 490 -156 490 -111 l 490 -239 q 407 -283 490 -283 q 324 -239 324 -283 l 324 -156 q 407 -111 324 -111 z "},"ǳ":{"ha":1464,"x_min":58,"x_max":1424,"o":"m 58 0 m 615 1047 q 699 1003 699 1047 l 699 244 q 702 147 699 181 q 711 74 706 114 q 715 43 715 56 q 659 10 715 21 q 560 -1 603 -1 q 525 19 535 -1 q 510 62 515 39 q 504 93 506 85 q 430 18 479 47 q 318 -11 381 -11 q 184 33 243 -11 q 92 161 125 76 q 58 364 58 246 q 135 637 58 536 q 351 738 213 738 q 493 694 433 738 l 493 1003 q 576 1047 493 1047 l 615 1047 m 396 575 q 267 364 267 575 q 379 157 267 157 q 493 239 446 157 l 493 549 q 396 575 446 575 m 1378 726 q 1403 688 1389 726 q 1418 619 1418 649 q 1414 599 1418 606 l 1097 163 l 1382 163 q 1414 146 1404 163 q 1424 93 1424 129 l 1424 69 q 1414 17 1424 33 q 1382 0 1404 0 l 863 0 q 836 38 850 0 q 822 106 822 76 q 826 125 822 119 l 1144 564 l 886 564 q 854 581 864 564 q 844 633 844 597 l 844 657 q 854 710 844 693 q 886 726 864 726 l 1378 726 z "},"ǆ":{"ha":1464,"x_min":58,"x_max":1424,"o":"m 58 0 m 615 1047 q 699 1003 699 1047 l 699 244 q 702 147 699 181 q 711 74 706 114 q 715 43 715 56 q 659 10 715 21 q 560 -1 603 -1 q 525 19 535 -1 q 510 62 515 39 q 504 93 506 85 q 430 18 479 47 q 318 -11 381 -11 q 184 33 243 -11 q 92 161 125 76 q 58 364 58 246 q 135 637 58 536 q 351 738 213 738 q 493 694 433 738 l 493 1003 q 576 1047 493 1047 l 615 1047 m 396 575 q 267 364 267 575 q 379 157 267 157 q 493 239 446 157 l 493 549 q 396 575 446 575 m 1378 726 q 1403 688 1389 726 q 1418 619 1418 649 q 1414 599 1418 606 l 1097 163 l 1382 163 q 1414 146 1404 163 q 1424 93 1424 129 l 1424 69 q 1414 17 1424 33 q 1382 0 1404 0 l 863 0 q 836 38 850 0 q 822 106 822 76 q 826 125 822 119 l 1144 564 l 886 564 q 854 581 864 564 q 844 633 844 597 l 844 657 q 854 710 844 693 q 886 726 864 726 l 1378 726 m 1288 997 q 1315 983 1315 997 q 1307 963 1315 975 l 1217 821 q 1187 799 1206 804 q 1132 794 1168 794 l 1117 794 q 1062 799 1081 794 q 1032 821 1043 804 l 942 963 q 933 983 933 975 q 961 997 933 997 l 992 997 q 1048 990 1025 997 q 1085 963 1071 983 l 1124 908 l 1163 964 q 1257 997 1185 997 l 1288 997 z "},"e":{"ha":749,"x_min":58,"x_max":696,"o":"m 396 738 q 623 638 550 738 q 696 379 696 538 q 667 330 696 363 q 625 297 639 297 l 271 297 q 318 185 278 218 q 431 151 358 151 q 501 160 469 151 q 568 183 533 169 q 599 194 590 194 q 630 174 613 194 q 659 128 647 154 q 671 89 671 103 q 628 34 671 57 q 525 0 585 11 q 421 -11 465 -11 q 148 87 238 -11 q 58 358 58 185 q 148 646 58 554 q 396 738 238 738 m 396 575 q 271 435 293 575 l 496 435 q 471 537 496 499 q 396 575 446 575 z "},"é":{"ha":749,"x_min":58,"x_max":696,"o":"m 58 0 m 396 738 q 623 638 550 738 q 696 379 696 538 q 667 330 696 363 q 625 297 639 297 l 271 297 q 318 185 278 218 q 431 151 358 151 q 501 160 469 151 q 568 183 533 169 q 599 194 590 194 q 630 174 613 194 q 659 128 647 154 q 671 89 671 103 q 628 34 671 57 q 525 0 585 11 q 421 -11 465 -11 q 148 87 238 -11 q 58 358 58 185 q 148 646 58 554 q 396 738 238 738 m 396 575 q 271 435 293 575 l 496 435 q 471 537 496 499 q 396 575 446 575 m 486 1019 q 549 1015 529 1019 q 569 1000 569 1011 q 561 981 569 992 q 518 933 553 971 q 425 833 447 858 q 388 808 411 818 q 321 799 365 799 q 287 803 296 799 q 278 819 278 808 q 287 843 278 826 q 311 885 296 860 q 368 982 365 976 q 486 1019 389 1019 z "},"ĕ":{"ha":749,"x_min":58,"x_max":696,"o":"m 58 0 m 396 738 q 623 638 550 738 q 696 379 696 538 q 667 330 696 363 q 625 297 639 297 l 271 297 q 318 185 278 218 q 431 151 358 151 q 501 160 469 151 q 568 183 533 169 q 599 194 590 194 q 630 174 613 194 q 659 128 647 154 q 671 89 671 103 q 628 34 671 57 q 525 0 585 11 q 421 -11 465 -11 q 148 87 238 -11 q 58 358 58 185 q 148 646 58 554 q 396 738 238 738 m 396 575 q 271 435 293 575 l 496 435 q 471 537 496 499 q 396 575 446 575 m 531 993 q 567 983 554 993 q 579 954 579 972 q 553 878 579 914 q 480 821 526 843 q 375 799 433 799 q 270 821 317 799 q 197 878 224 843 q 171 954 171 914 q 183 983 171 972 q 219 993 196 993 q 244 988 235 993 q 265 968 253 982 q 306 936 285 947 q 375 925 328 925 q 445 937 424 925 q 488 971 467 949 q 506 988 497 982 q 531 993 515 993 z "},"ě":{"ha":749,"x_min":58,"x_max":696,"o":"m 58 0 m 396 738 q 623 638 550 738 q 696 379 696 538 q 667 330 696 363 q 625 297 639 297 l 271 297 q 318 185 278 218 q 431 151 358 151 q 501 160 469 151 q 568 183 533 169 q 599 194 590 194 q 630 174 613 194 q 659 128 647 154 q 671 89 671 103 q 628 34 671 57 q 525 0 585 11 q 421 -11 465 -11 q 148 87 238 -11 q 58 358 58 185 q 148 646 58 554 q 396 738 238 738 m 396 575 q 271 435 293 575 l 496 435 q 471 537 496 499 q 396 575 446 575 m 538 997 q 565 983 565 997 q 557 963 565 975 l 467 821 q 437 799 456 804 q 382 794 418 794 l 367 794 q 312 799 331 794 q 282 821 293 804 l 192 963 q 183 983 183 975 q 211 997 183 997 l 242 997 q 298 990 275 997 q 335 963 321 983 l 374 908 l 413 964 q 507 997 435 997 l 538 997 z "},"ê":{"ha":749,"x_min":58,"x_max":696,"o":"m 58 0 m 396 738 q 623 638 550 738 q 696 379 696 538 q 667 330 696 363 q 625 297 639 297 l 271 297 q 318 185 278 218 q 431 151 358 151 q 501 160 469 151 q 568 183 533 169 q 599 194 590 194 q 630 174 613 194 q 659 128 647 154 q 671 89 671 103 q 628 34 671 57 q 525 0 585 11 q 421 -11 465 -11 q 148 87 238 -11 q 58 358 58 185 q 148 646 58 554 q 396 738 238 738 m 396 575 q 271 435 293 575 l 496 435 q 471 537 496 499 q 396 575 446 575 m 382 997 q 437 992 418 997 q 467 971 456 988 l 557 829 q 565 808 565 817 q 538 794 565 794 l 507 794 q 413 828 435 794 l 374 883 l 335 829 q 298 801 321 808 q 242 794 275 794 l 211 794 q 183 808 183 794 q 192 829 183 817 l 282 971 q 312 992 293 988 q 367 997 331 997 l 382 997 z "},"ế":{"ha":749,"x_min":58,"x_max":756,"o":"m 672 1199 q 735 1194 715 1199 q 756 1179 756 1190 q 747 1160 756 1171 q 704 1113 739 1150 q 611 1013 633 1038 q 574 988 597 997 q 507 978 551 978 q 473 983 482 978 q 464 999 464 988 q 473 1022 464 1006 q 497 1064 482 1039 q 554 1161 551 1156 q 672 1199 575 1199 m 383 997 q 428 992 413 997 q 454 971 444 988 l 538 829 q 546 808 546 817 q 518 794 546 794 l 488 794 q 425 801 450 794 q 393 828 400 808 l 375 883 l 336 829 q 299 801 322 808 q 243 794 276 794 l 213 794 q 185 808 185 794 q 193 829 185 817 l 283 971 q 313 992 294 988 q 368 997 332 997 l 383 997 m 396 738 q 623 638 550 738 q 696 379 696 538 q 667 330 696 363 q 625 297 639 297 l 271 297 q 318 185 278 218 q 431 151 358 151 q 501 160 469 151 q 568 183 533 169 q 599 194 590 194 q 630 174 613 194 q 659 128 647 154 q 671 89 671 103 q 628 34 671 57 q 525 0 585 11 q 421 -11 465 -11 q 148 87 238 -11 q 58 358 58 185 q 148 646 58 554 q 396 738 238 738 m 396 575 q 271 435 293 575 l 496 435 q 471 537 496 499 q 396 575 446 575 z "},"ệ":{"ha":749,"x_min":58,"x_max":696,"o":"m 58 0 m 396 738 q 623 638 550 738 q 696 379 696 538 q 667 330 696 363 q 625 297 639 297 l 271 297 q 318 185 278 218 q 431 151 358 151 q 501 160 469 151 q 568 183 533 169 q 599 194 590 194 q 630 174 613 194 q 659 128 647 154 q 671 89 671 103 q 628 34 671 57 q 525 0 585 11 q 421 -11 465 -11 q 148 87 238 -11 q 58 358 58 185 q 148 646 58 554 q 396 738 238 738 m 396 575 q 271 435 293 575 l 496 435 q 471 537 496 499 q 396 575 446 575 m 382 997 q 437 992 418 997 q 467 971 456 988 l 557 829 q 565 808 565 817 q 538 794 565 794 l 507 794 q 413 828 435 794 l 374 883 l 335 829 q 298 801 321 808 q 242 794 275 794 l 211 794 q 183 808 183 794 q 192 829 183 817 l 282 971 q 312 992 293 988 q 367 997 331 997 l 382 997 m 378 -111 q 461 -156 461 -111 l 461 -239 q 378 -283 461 -283 q 294 -239 294 -283 l 294 -156 q 378 -111 294 -111 z "},"ề":{"ha":749,"x_min":58,"x_max":696,"o":"m 458 1199 q 576 1161 556 1199 q 633 1064 579 1156 q 658 1022 649 1039 q 667 999 667 1006 q 658 983 667 988 q 624 978 649 978 q 556 988 579 978 q 519 1013 533 997 q 426 1113 497 1038 q 383 1160 392 1150 q 375 1179 375 1171 q 395 1194 375 1190 q 458 1199 415 1199 m 383 997 q 428 992 413 997 q 454 971 444 988 l 538 829 q 546 808 546 817 q 518 794 546 794 l 488 794 q 425 801 450 794 q 393 828 400 808 l 375 883 l 336 829 q 299 801 322 808 q 243 794 276 794 l 213 794 q 185 808 185 794 q 193 829 185 817 l 283 971 q 313 992 294 988 q 368 997 332 997 l 383 997 m 396 738 q 623 638 550 738 q 696 379 696 538 q 667 330 696 363 q 625 297 639 297 l 271 297 q 318 185 278 218 q 431 151 358 151 q 501 160 469 151 q 568 183 533 169 q 599 194 590 194 q 630 174 613 194 q 659 128 647 154 q 671 89 671 103 q 628 34 671 57 q 525 0 585 11 q 421 -11 465 -11 q 148 87 238 -11 q 58 358 58 185 q 148 646 58 554 q 396 738 238 738 m 396 575 q 271 435 293 575 l 496 435 q 471 537 496 499 q 396 575 446 575 z "},"ể":{"ha":749,"x_min":58,"x_max":733,"o":"m 613 1107 q 599 1129 613 1121 q 568 1138 586 1138 q 533 1129 550 1138 q 510 1121 515 1121 q 485 1142 501 1121 q 468 1179 468 1164 q 506 1208 468 1193 q 579 1222 543 1222 q 693 1193 653 1222 q 733 1113 733 1164 q 706 1047 733 1079 q 643 992 678 1014 q 594 971 608 971 q 545 983 571 971 q 519 1003 519 994 q 556 1040 519 1014 q 597 1076 582 1060 q 613 1107 613 1092 m 383 997 q 428 992 413 997 q 454 971 444 988 l 538 829 q 546 808 546 817 q 518 794 546 794 l 488 794 q 425 801 450 794 q 393 828 400 808 l 375 883 l 336 829 q 299 801 322 808 q 243 794 276 794 l 213 794 q 185 808 185 794 q 193 829 185 817 l 283 971 q 313 992 294 988 q 368 997 332 997 l 383 997 m 396 738 q 623 638 550 738 q 696 379 696 538 q 667 330 696 363 q 625 297 639 297 l 271 297 q 318 185 278 218 q 431 151 358 151 q 501 160 469 151 q 568 183 533 169 q 599 194 590 194 q 630 174 613 194 q 659 128 647 154 q 671 89 671 103 q 628 34 671 57 q 525 0 585 11 q 421 -11 465 -11 q 148 87 238 -11 q 58 358 58 185 q 148 646 58 554 q 396 738 238 738 m 396 575 q 271 435 293 575 l 496 435 q 471 537 496 499 q 396 575 446 575 z "},"ễ":{"ha":749,"x_min":58,"x_max":696,"o":"m 292 1208 q 347 1199 313 1208 q 389 1188 382 1189 q 469 1168 444 1169 q 511 1190 493 1168 q 546 1214 529 1214 q 563 1211 551 1214 l 576 1207 q 604 1169 604 1197 q 601 1150 604 1156 q 551 1081 588 1110 q 464 1053 515 1053 q 408 1063 443 1053 q 367 1074 374 1072 q 286 1093 311 1092 q 244 1071 263 1093 q 210 1047 226 1047 q 193 1050 204 1047 l 179 1054 q 151 1092 151 1064 q 154 1111 151 1106 q 204 1180 168 1151 q 292 1208 240 1208 m 383 997 q 438 992 419 997 q 468 971 457 988 l 558 829 q 567 808 567 817 q 539 794 567 794 l 508 794 q 414 828 436 794 l 375 883 l 336 829 q 299 801 322 808 q 243 794 276 794 l 213 794 q 185 808 185 794 q 193 829 185 817 l 283 971 q 313 992 294 988 q 368 997 332 997 l 383 997 m 396 738 q 623 638 550 738 q 696 379 696 538 q 667 330 696 363 q 625 297 639 297 l 271 297 q 318 185 278 218 q 431 151 358 151 q 501 160 469 151 q 568 183 533 169 q 599 194 590 194 q 630 174 613 194 q 659 128 647 154 q 671 89 671 103 q 628 34 671 57 q 525 0 585 11 q 421 -11 465 -11 q 148 87 238 -11 q 58 358 58 185 q 148 646 58 554 q 396 738 238 738 m 396 575 q 271 435 293 575 l 496 435 q 471 537 496 499 q 396 575 446 575 z "},"ë":{"ha":749,"x_min":58,"x_max":696,"o":"m 58 0 m 396 738 q 623 638 550 738 q 696 379 696 538 q 667 330 696 363 q 625 297 639 297 l 271 297 q 318 185 278 218 q 431 151 358 151 q 501 160 469 151 q 568 183 533 169 q 599 194 590 194 q 630 174 613 194 q 659 128 647 154 q 671 89 671 103 q 628 34 671 57 q 525 0 585 11 q 421 -11 465 -11 q 148 87 238 -11 q 58 358 58 185 q 148 646 58 554 q 396 738 238 738 m 396 575 q 271 435 293 575 l 496 435 q 471 537 496 499 q 396 575 446 575 m 250 975 q 333 931 333 975 l 333 847 q 250 803 333 803 q 167 847 167 803 l 167 931 q 250 975 167 975 m 500 975 q 583 931 583 975 l 583 847 q 500 803 583 803 q 417 847 417 803 l 417 931 q 500 975 417 975 z "},"ė":{"ha":749,"x_min":58,"x_max":696,"o":"m 58 0 m 396 738 q 623 638 550 738 q 696 379 696 538 q 667 330 696 363 q 625 297 639 297 l 271 297 q 318 185 278 218 q 431 151 358 151 q 501 160 469 151 q 568 183 533 169 q 599 194 590 194 q 630 174 613 194 q 659 128 647 154 q 671 89 671 103 q 628 34 671 57 q 525 0 585 11 q 421 -11 465 -11 q 148 87 238 -11 q 58 358 58 185 q 148 646 58 554 q 396 738 238 738 m 396 575 q 271 435 293 575 l 496 435 q 471 537 496 499 q 396 575 446 575 m 375 975 q 458 931 458 975 l 458 847 q 375 803 458 803 q 292 847 292 803 l 292 931 q 375 975 292 975 z "},"ẹ":{"ha":749,"x_min":58,"x_max":696,"o":"m 58 0 m 396 738 q 623 638 550 738 q 696 379 696 538 q 667 330 696 363 q 625 297 639 297 l 271 297 q 318 185 278 218 q 431 151 358 151 q 501 160 469 151 q 568 183 533 169 q 599 194 590 194 q 630 174 613 194 q 659 128 647 154 q 671 89 671 103 q 628 34 671 57 q 525 0 585 11 q 421 -11 465 -11 q 148 87 238 -11 q 58 358 58 185 q 148 646 58 554 q 396 738 238 738 m 396 575 q 271 435 293 575 l 496 435 q 471 537 496 499 q 396 575 446 575 m 378 -111 q 461 -156 461 -111 l 461 -239 q 378 -283 461 -283 q 294 -239 294 -283 l 294 -156 q 378 -111 294 -111 z "},"è":{"ha":749,"x_min":58,"x_max":696,"o":"m 58 0 m 396 738 q 623 638 550 738 q 696 379 696 538 q 667 330 696 363 q 625 297 639 297 l 271 297 q 318 185 278 218 q 431 151 358 151 q 501 160 469 151 q 568 183 533 169 q 599 194 590 194 q 630 174 613 194 q 659 128 647 154 q 671 89 671 103 q 628 34 671 57 q 525 0 585 11 q 421 -11 465 -11 q 148 87 238 -11 q 58 358 58 185 q 148 646 58 554 q 396 738 238 738 m 396 575 q 271 435 293 575 l 496 435 q 471 537 496 499 q 396 575 446 575 m 272 1019 q 390 982 369 1019 q 447 885 393 976 q 472 843 463 860 q 481 819 481 826 q 472 803 481 808 q 438 799 463 799 q 370 808 393 799 q 333 833 347 818 q 240 933 311 858 q 197 981 206 971 q 189 1000 189 992 q 209 1015 189 1011 q 272 1019 229 1019 z "},"ẻ":{"ha":749,"x_min":58,"x_max":696,"o":"m 58 0 m 396 738 q 623 638 550 738 q 696 379 696 538 q 667 330 696 363 q 625 297 639 297 l 271 297 q 318 185 278 218 q 431 151 358 151 q 501 160 469 151 q 568 183 533 169 q 599 194 590 194 q 630 174 613 194 q 659 128 647 154 q 671 89 671 103 q 628 34 671 57 q 525 0 585 11 q 421 -11 465 -11 q 148 87 238 -11 q 58 358 58 185 q 148 646 58 554 q 396 738 238 738 m 396 575 q 271 435 293 575 l 496 435 q 471 537 496 499 q 396 575 446 575 m 426 928 q 413 950 426 942 q 382 958 400 958 q 347 950 364 958 q 324 942 329 942 q 299 963 315 942 q 282 1000 282 985 q 319 1028 282 1014 q 393 1043 357 1043 q 507 1014 467 1043 q 547 933 547 985 q 519 867 547 900 q 457 813 492 835 q 408 792 422 792 q 359 803 385 792 q 333 824 333 815 q 369 861 333 835 q 411 897 396 881 q 426 928 426 913 z "},"ē":{"ha":749,"x_min":58,"x_max":696,"o":"m 58 0 m 396 738 q 623 638 550 738 q 696 379 696 538 q 667 330 696 363 q 625 297 639 297 l 271 297 q 318 185 278 218 q 431 151 358 151 q 501 160 469 151 q 568 183 533 169 q 599 194 590 194 q 630 174 613 194 q 659 128 647 154 q 671 89 671 103 q 628 34 671 57 q 525 0 585 11 q 421 -11 465 -11 q 148 87 238 -11 q 58 358 58 185 q 148 646 58 554 q 396 738 238 738 m 396 575 q 271 435 293 575 l 496 435 q 471 537 496 499 q 396 575 446 575 m 524 961 q 556 948 546 961 q 565 906 565 935 l 565 885 q 556 842 565 856 q 524 829 546 829 l 225 829 q 193 842 203 829 q 183 885 183 856 l 183 906 q 193 948 183 935 q 225 961 203 961 l 524 961 z "},"ę":{"ha":749,"x_min":58,"x_max":776,"o":"m 746 -126 q 776 -165 776 -126 q 663 -235 776 -235 q 532 -189 565 -235 q 499 -93 499 -143 q 503 -49 499 -75 q 519 -1 508 -22 q 421 -11 467 -11 q 148 87 238 -11 q 58 358 58 185 q 148 646 58 554 q 396 738 238 738 q 623 638 550 738 q 696 379 696 538 q 667 330 696 363 q 625 297 639 297 l 271 297 q 318 185 278 218 q 431 151 358 151 q 501 160 469 151 q 568 183 533 169 q 599 194 590 194 q 630 174 613 194 q 659 128 647 154 q 671 89 671 103 q 606 24 671 50 q 607 13 607 21 q 599 -19 607 4 q 592 -67 592 -43 q 617 -124 592 -111 q 678 -137 642 -137 q 718 -132 696 -137 q 746 -126 735 -126 m 396 575 q 271 435 293 575 l 496 435 q 471 537 496 499 q 396 575 446 575 z "},"ẽ":{"ha":749,"x_min":58,"x_max":696,"o":"m 58 0 m 396 738 q 623 638 550 738 q 696 379 696 538 q 667 330 696 363 q 625 297 639 297 l 271 297 q 318 185 278 218 q 431 151 358 151 q 501 160 469 151 q 568 183 533 169 q 599 194 590 194 q 630 174 613 194 q 659 128 647 154 q 671 89 671 103 q 628 34 671 57 q 525 0 585 11 q 421 -11 465 -11 q 148 87 238 -11 q 58 358 58 185 q 148 646 58 554 q 396 738 238 738 m 396 575 q 271 435 293 575 l 496 435 q 471 537 496 499 q 396 575 446 575 m 265 964 q 326 954 288 964 q 372 943 364 944 q 461 924 436 925 q 507 946 486 924 q 544 969 525 969 q 563 967 551 969 l 578 963 q 610 925 610 953 q 606 906 610 914 q 550 837 590 865 q 454 808 510 808 q 394 818 432 808 q 347 829 356 828 q 258 849 283 847 q 213 826 232 849 q 175 803 194 803 q 157 806 168 803 l 142 810 q 110 847 110 819 q 114 867 110 858 q 169 935 129 907 q 265 964 210 964 z "},"f":{"ha":451,"x_min":43,"x_max":451,"o":"m 313 1056 q 451 988 451 1056 q 446 954 451 979 q 431 908 440 929 q 408 888 421 888 q 386 890 400 888 q 365 893 372 893 q 327 879 339 893 q 315 833 315 865 l 315 726 l 385 726 q 417 710 407 726 q 426 657 426 693 l 426 633 q 417 581 426 597 q 385 564 407 564 l 315 564 l 315 42 q 232 -3 315 -3 l 193 -3 q 110 42 110 -3 l 110 564 l 85 564 q 53 581 63 564 q 43 633 43 597 l 43 657 q 53 710 43 693 q 85 726 63 726 l 110 726 l 110 831 q 313 1056 110 1056 z "},"g":{"ha":758,"x_min":33,"x_max":743,"o":"m 371 738 q 478 726 425 738 l 701 726 q 733 710 724 726 q 743 657 743 693 l 743 633 q 710 568 743 568 q 681 569 699 568 q 650 574 663 571 l 647 568 q 663 533 657 556 q 669 490 669 510 q 591 306 669 367 q 386 244 513 244 q 301 207 301 244 q 333 174 301 183 q 438 153 365 164 q 507 143 486 147 q 664 80 606 124 q 722 -58 722 36 q 678 -183 722 -129 q 552 -265 633 -236 q 364 -294 471 -294 q 33 -103 33 -294 q 66 -7 33 -49 q 160 58 99 35 l 161 64 q 117 106 132 78 q 101 168 101 133 q 123 233 101 203 q 185 283 144 263 q 72 490 72 346 q 155 677 72 617 q 371 738 238 738 m 371 589 q 296 565 325 589 q 267 490 267 540 q 296 417 267 442 q 371 393 325 393 q 446 417 417 393 q 475 490 475 442 q 446 565 475 540 q 371 589 417 589 m 308 6 q 253 -27 274 -7 q 233 -69 233 -47 q 269 -115 233 -99 q 379 -132 304 -132 q 486 -114 450 -132 q 522 -64 522 -96 q 476 -17 522 -32 q 308 6 429 -3 z "},"ğ":{"ha":758,"x_min":33,"x_max":743,"o":"m 33 0 m 371 738 q 478 726 425 738 l 701 726 q 733 710 724 726 q 743 657 743 693 l 743 633 q 710 568 743 568 q 681 569 699 568 q 650 574 663 571 l 647 568 q 663 533 657 556 q 669 490 669 510 q 591 306 669 367 q 386 244 513 244 q 301 207 301 244 q 333 174 301 183 q 438 153 365 164 q 507 143 486 147 q 664 80 606 124 q 722 -58 722 36 q 678 -183 722 -129 q 552 -265 633 -236 q 364 -294 471 -294 q 33 -103 33 -294 q 66 -7 33 -49 q 160 58 99 35 l 161 64 q 117 106 132 78 q 101 168 101 133 q 123 233 101 203 q 185 283 144 263 q 72 490 72 346 q 155 677 72 617 q 371 738 238 738 m 371 589 q 296 565 325 589 q 267 490 267 540 q 296 417 267 442 q 371 393 325 393 q 446 417 417 393 q 475 490 475 442 q 446 565 475 540 q 371 589 417 589 m 308 6 q 253 -27 274 -7 q 233 -69 233 -47 q 269 -115 233 -99 q 379 -132 304 -132 q 486 -114 450 -132 q 522 -64 522 -96 q 476 -17 522 -32 q 308 6 429 -3 m 535 993 q 571 983 558 993 q 583 954 583 972 q 557 878 583 914 q 484 821 531 843 q 379 799 438 799 q 274 821 321 799 q 201 878 228 843 q 175 954 175 914 q 188 983 175 972 q 224 993 200 993 q 248 988 239 993 q 269 968 257 982 q 310 936 289 947 q 379 925 332 925 q 449 937 428 925 q 492 971 471 949 q 510 988 501 982 q 535 993 519 993 z "},"ĝ":{"ha":758,"x_min":33,"x_max":743,"o":"m 33 0 m 371 738 q 478 726 425 738 l 701 726 q 733 710 724 726 q 743 657 743 693 l 743 633 q 710 568 743 568 q 681 569 699 568 q 650 574 663 571 l 647 568 q 663 533 657 556 q 669 490 669 510 q 591 306 669 367 q 386 244 513 244 q 301 207 301 244 q 333 174 301 183 q 438 153 365 164 q 507 143 486 147 q 664 80 606 124 q 722 -58 722 36 q 678 -183 722 -129 q 552 -265 633 -236 q 364 -294 471 -294 q 33 -103 33 -294 q 66 -7 33 -49 q 160 58 99 35 l 161 64 q 117 106 132 78 q 101 168 101 133 q 123 233 101 203 q 185 283 144 263 q 72 490 72 346 q 155 677 72 617 q 371 738 238 738 m 371 589 q 296 565 325 589 q 267 490 267 540 q 296 417 267 442 q 371 393 325 393 q 446 417 417 393 q 475 490 475 442 q 446 565 475 540 q 371 589 417 589 m 308 6 q 253 -27 274 -7 q 233 -69 233 -47 q 269 -115 233 -99 q 379 -132 304 -132 q 486 -114 450 -132 q 522 -64 522 -96 q 476 -17 522 -32 q 308 6 429 -3 m 386 997 q 441 992 422 997 q 471 971 460 988 l 561 829 q 569 808 569 817 q 542 794 569 794 l 511 794 q 417 828 439 794 l 378 883 l 339 829 q 302 801 325 808 q 246 794 279 794 l 215 794 q 188 808 188 794 q 196 829 188 817 l 286 971 q 316 992 297 988 q 371 997 335 997 l 386 997 z "},"ģ":{"ha":758,"x_min":33,"x_max":743,"o":"m 33 0 m 371 738 q 478 726 425 738 l 701 726 q 733 710 724 726 q 743 657 743 693 l 743 633 q 710 568 743 568 q 681 569 699 568 q 650 574 663 571 l 647 568 q 663 533 657 556 q 669 490 669 510 q 591 306 669 367 q 386 244 513 244 q 301 207 301 244 q 333 174 301 183 q 438 153 365 164 q 507 143 486 147 q 664 80 606 124 q 722 -58 722 36 q 678 -183 722 -129 q 552 -265 633 -236 q 364 -294 471 -294 q 33 -103 33 -294 q 66 -7 33 -49 q 160 58 99 35 l 161 64 q 117 106 132 78 q 101 168 101 133 q 123 233 101 203 q 185 283 144 263 q 72 490 72 346 q 155 677 72 617 q 371 738 238 738 m 371 589 q 296 565 325 589 q 267 490 267 540 q 296 417 267 442 q 371 393 325 393 q 446 417 417 393 q 475 490 475 442 q 446 565 475 540 q 371 589 417 589 m 308 6 q 253 -27 274 -7 q 233 -69 233 -47 q 269 -115 233 -99 q 379 -132 304 -132 q 486 -114 450 -132 q 522 -64 522 -96 q 476 -17 522 -32 q 308 6 429 -3 m 361 799 q 309 815 326 799 q 292 860 292 832 q 318 951 292 904 q 381 1029 344 997 q 442 1061 417 1061 q 484 1053 464 1061 q 504 1031 504 1046 q 496 1001 504 1021 q 478 940 485 971 q 471 860 471 908 q 388 799 471 799 l 361 799 z "},"ġ":{"ha":758,"x_min":33,"x_max":743,"o":"m 33 0 m 371 738 q 478 726 425 738 l 701 726 q 733 710 724 726 q 743 657 743 693 l 743 633 q 710 568 743 568 q 681 569 699 568 q 650 574 663 571 l 647 568 q 663 533 657 556 q 669 490 669 510 q 591 306 669 367 q 386 244 513 244 q 301 207 301 244 q 333 174 301 183 q 438 153 365 164 q 507 143 486 147 q 664 80 606 124 q 722 -58 722 36 q 678 -183 722 -129 q 552 -265 633 -236 q 364 -294 471 -294 q 33 -103 33 -294 q 66 -7 33 -49 q 160 58 99 35 l 161 64 q 117 106 132 78 q 101 168 101 133 q 123 233 101 203 q 185 283 144 263 q 72 490 72 346 q 155 677 72 617 q 371 738 238 738 m 371 589 q 296 565 325 589 q 267 490 267 540 q 296 417 267 442 q 371 393 325 393 q 446 417 417 393 q 475 490 475 442 q 446 565 475 540 q 371 589 417 589 m 308 6 q 253 -27 274 -7 q 233 -69 233 -47 q 269 -115 233 -99 q 379 -132 304 -132 q 486 -114 450 -132 q 522 -64 522 -96 q 476 -17 522 -32 q 308 6 429 -3 m 379 975 q 463 931 463 975 l 463 847 q 379 803 463 803 q 296 847 296 803 l 296 931 q 379 975 296 975 z "},"h":{"ha":785,"x_min":92,"x_max":703,"o":"m 214 1047 q 297 1003 297 1047 l 297 643 q 383 711 332 685 q 493 738 433 738 q 651 683 599 738 q 703 513 703 628 l 703 42 q 619 -3 703 -3 l 581 -3 q 497 42 497 -3 l 497 482 q 408 568 497 568 q 342 544 371 568 q 297 488 314 519 l 297 42 q 214 -3 297 -3 l 175 -3 q 92 42 92 -3 l 92 1003 q 175 1047 92 1047 l 214 1047 z "},"ħ":{"ha":785,"x_min":33,"x_max":703,"o":"m 493 738 q 651 683 599 738 q 703 513 703 628 l 703 42 q 619 -3 703 -3 l 581 -3 q 497 42 497 -3 l 497 482 q 408 568 497 568 q 342 544 371 568 q 297 488 314 519 l 297 42 q 214 -3 297 -3 l 175 -3 q 92 42 92 -3 l 92 810 l 75 810 q 43 823 53 810 q 33 865 33 836 l 33 886 q 43 928 33 915 q 75 942 53 942 l 92 942 l 92 1003 q 175 1047 92 1047 l 214 1047 q 297 1003 297 1047 l 297 942 l 374 942 q 406 928 396 942 q 415 886 415 915 l 415 865 q 406 823 415 836 q 374 810 396 810 l 297 810 l 297 643 q 383 711 332 685 q 493 738 433 738 z "},"ĥ":{"ha":785,"x_min":4,"x_max":703,"o":"m 4 0 m 214 1047 q 297 1003 297 1047 l 297 643 q 383 711 332 685 q 493 738 433 738 q 651 683 599 738 q 703 513 703 628 l 703 42 q 619 -3 703 -3 l 581 -3 q 497 42 497 -3 l 497 482 q 408 568 497 568 q 342 544 371 568 q 297 488 314 519 l 297 42 q 214 -3 297 -3 l 175 -3 q 92 42 92 -3 l 92 1003 q 175 1047 92 1047 l 214 1047 m 203 1288 q 258 1283 239 1288 q 288 1261 276 1278 l 378 1119 q 386 1099 386 1107 q 358 1085 386 1085 l 328 1085 q 233 1118 256 1085 l 194 1174 l 156 1119 q 119 1092 142 1099 q 63 1085 96 1085 l 32 1085 q 4 1099 4 1085 q 13 1119 4 1107 l 103 1261 q 133 1283 114 1278 q 188 1288 151 1288 l 203 1288 z "},"ḥ":{"ha":785,"x_min":92,"x_max":703,"o":"m 92 0 m 214 1047 q 297 1003 297 1047 l 297 643 q 383 711 332 685 q 493 738 433 738 q 651 683 599 738 q 703 513 703 628 l 703 42 q 619 -3 703 -3 l 581 -3 q 497 42 497 -3 l 497 482 q 408 568 497 568 q 342 544 371 568 q 297 488 314 519 l 297 42 q 214 -3 297 -3 l 175 -3 q 92 42 92 -3 l 92 1003 q 175 1047 92 1047 l 214 1047 m 393 -111 q 476 -156 476 -111 l 476 -239 q 393 -283 476 -283 q 310 -239 310 -283 l 310 -156 q 393 -111 310 -111 z "},"i":{"ha":368,"x_min":82,"x_max":288,"o":"m 204 1047 q 288 1003 288 1047 l 288 890 q 204 846 288 846 l 165 846 q 82 890 82 846 l 82 1003 q 165 1047 82 1047 l 204 1047 m 204 729 q 288 685 288 729 l 288 42 q 204 -3 288 -3 l 165 -3 q 82 42 82 -3 l 82 685 q 165 729 82 729 l 204 729 z "},"ı":{"ha":368,"x_min":82,"x_max":288,"o":"m 204 729 q 288 685 288 729 l 288 42 q 204 -3 288 -3 l 165 -3 q 82 42 82 -3 l 82 685 q 165 729 82 729 l 204 729 z "},"í":{"ha":368,"x_min":82,"x_max":379,"o":"m 82 0 m 204 729 q 288 685 288 729 l 288 42 q 204 -3 288 -3 l 165 -3 q 82 42 82 -3 l 82 685 q 165 729 82 729 l 204 729 m 296 1019 q 359 1015 339 1019 q 379 1000 379 1011 q 371 981 379 992 q 328 933 363 971 q 235 833 257 858 q 198 808 221 818 q 131 799 175 799 q 97 803 106 799 q 88 819 88 808 q 97 843 88 826 q 121 885 106 860 q 178 982 175 976 q 296 1019 199 1019 z "},"ĭ":{"ha":368,"x_min":-19,"x_max":389,"o":"m 0 0 m 204 729 q 288 685 288 729 l 288 42 q 204 -3 288 -3 l 165 -3 q 82 42 82 -3 l 82 685 q 165 729 82 729 l 204 729 m 340 993 q 376 983 364 993 q 389 954 389 972 q 363 878 389 914 q 290 821 336 843 q 185 799 243 799 q 80 821 126 799 q 7 878 33 843 q -19 954 -19 914 q -7 983 -19 972 q 29 993 6 993 q 53 988 44 993 q 75 968 63 982 q 116 936 94 947 q 185 925 138 925 q 255 937 233 925 q 297 971 276 949 q 316 988 307 982 q 340 993 325 993 z "},"î":{"ha":368,"x_min":-7,"x_max":375,"o":"m 0 0 m 204 729 q 288 685 288 729 l 288 42 q 204 -3 288 -3 l 165 -3 q 82 42 82 -3 l 82 685 q 165 729 82 729 l 204 729 m 192 997 q 247 992 228 997 q 276 971 265 988 l 367 829 q 375 808 375 817 q 347 794 375 794 l 317 794 q 222 828 244 794 l 183 883 l 144 829 q 108 801 131 808 q 51 794 85 794 l 21 794 q -7 808 -7 794 q 1 829 -7 817 l 92 971 q 122 992 103 988 q 176 997 140 997 l 192 997 z "},"ï":{"ha":368,"x_min":-24,"x_max":393,"o":"m 0 0 m 204 729 q 288 685 288 729 l 288 42 q 204 -3 288 -3 l 165 -3 q 82 42 82 -3 l 82 685 q 165 729 82 729 l 204 729 m 60 975 q 143 931 143 975 l 143 847 q 60 803 143 803 q -24 847 -24 803 l -24 931 q 60 975 -24 975 m 310 975 q 393 931 393 975 l 393 847 q 310 803 393 803 q 226 847 226 803 l 226 931 q 310 975 226 975 z "},"ị":{"ha":368,"x_min":82,"x_max":288,"o":"m 82 0 m 204 1047 q 288 1003 288 1047 l 288 890 q 204 846 288 846 l 165 846 q 82 890 82 846 l 82 1003 q 165 1047 82 1047 l 204 1047 m 204 729 q 288 685 288 729 l 288 42 q 204 -3 288 -3 l 165 -3 q 82 42 82 -3 l 82 685 q 165 729 82 729 l 204 729 m 185 -111 q 268 -156 268 -111 l 268 -239 q 185 -283 268 -283 q 101 -239 101 -283 l 101 -156 q 185 -111 101 -111 z "},"ì":{"ha":368,"x_min":-1,"x_max":290,"o":"m 0 0 m 204 729 q 288 685 288 729 l 288 42 q 204 -3 288 -3 l 165 -3 q 82 42 82 -3 l 82 685 q 165 729 82 729 l 204 729 m 82 1019 q 200 982 179 1019 q 257 885 203 976 q 281 843 272 860 q 290 819 290 826 q 281 803 290 808 q 247 799 272 799 q 180 808 203 799 q 143 833 157 818 q 50 933 121 858 q 7 981 15 971 q -1 1000 -1 992 q 19 1015 -1 1011 q 82 1019 39 1019 z "},"ỉ":{"ha":368,"x_min":82,"x_max":357,"o":"m 82 0 m 204 729 q 288 685 288 729 l 288 42 q 204 -3 288 -3 l 165 -3 q 82 42 82 -3 l 82 685 q 165 729 82 729 l 204 729 m 236 928 q 223 950 236 942 q 192 958 210 958 q 156 950 174 958 q 133 942 139 942 q 108 963 125 942 q 92 1000 92 985 q 129 1028 92 1014 q 203 1043 167 1043 q 317 1014 276 1043 q 357 933 357 985 q 329 867 357 900 q 267 813 301 835 q 218 792 232 792 q 169 803 194 792 q 143 824 143 815 q 179 861 143 835 q 221 897 206 881 q 236 928 236 913 z "},"ĳ":{"ha":751,"x_min":82,"x_max":671,"o":"m 82 0 m 204 1047 q 288 1003 288 1047 l 288 890 q 204 846 288 846 l 165 846 q 82 890 82 846 l 82 1003 q 165 1047 82 1047 l 204 1047 m 204 729 q 288 685 288 729 l 288 42 q 204 -3 288 -3 l 165 -3 q 82 42 82 -3 l 82 685 q 165 729 82 729 l 204 729 m 588 1047 q 671 1003 671 1047 l 671 890 q 588 846 671 846 l 549 846 q 465 890 465 846 l 465 1003 q 549 1047 465 1047 l 588 1047 m 588 729 q 671 685 671 729 l 671 -69 q 615 -237 671 -179 q 468 -294 558 -294 q 355 -278 386 -294 q 324 -222 324 -262 q 339 -160 324 -194 q 374 -126 354 -126 q 394 -129 381 -126 q 415 -132 407 -132 q 453 -118 442 -132 q 465 -72 465 -104 l 465 685 q 549 729 465 729 l 588 729 z "},"ī":{"ha":368,"x_min":-7,"x_max":375,"o":"m 0 0 m 204 729 q 288 685 288 729 l 288 42 q 204 -3 288 -3 l 165 -3 q 82 42 82 -3 l 82 685 q 165 729 82 729 l 204 729 m 333 961 q 365 948 356 961 q 375 906 375 935 l 375 885 q 365 842 375 856 q 333 829 356 829 l 35 829 q 3 842 13 829 q -7 885 -7 856 l -7 906 q 3 948 -7 935 q 35 961 13 961 l 333 961 z "},"į":{"ha":368,"x_min":82,"x_max":404,"o":"m 165 846 q 82 890 82 846 l 82 1003 q 165 1047 82 1047 l 204 1047 q 288 1003 288 1047 l 288 890 q 204 846 288 846 l 165 846 m 374 -146 q 404 -185 404 -146 q 290 -254 404 -254 q 160 -208 193 -254 q 126 -112 126 -162 q 133 -56 126 -87 q 158 -3 140 -24 q 82 42 82 -1 l 82 685 q 165 729 82 729 l 204 729 q 288 685 288 729 l 288 42 q 235 -1 288 7 l 235 -7 q 227 -39 235 -15 q 219 -86 219 -62 q 244 -144 219 -131 q 306 -157 269 -157 q 346 -151 324 -157 q 374 -146 363 -146 z "},"ĩ":{"ha":368,"x_min":-54,"x_max":394,"o":"m 86 964 q 140 954 106 964 q 182 943 175 944 q 261 924 238 925 q 303 946 283 924 q 338 969 321 969 q 353 967 342 969 l 367 963 q 394 925 394 953 q 392 906 394 911 q 342 837 378 865 q 256 808 306 808 q 202 817 236 808 q 160 829 168 826 q 79 849 104 847 q 38 826 56 849 q 4 803 21 803 q -12 806 -1 803 l -26 810 q -54 846 -54 819 q -50 867 -54 857 q -1 935 -37 907 q 86 964 35 964 m 204 729 q 288 685 288 729 l 288 42 q 204 -3 288 -3 l 165 -3 q 82 42 82 -3 l 82 685 q 165 729 82 729 l 204 729 z "},"j":{"ha":383,"x_min":-44,"x_max":303,"o":"m 219 1047 q 303 1003 303 1047 l 303 890 q 219 846 303 846 l 181 846 q 97 890 97 846 l 97 1003 q 181 1047 97 1047 l 219 1047 m 219 729 q 303 685 303 729 l 303 -69 q 247 -237 303 -179 q 100 -294 190 -294 q -13 -278 18 -294 q -44 -222 -44 -262 q -29 -160 -44 -194 q 6 -126 -14 -126 q 26 -129 13 -126 q 47 -132 39 -132 q 85 -118 74 -132 q 97 -72 97 -104 l 97 685 q 181 729 97 729 l 219 729 z "},"ȷ":{"ha":383,"x_min":-44,"x_max":303,"o":"m 219 729 q 303 685 303 729 l 303 -69 q 247 -237 303 -179 q 100 -294 190 -294 q -13 -278 18 -294 q -44 -222 -44 -262 q -29 -160 -44 -194 q 6 -126 -14 -126 q 26 -129 13 -126 q 47 -132 39 -132 q 85 -118 74 -132 q 97 -72 97 -104 l 97 685 q 181 729 97 729 l 219 729 z "},"ĵ":{"ha":383,"x_min":-44,"x_max":390,"o":"m 0 0 m 219 729 q 303 685 303 729 l 303 -69 q 247 -237 303 -179 q 100 -294 190 -294 q -13 -278 18 -294 q -44 -222 -44 -262 q -29 -160 -44 -194 q 6 -126 -14 -126 q 26 -129 13 -126 q 47 -132 39 -132 q 85 -118 74 -132 q 97 -72 97 -104 l 97 685 q 181 729 97 729 l 219 729 m 207 997 q 262 992 243 997 q 292 971 281 988 l 382 829 q 390 808 390 817 q 363 794 390 794 l 332 794 q 238 828 260 794 l 199 883 l 160 829 q 123 801 146 808 q 67 794 100 794 l 36 794 q 8 808 8 794 q 17 829 8 817 l 107 971 q 137 992 118 988 q 192 997 156 997 l 207 997 z "},"k":{"ha":724,"x_min":92,"x_max":717,"o":"m 214 1047 q 297 1003 297 1047 l 297 453 l 303 451 l 471 703 q 501 724 482 719 q 556 729 521 729 l 607 729 q 685 708 685 729 q 672 681 685 697 l 479 406 l 706 47 q 717 18 717 28 q 638 -3 717 -3 l 579 -3 q 496 24 511 -3 l 303 343 l 297 342 l 297 42 q 214 -3 297 -3 l 175 -3 q 92 42 92 -3 l 92 1003 q 175 1047 92 1047 l 214 1047 z "},"ķ":{"ha":724,"x_min":92,"x_max":717,"o":"m 92 0 m 214 1047 q 297 1003 297 1047 l 297 453 l 303 451 l 471 703 q 501 724 482 719 q 556 729 521 729 l 607 729 q 685 708 685 729 q 672 681 685 697 l 479 406 l 706 47 q 717 18 717 28 q 638 -3 717 -3 l 579 -3 q 496 24 511 -3 l 303 343 l 297 342 l 297 42 q 214 -3 297 -3 l 175 -3 q 92 42 92 -3 l 92 1003 q 175 1047 92 1047 l 214 1047 m 379 -71 q 431 -87 414 -71 q 449 -132 449 -104 q 422 -223 449 -176 q 360 -301 396 -269 q 299 -333 324 -333 q 256 -326 276 -333 q 236 -303 236 -318 q 244 -274 236 -293 q 263 -212 256 -243 q 269 -132 269 -181 q 353 -71 269 -71 l 379 -71 z "},"ĸ":{"ha":724,"x_min":92,"x_max":717,"o":"m 214 729 q 297 685 297 729 l 297 453 l 303 451 l 471 703 q 501 724 482 719 q 556 729 521 729 l 607 729 q 685 708 685 729 q 672 681 685 697 l 479 406 l 706 47 q 717 18 717 28 q 638 -3 717 -3 l 579 -3 q 496 24 511 -3 l 303 343 l 297 342 l 297 42 q 214 -3 297 -3 l 175 -3 q 92 42 92 -3 l 92 685 q 175 729 92 729 l 214 729 z "},"l":{"ha":413,"x_min":88,"x_max":424,"o":"m 210 1047 q 293 1003 293 1047 l 293 211 q 305 165 293 179 q 343 151 317 151 q 362 154 350 151 q 381 157 374 157 q 403 136 393 157 q 418 90 413 115 q 424 57 424 65 q 290 -11 424 -11 q 88 214 88 -11 l 88 1003 q 171 1047 88 1047 l 210 1047 z "},"ĺ":{"ha":413,"x_min":88,"x_max":424,"o":"m 88 0 m 210 1047 q 293 1003 293 1047 l 293 211 q 305 165 293 179 q 343 151 317 151 q 362 154 350 151 q 381 157 374 157 q 403 136 393 157 q 418 90 413 115 q 424 57 424 65 q 290 -11 424 -11 q 88 214 88 -11 l 88 1003 q 171 1047 88 1047 l 210 1047 m 300 1293 q 363 1289 343 1293 q 383 1274 383 1285 q 375 1255 383 1265 q 332 1207 367 1244 q 239 1107 261 1132 q 202 1082 225 1092 q 135 1072 179 1072 q 101 1077 110 1072 q 92 1093 92 1082 q 101 1117 92 1100 q 125 1158 110 1133 q 182 1256 179 1250 q 300 1293 203 1293 z "}}}
